<svg xmlns="http://www.w3.org/2000/svg" width="45.287" height="50.697" viewBox="0 0 11.982 13.414">
  <defs>
    <clipPath id="a" clipPathUnits="userSpaceOnUse"/>
    <clipPath id="b" clipPathUnits="userSpaceOnUse"/>
    <clipPath id="c" clipPathUnits="userSpaceOnUse"/>
    <clipPath id="d" clipPathUnits="userSpaceOnUse"/>
    <clipPath id="e" clipPathUnits="userSpaceOnUse"/>
    <clipPath id="f" clipPathUnits="userSpaceOnUse"/>
    <clipPath id="g" clipPathUnits="userSpaceOnUse"/>
    <clipPath id="h" clipPathUnits="userSpaceOnUse"/>
    <clipPath id="i" clipPathUnits="userSpaceOnUse"/>
    <clipPath id="j" clipPathUnits="userSpaceOnUse"/>
    <clipPath id="k" clipPathUnits="userSpaceOnUse"/>
    <clipPath id="l" clipPathUnits="userSpaceOnUse"/>
    <clipPath id="m" clipPathUnits="userSpaceOnUse"/>
    <clipPath id="n" clipPathUnits="userSpaceOnUse"/>
    <clipPath id="o" clipPathUnits="userSpaceOnUse"/>
    <clipPath id="p" clipPathUnits="userSpaceOnUse"/>
    <clipPath id="q" clipPathUnits="userSpaceOnUse"/>
    <clipPath id="r" clipPathUnits="userSpaceOnUse"/>
    <clipPath id="s" clipPathUnits="userSpaceOnUse"/>
    <clipPath id="t" clipPathUnits="userSpaceOnUse"/>
    <clipPath id="u" clipPathUnits="userSpaceOnUse"/>
    <clipPath id="v" clipPathUnits="userSpaceOnUse"/>
    <clipPath id="w" clipPathUnits="userSpaceOnUse"/>
    <clipPath id="x" clipPathUnits="userSpaceOnUse"/>
    <clipPath id="y" clipPathUnits="userSpaceOnUse"/>
    <clipPath id="z" clipPathUnits="userSpaceOnUse"/>
    <clipPath id="A" clipPathUnits="userSpaceOnUse"/>
    <clipPath id="B" clipPathUnits="userSpaceOnUse"/>
    <clipPath id="C" clipPathUnits="userSpaceOnUse"/>
    <clipPath id="D" clipPathUnits="userSpaceOnUse"/>
    <clipPath id="E" clipPathUnits="userSpaceOnUse"/>
    <clipPath id="F" clipPathUnits="userSpaceOnUse"/>
    <clipPath id="G" clipPathUnits="userSpaceOnUse"/>
    <clipPath id="H" clipPathUnits="userSpaceOnUse"/>
    <clipPath id="I" clipPathUnits="userSpaceOnUse"/>
    <clipPath id="J" clipPathUnits="userSpaceOnUse"/>
    <clipPath id="K" clipPathUnits="userSpaceOnUse"/>
    <clipPath id="L" clipPathUnits="userSpaceOnUse"/>
    <clipPath id="M" clipPathUnits="userSpaceOnUse"/>
    <clipPath id="N" clipPathUnits="userSpaceOnUse"/>
    <clipPath id="O" clipPathUnits="userSpaceOnUse"/>
    <clipPath id="P" clipPathUnits="userSpaceOnUse"/>
    <clipPath id="Q" clipPathUnits="userSpaceOnUse"/>
    <clipPath id="R" clipPathUnits="userSpaceOnUse"/>
    <clipPath id="S" clipPathUnits="userSpaceOnUse"/>
    <clipPath id="T" clipPathUnits="userSpaceOnUse"/>
    <clipPath id="U" clipPathUnits="userSpaceOnUse"/>
    <clipPath id="V" clipPathUnits="userSpaceOnUse"/>
    <clipPath id="W" clipPathUnits="userSpaceOnUse"/>
    <clipPath id="X" clipPathUnits="userSpaceOnUse"/>
    <clipPath id="Y" clipPathUnits="userSpaceOnUse"/>
  </defs>
  <g clip-path="url(#a)" transform="matrix(.4932 0 0 -.4932 4.61 3.213)">
    <path d="M0 0c-.012-.019-.031-.068.154-.389.086-.15.097-.152.138-.24.061-.13.046-.147.106-.275.057-.122.072-.109.153-.266.075-.145.071-.172.116-.199.052-.032.071-.247.267-.218.223.033.235.003.324.021.23.047.333.317.359.391.015.042-.004.091-.285.402-.171.19-.259.287-.352.364A5.477 5.477 0 0 1 .6-.15C.393-.014.301.041.169.045.115.046.031.049 0 0m-1.79-1.104c-.041-.087-.043-.186-.046-.381a2.504 2.504 0 0 1 .017-.398c.015-.115.029-.217.076-.346.023-.064.033-.073.148-.287.154-.287.174-.338.249-.37a.4.4 0 0 1 .234-.006.462.462 0 0 1 .228.096c.077.065.104.141.155.284.045.129.068.194.065.286-.004.116-.047.197-.123.336a2.167 2.167 0 0 1-.226.33c-.113.141-.17.188-.339.372-.109.119-.196.22-.258.294a.546.546 0 0 1-.18-.21M-2.503.885c.061.212.162.568.319.565.078-.001.134-.109.138-.115.062-.124-.038-.207.001-.371.025-.104.101-.224.186-.23.055-.004.066.044.218.144.09.059.184.107.199.115.132.066.181.073.187.107.005.035-.041.068-.174.148-.276.165-.356.186-.388.272-.025.069-.016.164.035.216.082.082.247.032.505-.046.136-.041.244-.075.374-.156.133-.084.216-.172.282-.244.111-.119.198-.213.263-.363.059-.137.056-.221.132-.26.063-.032.121-.003.206.012C.108.702.223.667.452.598.63.544.752.483.996.362c.243-.12.364-.181.42-.236.097-.097.108-.158.337-.461.102-.135.138-.174.189-.174.101-.001.139.153.276.319.092.111.133.112.549.37.288.179.432.268.569.364.255.179.362.278.566.309.184.028.278-.026.312-.05.017-.011.123-.084.129-.192.002-.036-.005-.127-.21-.28C4.012.24 3.825.129 3.456.029c-.291-.08-.328-.052-.473-.132a1.366 1.366 0 0 1-.347-.289c-.132-.144-.093-.153-.242-.317-.105-.115-.167-.158-.165-.237.002-.064.044-.076.081-.201.016-.053.015-.073.031-.177.028-.179.04-.179.051-.272.012-.1.027-.22-.014-.344-.012-.039-.033-.089-.183-.266-.152-.18-.229-.27-.33-.35-.116-.092-.122-.067-.391-.243-.129-.085-.194-.127-.277-.195-.178-.148-.178-.201-.292-.293-.16-.13-.221-.076-.598-.222-.292-.112-.272-.151-.523-.23a2.29 2.29 0 0 0-.509-.1c-.177-.014-.266-.021-.358.006-.221.066-.236.216-.445.311-.177.08-.346.054-.497.032-.187-.029-.361-.125-.703-.318-.303-.17-.454-.255-.59-.358-.172-.13-.234-.203-.397-.264-.108-.041-.33-.125-.474-.008a.309.309 0 0 0-.106.275c.014.088.071.159.245.283.206.147.378.228.478.276.5.242.428.27.68.357.253.088.565.143.637.155.267.047.381.046.399.107.031.102-.267.179-.47.508-.128.206-.153.407-.17.54-.019.145-.032.404.061.691.062.188.111.341.238.509.078.104.16.179.136.256-.022.07-.016.118-.124.212-.069.061-.102.126-.166.258-.075.151-.13.263-.149.411-.019.151-.061.281-.003.485" style="fill:#3574a5;fill-opacity:1;fill-rule:nonzero;stroke:none"/>
  </g>
  <g clip-path="url(#b)" transform="matrix(.4932 0 0 -.4932 4.98 5.157)">
    <path d="M0 0c-.016-.026-.042-.079-.054-.244-.008-.113-.015-.201.005-.316.023-.133.068-.224.123-.336.078-.156.096-.148.267-.431.144-.239.167-.305.18-.374.014-.068.012-.11.039-.19.035-.101.079-.15.139-.239.072-.109.112-.195.193-.367.05-.105.079-.18.137-.329.119-.304.106-.317.164-.437.099-.207.138-.176.272-.41.152-.266.107-.315.259-.541a1.08 1.08 0 0 1 .287-.313c.139-.095.178-.064.263-.149.147-.146.101-.307.229-.364.071-.032.173-.021.197.025.045.084-.135.285-.324.593-.183.298-.135.297-.336.674-.054.102-.15.244-.341.529-.087.13-.172.252-.219.441-.028.111-.058.24.014.345.069.101.192.12.212.122.148.02.265-.073.345-.137.089-.071.14-.141.253-.315.123-.19.184-.285.266-.431.212-.375.184-.392.317-.579.086-.12.017-.126.186-.353.117-.157.342-.386.36-.377.035.016-.157.464-.216.619-.079.21-.161.366-.206.448-.161.298-.205.303-.395.623-.206.347-.181.386-.33.572-.127.158-.153.14-.38.382a8.005 8.005 0 0 0-.4.478c-.206.258-.31.387-.425.552-.243.347-.365.521-.416.628C.595-.053.55.078.418.135A.35.35 0 0 1 .136.132.33.33 0 0 1 0 0m3.794-6.633c.017-.251.115-.437.163-.527.092-.177.18-.356.272-.534.234-.449.162-.473.352-.824.059-.109.212-.31.517-.712.066-.086.253-.328.537-.469.052-.026.127-.059.195-.03.099.043.141.201.131.324-.014.196-.151.231-.265.521-.056.144-.021.132-.079.29-.08.22-.166.296-.307.532-.136.228-.093.219-.226.454-.155.272-.311.456-.443.613-.246.292-.319.41-.484.5-.061.034-.235.13-.32.063-.033-.026-.051-.076-.043-.201m-.486.197a1.795 1.795 0 0 1-.216-.638c-.025-.177-.053-.371.009-.598.016-.061.065-.219.423-.642.338-.399.404-.387.589-.652.045-.064.059-.091.342-.653.145-.288.302-.57.443-.86.196-.401.227-.504.365-.57.071-.034.24-.029.578-.02.321.009.393.026.465.055.172.071.28.187.335.247.107.117.161.228.214.336.067.139.099.251.118.317.044.155.066.232.056.333a.61.61 0 0 1-.106.276c-.159.248-.36.367-.482.466-.271.221-.151.345-.52.993-.27.475-.328.397-.559.847-.121.233-.189.416-.388.733-.202.32-.296.393-.377.437-.272.151-.564.085-.657.064a.944.944 0 0 1-.486-.263c-.066-.069-.101-.13-.146-.208M.524.657C.719.655.862.601.97.56c.236-.089.391-.212.485-.287.19-.153.335-.322.424-.428.196-.232.255-.353.387-.362.077-.005.13.032.241.104.424.275.365.195.55.335.217.164.197.197.705.744.317.341.446.459.461.674.009.126-.03.161-.068.333-.08.368.021.571.092 1.098.025.18.034.396.054.829.027.603.002.653.033 1.17.038.632.072.507.068.802-.003.245-.028.459.089.706.101.214.207.237.233.241.106.018.197-.057.225-.083.121-.11.13-.28.133-.383.012-.422-.041-.768-.057-.884-.051-.365.008-.304-.031-.868-.023-.338-.041-.32-.158-1.261-.091-.74-.088-.821-.06-.938.044-.185.119-.334.067-.546-.036-.148-.099-.184-.149-.387-.046-.191-.011-.243-.046-.381C4.61.636 4.529.545 4.325.335a15.075 15.075 0 0 0-.629-.629c-.341-.311-.512-.467-.561-.501-.197-.134-.384-.224-.396-.388a.471.471 0 0 1 .054-.217c.037-.089.085-.202.165-.224.099-.027.207.097.33.226.188.198.399.372.599.559.167.156.375.336.622.518.096.072.28.203.529.342.211.117.319.175.456.192.113.014.175-.004.528-.085.294-.068.441-.102.529-.12a8.61 8.61 0 0 1 .728-.094c.389-.041.584-.061.767-.07.37-.019.367.007.819-.006.384-.012.216-.025.87-.065.121-.007.341-.02.598-.115a.602.602 0 0 0 .287-.189c.029-.039.126-.166.087-.304-.03-.103-.119-.157-.161-.182-.161-.094-.337-.069-.409-.059-.301.042-.607.05-.907.097-.39.061-.695.091-.859.107-.467.044-.506.024-.857.072-.297.04-.288.058-.666.111-.217.031-.153.016-.72.081-.379.043-.458.056-.607.039a1.434 1.434 0 0 1-.461-.124c-.198-.094-.222-.17-.557-.446-.172-.142-.143-.103-.467-.358-.318-.251-.408-.337-.495-.463a.834.834 0 0 1-.169-.381c-.014-.109.004-.183.097-.476.112-.354.136-.407.218-.654.136-.409.146-.494.239-.535.105-.047.211.01.473.131.238.11.486.2.724.312.456.215.684.323.917.406.556.197.78.178.927.145.17-.04.319-.118.366-.143.203-.109.262-.197.439-.332.207-.158.383-.236.647-.353.117-.052.215-.089.667-.235.686-.221.654-.197.911-.289.38-.134.676-.265.902-.365.509-.225.407-.213.629-.292.274-.098.43-.117.567-.276.035-.04.177-.205.125-.37-.045-.144-.209-.201-.248-.215-.162-.055-.31-.011-.421.023-.607.19-.871.312-.871.312-.491.229-.42.222-.715.35-.446.191-.508.163-.832.335-.238.126-.235.157-.534.311-.103.054-.257.124-.559.262-.292.134-.306.138-.481.219-.57.264-.508.259-.608.287-.408.11-.782.007-.906-.027-.144-.04-.095-.045-.464-.179-.4-.146-.415-.124-.619-.216-.324-.146-.237-.179-.558-.323-.111-.049-.242-.099-.31-.231-.013-.027-.059-.117-.024-.174.058-.091.286.015.448-.007.134-.018.485-.08.959-.403.465-.317.729-.668 1.019-1.06.084-.113.399-.546.704-1.188.216-.455.395-.831.474-1.374a3.432 3.432 0 0 0-.001-1.011 1.704 1.704 0 0 0-.14-.524 3.195 3.195 0 0 0-.217-.391c-.084-.122-.132-.166-.136-.256-.005-.107.058-.132.071-.277a.383.383 0 0 0-.046-.257c-.087-.131-.258-.145-.321-.15a.528.528 0 0 0-.278.052c-.115.057-.118.114-.203.166-.145.09-.281.011-.529-.004a1.487 1.487 0 0 0-.562.083c-.189.059-.344.154-.643.408-.287.246-.527.451-.818.804a6 6 0 0 0-.878 1.46c-.147.329-.289.652-.377 1.112a4.144 4.144 0 0 0-.061 1.027c.011.287.019.433.096.57.083.145.207.248.172.347-.022.061-.094.091-.151.108l-.338-.213c-.231-.147-.397-.277-.685-.502a12.864 12.864 0 0 1-.681-.57c-.245-.221-.313-.301-.375-.394C.505-7.48.45-7.592.346-7.934a6.359 6.359 0 0 1-.223-.872C.107-8.9.079-9.07.034-9.726c-.028-.404-.049-.7-.064-1.118-.023-.665-.003-.807-.054-1.165-.024-.172-.046-.266-.055-.457-.011-.255.019-.345-.03-.531-.033-.13-.079-.306-.219-.357-.133-.049-.269.046-.278.052-.155.111-.166.328-.173.485-.009.185.022.324.038.394.036.167.065.43.121.956.054.496.016.479.07.891.042.314.061.302.123.708.05.331.039.345.11.915.077.613.088.582.097.782.018.393-.029.464.026.724.025.12.079.365.252.606.133.185.201.18.681.57l.464.393c.477.403.513.437.625.484.201.084.387.1.4.196.006.042-.025.079-.084.146-.102.117-.205.179-.268.218a3.53 3.53 0 0 0-.33.234c-.134.112-.213.228-.371.459-.196.287-.197.352-.314.422a.683.683 0 0 1-.431.07c-.157-.017-.215-.068-.503-.202-.29-.135-.265-.099-.57-.241-.237-.109-.405-.202-.547-.28-.336-.186-.506-.281-.602-.4-.073-.092-.078-.134-.218-.481-.096-.237-.202-.47-.302-.706l-.356-.825c-.273-.632-.289-.666-.337-.798-.138-.384-.105-.394-.222-.659-.143-.327-.194-.313-.332-.653a3.54 3.54 0 0 0-.202-.417c-.108-.194-.171-.263-.252-.27-.089-.007-.159.068-.169.079-.033.036-.087.119-.055.341.03.207.108.344.171.471.176.351.099.333.28.711.171.357.221.334.335.618.121.302.066.332.183.603.127.291.199.274.35.591.096.201.063.2.224.625.14.372.145.322.233.578.117.342.105.424.22.57.088.111.186.179.334.282.044.03.126.085.385.222a9.688 9.688 0 0 0 1.165.531c.168.065.328.149.496.215.158.062.26.095.284.182.021.075-.027.15-.09.249-.064.1-.122.191-.22.227-.11.042-.201-.013-.447-.116-.172-.072-.35-.129-.524-.196-.22-.085-.386-.149-.599-.222-.3-.102-.144-.033-.669-.191-.16-.048-.234-.073-.341-.055-.131.022-.171.084-.362.198a5.393 5.393 0 0 1-.46.213c-.368.162-.352.14-.473.206-.237.128-.223.171-.45.289-.174.09-.19.069-.444.186-.209.097-.211.117-.405.21-.273.131-.295.104-.599.239-.083.037-.23.113-.524.264-.348.179-.299.159-.405.21-.166.078-.328.168-.496.245a.668.668 0 0 0-.208.145c-.052.055-.101.106-.1.173.003.095.106.17.188.197.111.037.214-.003.284-.031.282-.115.488-.246.582-.302.045-.027.293-.126.789-.324.468-.186.482-.19.557-.228.3-.15.317-.211.656-.4.176-.098.155-.073.638-.306.281-.136.375-.186.715-.349.435-.208.542-.25.703-.267.224-.024.404.016.493.037.081.018.174.046.623.271.555.277.447.252.6.311.214.081.344.099.433.232.084.124.085.277.108.274.021-.002.029-.148.016-.15-.008-.001-.02.048-.132.474l-.089.338c-.087.314-.112.354-.126.494-.017.168.001.284.008.324a1 1 0 0 0 .081.259c.02.041.08.166.197.273.241.222.557.219.653.218" style="fill:#3574a5;fill-opacity:1;fill-rule:nonzero;stroke:none"/>
  </g>
  <g clip-path="url(#c)" transform="matrix(.4932 0 0 -.4932 7.254 1.973)">
    <path d="M0 0c-.032-.068-.008-.137.024-.225C.08-.382.142-.41.19-.513c.059-.125.019-.191.001-.529a5.975 5.975 0 0 1-.004-.452c.006-.383.035-.404.023-.636-.011-.206-.034-.19-.063-.487-.026-.261-.01-.296-.032-.588-.018-.248-.028-.21-.067-.595-.053-.531-.025-.526-.072-.677-.037-.119-.053-.206-.085-.38-.018-.095-.027-.162.004-.237.007-.016.058-.139.168-.154.083-.011.164.043.205.105.07.107.011.222-.028.461a5.485 5.485 0 0 0-.028.461c-.013.322-.02.484.002.663.017.14.033.17.042.316.012.179-.007.224.003.385.008.143.025.154.064.394.029.187.042.327.057.497.024.259.013.259.036.511.017.183.038.356.054.481.035.287.045.326.04.434-.001.035-.01.196-.08.391C.376.002.346.086.266.114A.233.233 0 0 1 0 0" style="fill:#2d618a;fill-opacity:1;fill-rule:nonzero;stroke:none"/>
  </g>
  <g clip-path="url(#d)" transform="matrix(.4932 0 0 -.4932 5.031 9.262)">
    <path d="M0 0a3.245 3.245 0 0 1-.113-.547c-.044-.311-.061-.513-.091-.815-.054-.544-.055-.464-.083-.784a9.835 9.835 0 0 1-.053-.927c0-.323.022-.324.005-.519-.023-.275-.073-.385-.079-.675-.001-.049-.007-.413.057-.422.052-.008.126.223.135.252.089.278.064.474.066.72.001.14.009.053.089.774.034.311.031.312.078.768.087.834.092.785.102.982.025.495-.025.508.012.931.038.434.116.706.081.716C.173.463.066.213 0 0" style="fill:#2d618a;fill-opacity:1;fill-rule:nonzero;stroke:none"/>
  </g>
  <g clip-path="url(#e)" transform="matrix(.4932 0 0 -.4932 4.52 3.087)">
    <path d="M0 0c-.046-.07.127-.187.232-.457.08-.207.014-.23.101-.452.061-.155.087-.128.236-.408.112-.212.118-.267.198-.316.078-.048.171-.043.355-.034.151.007.255.029.412.061.196.041.289.075.377.122.092.049.138.074.154.121.017.051-.003.111-.261.424-.111.134-.166.201-.24.277a2.061 2.061 0 0 1-.327.29 2.317 2.317 0 0 1-.409.211S.669-.09.441-.017A.9.9 0 0 1 .19.03C.088.034.024.036 0 0m-1.96 1.072c.036-.027.048-.062.088-.236.041-.178.043-.199.065-.25.037-.087.073-.169.141-.19.085-.026.123.071.331.174.172.086.259.076.342.182.023.03.062.081.059.146-.003.087-.076.148-.155.214-.113.095-.142.072-.213.148-.091.098-.096.191-.142.19-.044-.001-.084-.088-.068-.103.022-.022.129.127.313.149a.51.51 0 0 0 .321-.086c.061-.037.082-.065.224-.222.235-.259.211-.22.259-.282.133-.173.125-.228.257-.363A.51.51 0 0 1 .057.4C.147.368.199.389.336.386.473.383.574.36.649.343c.072-.017.233-.06.412-.162.134-.076.217-.15.377-.293.118-.106.181-.162.257-.251.218-.257.25-.443.367-.443.031.001.069.028.144.083.06.044.126.103.234.231.074.088.117.149.138.176.146.189.307.184.647.373.293.163.518.347.518.347.153.125.247.226.407.236.036.002.182.01.26-.09.06-.078.043-.173.042-.184-.007-.034-.028-.109-.227-.242a1.7 1.7 0 0 0-.464-.22c-.164-.048-.168-.024-.312-.069a1.723 1.723 0 0 1-.421-.211 3.202 3.202 0 0 1-.481-.357c-.172-.154-.214-.225-.223-.305-.003-.028-.001-.052.058-.238.075-.237.094-.266.121-.377a.96.96 0 0 0 .045-.326c-.007-.091-.021-.28-.158-.362-.089-.053-.223-.058-.273.002-.04.048.003.102-.042.183-.026.048-.081.102-.143.11-.073.008-.138-.062-.267-.202-.253-.277-.259-.285-.285-.309-.152-.144-.24-.228-.381-.252a.6.6 0 0 0-.383.083.892.892 0 0 0-.248.208c-.081.091-.15.193-.318.551-.12.255-.18.382-.201.459-.063.226-.026.283-.104.594-.042.169-.065.256-.127.358-.031.052-.022.026-.279.318-.063.072-.111.127-.196.174-.048.026-.105.059-.177.058-.088-.002-.132-.05-.283-.147-.172-.112-.26-.167-.344-.151-.07.013-.111.062-.175.138a.749.749 0 0 0-.174.411c-.005.057 0 .125.009.261.011.158.025.207-.01.266-.039.068-.09.059-.125.135-.024.05-.04.139.007.18.043.036.121.021.169-.015" style="fill:#2d618a;fill-opacity:1;fill-rule:nonzero;stroke:none"/>
  </g>
  <g clip-path="url(#f)" transform="matrix(.4932 0 0 -.4932 3.67 3.758)">
    <path d="M0 0a1.443 1.443 0 0 1-.141-.337 1.22 1.22 0 0 1-.031-.305c.001-.039.006-.224.089-.46.083-.231.207-.418.225-.445.107-.158.195-.238.166-.287-.018-.032-.07-.023-.221-.032 0 0-.133-.008-.271-.029-.167-.025-.286-.083-.424-.149-.092-.044-.112-.061-.324-.187-.058-.034-.237-.14-.419-.242-.322-.18-.482-.269-.522-.285-.077-.031-.207-.078-.316-.199-.031-.034-.093-.104-.072-.153.018-.04.086-.046.158-.052a.54.54 0 0 1 .228.02c.111.033.17.087.252.145.088.062.083.045.366.195.413.219.38.232.582.32.2.087.209.064.418.162.111.052.188.095.332.143.199.067.271.058.307.05.061-.013.065-.031.209-.087.099-.037.148-.056.196-.062a.534.534 0 0 1 .312.068.77.77 0 0 1 .26.214.593.593 0 0 1 .102.155c.027.06.063.14.049.219-.031.175-.051.117-.031.175.009.027-.163.156-.118.139.043-.017-.142.011-.148-.027-.01-.06.1-.121-.043-.195-.186-.098-.18-.217-.344-.263a.34.34 0 0 0-.23.011c-.09.043-.111.119-.203.298-.136.261-.156.222-.236.407a1.48 1.48 0 0 0-.116.396c-.022.16-.038.271.007.403.044.131.108.164.135.318C.199.13.202.249.17.258.137.268.075.147 0 0" style="fill:#2d618a;fill-opacity:1;fill-rule:nonzero;stroke:none"/>
  </g>
  <g clip-path="url(#g)" transform="matrix(.4932 0 0 -.4932 7.079 4.535)">
    <path d="M0 0c-.048.015-.139-.039-.128-.05.025-.022-.163-.312-.328-.495-.149-.165-.13-.228-.472-.523-.351-.303-.546-.434-.646-.488-.182-.096-.256-.22-.392-.217-.035 0-.094.009-.271.148-.173.135-.232.218-.415.396-.1.098-.203.199-.352.313-.131.1-.236.18-.396.249-.129.055-.257.111-.427.097-.117-.009-.196-.047-.322-.106-.15-.071-.292-.139-.389-.291-.064-.1-.113-.219-.089-.236.028-.02.117.113.325.24.165.1.295.13.331.138.111.024.227.048.334-.006.083-.041.113-.105.189-.235.092-.155.202-.298.3-.45.144-.223.216-.334.299-.449.213-.293.22-.247.318-.413.126-.214.14-.339.253-.37.108-.03.18.062.272.011.03-.016.053-.043.12-.208.061-.15.06-.17.098-.262.071-.17.116-.278.221-.336.043-.024.097-.034.203-.054.151-.029.193-.013.23-.053.051-.057.034-.158.019-.241-.016-.095-.041-.107-.046-.172-.006-.093.038-.159.092-.251 0 0 .09-.153.192-.379.023-.051.062-.175.139-.424.094-.302.104-.36.077-.432-.022-.061-.06-.104-.042-.157.027-.076.143-.097.15-.099.13-.022.23.065.391.173.133.089.278.159.417.241.303.178.454.267.657.353.101.042.271.108.489.163a2.483 2.483 0 0 0 1.018.071c.069-.01.196-.032.448-.112.108-.034.296-.097.663-.253.128-.054.114-.05.607-.272.47-.211.502-.223.613-.282.109-.057.102-.058.468-.259.254-.14.3-.164.345-.185.041-.02.216-.103.469-.193.262-.093.274-.074.487-.156.183-.069.167-.08.428-.19.355-.149.319-.101.51-.195.199-.098.274-.167.368-.133.079.03.131.12.137.199.01.125-.094.215-.155.268-.13.113-.267.146-.349.169-.331.095-.281.187-.759.397-.238.104-.215.066-.635.229-.296.115-.299.13-.575.238-.249.097-.44.159-.745.258-.494.161-.547.161-.729.254a3.653 3.653 0 0 0-.454.281c-.212.157-.238.216-.41.32a1.387 1.387 0 0 1-.469.193c-.095.018-.253.032-.753-.117-.162-.049-.254-.082-.875-.32-.415-.159-.624-.238-.658-.26-.235-.153-.374-.325-.603-.309a.336.336 0 0 0-.199.07c-.097.082-.085.191-.139.424-.02.086-.057.195-.133.413-.086.252-.13.378-.165.447-.068.134-.111.182-.11.282.002.087.037.11.048.239.009.11-.013.136-.008.22.006.124.062.213.125.311.04.062.125.182.368.372.032.024.088.067.4.27.142.093.267.17.515.324.217.135.262.161.344.185.054.016.079.018.382.049.306.03.325.033.378.033.137-.002.21-.021.405-.058.162-.031.317-.055.627-.101a16.103 16.103 0 0 1 1.206-.139c.393-.035.421-.034.697-.061.299-.029.449-.043.58-.062.393-.059.389-.092.534-.076.174.018.289.077.43.01.059-.028.092-.063.153-.058.08.007.165.08.18.171.015.087-.043.158-.073.196a.562.562 0 0 1-.314.176 3.055 3.055 0 0 1-.658.084c-.06 0 .201 0-.867.056-.583.03-.874.045-.994.048-.513.011-.586-.01-.83.037a5.728 5.728 0 0 0-.611.164c-.182.06-.3.109-.507.144-.166.029-.254.044-.371.024-.104-.017-.155-.049-.465-.228-.355-.205-.326-.185-.377-.218-.171-.11-.283-.2-.472-.352-.219-.176-.329-.264-.469-.403-.095-.094-.17-.178-.344-.344-.19-.182-.263-.237-.356-.232-.099.004-.171.073-.24.139a.518.518 0 0 0-.174.324.34.34 0 0 0 .025.186c.053.111.152.128.275.212.125.086.118.133.275.304.179.197.215.164.415.359.21.205.143.214.412.503.084.091.193.199.295.382.11.195.067.244.072.267C.077-.057.085-.026 0 0" style="fill:#2d618a;fill-opacity:1;fill-rule:nonzero;stroke:none"/>
  </g>
  <g clip-path="url(#h)" transform="matrix(.4932 0 0 -.4932 4.979 5.148)">
    <path d="M0 0c-.053-.028-.051-.126-.043-.319.006-.149.008-.223.034-.315.03-.105.057-.127.16-.323.134-.255.092-.226.19-.399.107-.188.176-.254.157-.364-.012-.071-.05-.092-.043-.158.01-.088.083-.119.158-.204.116-.132.048-.182.176-.42.097-.181.16-.196.169-.317.005-.063-.009-.1.003-.213.006-.056.012-.118.037-.179.042-.106.115-.153.173-.208.103-.098.067-.135.225-.459.093-.191.152-.311.271-.446.087-.099.144-.165.246-.219.104-.054.167-.051.263-.129a.528.528 0 0 0 .134-.164c.013-.025.078-.154.047-.267-.036-.131-.185-.174-.368-.266-.038-.019.01.004-.588-.419-.535-.38-.541-.375-.611-.447-.215-.221-.191-.299-.404-.461-.089-.067-.191-.128-.3-.267-.13-.164-.123-.253-.119-.282.013-.084.073-.183.152-.193.049-.007.109.018.262.218.161.209.164.272.262.405.069.093.078.076.504.425.15.123.328.272.371.308.279.233.279.238.336.274.337.212.386.236.386.236.043.021.096.045.129.101.046.081.005.147.051.19.035.034.076.01.191.017.097.006.204.013.25.077.058.082-.01.218-.032.263-.049.099-.121.149-.221.221a25.43 25.43 0 0 0-.396.292 2.206 2.206 0 0 0-.364.353c-.142.176-.216.332-.325.562-.071.15-.119.252-.164.4-.076.252-.047.315-.113.59-.05.208-.07.182-.17.504-.117.373-.085.388-.18.659-.051.146-.033.064-.264.597 0 0-.086.196-.23.443a.683.683 0 0 1-.244.261C.109-.013.045.024 0 0" style="fill:#2d618a;fill-opacity:1;fill-rule:nonzero;stroke:none"/>
  </g>
  <g clip-path="url(#i)" transform="matrix(.4932 0 0 -.4932 5.809 6.345)">
    <path d="M0 0c-.049-.109.084-.258.19-.399.042-.055-.191.249.352-.586.406-.625.375-.545.525-.794.202-.333.215-.402.441-.763.139-.223.162-.24.224-.366.106-.211.108-.295.203-.351.072-.042.105-.015.395-.012.069 0 .178-.004.396-.013.279-.011.326-.019.381-.034.133-.038.224-.103.284-.144a1.39 1.39 0 0 0 .27-.259c.106-.127.172-.233.302-.455.14-.238.244-.421.267-.461.095-.168.23-.407.376-.653.23-.384.344-.576.461-.751.151-.227.197-.274.232-.401.032-.117.034-.225.109-.259.066-.029.121.031.218-.007a.198.198 0 0 0 .11-.097c.006-.015.019-.052-.015-.183-.023-.088-.036-.098-.048-.148-.043-.168.051-.236-.002-.322-.024-.039-.085-.061-.206-.106-.133-.049-.14-.031-.204-.064-.094-.05-.104-.103-.221-.221-.068-.07-.123-.111-.207-.174-.086-.063-.196-.145-.356-.218-.113-.052-.195-.09-.316-.102-.085-.009-.15-.001-.276.014-.123.015-.185.023-.231.054-.102.066-.135.182-.149.235-.025.088-.016.139-.012.274a2.68 2.68 0 0 1-.015.42 1.542 1.542 0 0 1-.112.404c-.019.045-.086.2-.22.381-.105.141-.151.163-.289.315-.088.096-.188.235-.389.511-.204.282-.175.253-.357.503-.225.308-.239.309-.29.409-.112.219-.126.371-.204.377-.076.006-.143-.13-.166-.176a.593.593 0 0 1-.046-.361c.013-.08.053-.163.134-.325.059-.118.103-.207.175-.327.102-.167.192-.283.289-.408.185-.236.2-.223.308-.371a3.49 3.49 0 0 0 .29-.502c.037-.072.156-.304.298-.631.106-.246.113-.286.199-.46a3.22 3.22 0 0 1 .243-.422c.12-.175.18-.262.279-.321.14-.083.28-.086.426-.088.186-.004.332.032.458.063.16.04.321.077.481.118.089.022.158.04.213.002.085-.059.051-.199.111-.217.05-.014.128.063.158.145.038.104-.006.206-.032.263-.078.176-.189.183-.193.289-.004.103.096.213.198.236.066.014.133-.008.173-.021.093-.031.106-.069.144-.064.058.007.095.104.159.373.067.274.1.412.094.509-.01.195-.07.19-.092.415-.023.236.037.286.008.473-.024.153-.078.199-.18.405-.202.405-.117.471-.304.828-.052.098-.034.047-.314.474-.255.389-.246.395-.361.555a3.771 3.771 0 0 1-.475.568 2.738 2.738 0 0 1-.556.429c-.243.14-.45.206-.617.259-.225.071-.392.124-.628.16-.2.03-.302.025-.437.108a.878.878 0 0 0-.249.245 1.342 1.342 0 0 0-.153.313c-.056.139-.064.191-.114.336a2.578 2.578 0 0 1-.535.949c-.116.136-.091.081-.326.333-.082.088-.158.173-.286.264C.207.102.129.093.089.078A.155.155 0 0 1 0 0" style="fill:#2d618a;fill-opacity:1;fill-rule:nonzero;stroke:none"/>
  </g>
  <g clip-path="url(#j)" transform="matrix(.4932 0 0 -.4932 6.898 8.323)">
    <path d="M0 0c-.009-.024-.021-.084.113-.242.124-.147.247-.23.28-.254.145-.103.141-.172.4-.599.26-.429.277-.378.474-.729.23-.409.274-.498.274-.498.079-.159.104-.226.186-.321.076-.088.123-.109.232-.241.08-.096.109-.149.123-.143.026.012-.041.196-.104.435-.09.346-.054.355-.118.575-.05.172-.144.345-.332.691-.126.232-.228.402-.319.552-.37.616-.334.468-.406.635-.04.093-.082.21-.198.274a.435.435 0 0 1-.252.042C.292.169.243.145.145.097.057.054.013.032 0 0" style="fill:#2d618a;fill-opacity:1;fill-rule:nonzero;stroke:none"/>
  </g>
  <g clip-path="url(#k)" transform="matrix(.4932 0 0 -.4932 3.93 7.206)">
    <path d="M0 0c-.09-.061-.147-.22-.079-.327.07-.109.231-.1.245-.099.157.011.218.134.408.289.1.081.227.147.482.278.247.127.442.205.607.27.363.144.545.216.64.236 0 0 .231.049.47.205.025.016.074.049.078.098.005.067-.079.131-.145.157-.115.047-.233.002-.294-.022a5.428 5.428 0 0 1-.617-.276c-.35-.181-.34-.1-.771-.311C.751.363.614.296.521.234.377.137.287.053.128.034.083.028.043.029 0 0" style="fill:#2d618a;fill-opacity:1;fill-rule:nonzero;stroke:none"/>
  </g>
  <g clip-path="url(#l)" transform="matrix(.4932 0 0 -.4932 3.411 8.422)">
    <path d="M0 0c-.261-.205-.221-.457-.414-.882-.144-.316-.241-.34-.378-.713-.057-.156-.118-.363-.092-.374.031-.013.144.268.397.657.271.418.379.46.524.785.096.215.204.546.125.594C.12.093.037.029 0 0" style="fill:#2d618a;fill-opacity:1;fill-rule:nonzero;stroke:none"/>
  </g>
  <g clip-path="url(#m)" transform="matrix(.4932 0 0 -.4932 1.385 5.428)">
    <path d="M0 0c-.02-.071.056-.151.122-.211.276-.255.546-.367.546-.367.281-.116.555-.252.833-.376.422-.187.358-.182.812-.387.501-.225.551-.219.864-.384.273-.144.557-.319.581-.334.3-.185.31-.212.459-.284.148-.072.397-.193.702-.197.109-.001.178.013.771.218.438.151.657.227.742.268.454.217.373.291.777.462.107.045.251.098.249.17-.001.06-.097.118-.184.135-.196.038-.31-.141-.644-.345-.045-.028-.008-.003-.637-.288-.375-.17-.466-.213-.634-.245a1.47 1.47 0 0 0-.44-.027c-.208.02-.361.085-.76.297-.362.193-.419.237-.71.394-.307.166-.301.147-.792.399-.5.256-.478.261-.863.452-.465.23-.437.194-.759.364-.17.09-.354.151-.519.249C.378.046.253.135.119.095.103.091.018.064 0 0" style="fill:#2d618a;fill-opacity:1;fill-rule:nonzero;stroke:none"/>
  </g>
  <g clip-path="url(#n)" transform="matrix(.4932 0 0 -.4932 3.76 7.654)">
    <path d="M0 0c-.041.011-.133-.215-.237-.471-.113-.28-.173-.428-.144-.445.039-.023.255.196.35.483C.035-.232.039-.01 0 0" style="fill:#2d618a;fill-opacity:1;fill-rule:nonzero;stroke:none"/>
  </g>
  <g clip-path="url(#o)" transform="matrix(.4932 0 0 -.4932 5.193 4.05)">
    <path d="M0 0c-.022-.013-.079-.045-.081-.096-.002-.057.065-.108.127-.113.071-.006.146.046.157.115C.208-.06.199-.016.168.01.107.061.011.006 0 0" style="fill:#c7edfb;fill-opacity:1;fill-rule:nonzero;stroke:none"/>
  </g>
  <g clip-path="url(#p)" transform="matrix(.4932 0 0 -.4932 3.163 5.1)">
    <path d="M0 0c-.005.009.257.195.653.352.458.182.655.151.728.135.049-.011.036-.013.24-.072.25-.073.375-.109.464-.117.159-.014.274.024.489.097.164.055.277.109.637.293.467.24.345.187.732.386.445.228.481.234.549.317.031.037.115.147.261.213.122.054.173.028.187.02a.16.16 0 0 0 .071-.145c-.012-.131-.242-.204-.393-.264-.437-.172-.312-.273-.972-.635-.397-.218-.395-.156-.8-.375-.073-.04-.209-.116-.405-.159a1.528 1.528 0 0 0-.339-.035C1.911.008 1.816.007 1.714.06c-.115.059-.113.12-.223.193a.678.678 0 0 1-.4.092C.57.338.007-.013 0 0" style="fill:#58a6d6;fill-opacity:1;fill-rule:nonzero;stroke:none"/>
  </g>
  <g clip-path="url(#q)" transform="matrix(.4932 0 0 -.4932 5.121 5.028)">
    <path d="M0 0c-.004.031.135.11.265.078.109-.026.174-.121.218-.184.051-.074.073-.139.082-.163.042-.12.121-.233.277-.46.266-.384.316-.298.488-.586.132-.221.163-.372.319-.424.083-.028.155-.011.231-.077.06-.053.118-.155.081-.227-.032-.061-.125-.081-.193-.074-.137.016-.213.147-.343.336-.188.273-.056.036-.36.474-.359.517-.539.776-.577.87-.056.138-.112.318-.273.387C.108-.004.004-.026 0 0" style="fill:#58a6d6;fill-opacity:1;fill-rule:nonzero;stroke:none"/>
  </g>
  <g clip-path="url(#r)" transform="matrix(.4932 0 0 -.4932 6.144 6.162)">
    <path d="M0 0c-.008-.005.043-.155.174-.259.034-.026.135-.107.277-.113.123-.006.187.049.23.009.041-.039.02-.127.01-.168-.019-.08-.053-.11-.073-.154-.075-.169.138-.416.131-.42-.011-.007-.395.578-.395.578C.122-.173.006.003 0 0" style="fill:#c7edfb;fill-opacity:1;fill-rule:nonzero;stroke:none"/>
  </g>
  <g clip-path="url(#s)" transform="matrix(.4932 0 0 -.4932 6.663 7.19)">
    <path d="M0 0c-.024-.014.065-.132.151-.434.029-.101.043-.171.098-.191.062-.022.155.027.164.082C.42-.5.375-.461.354-.441.135-.238.033.019 0 0" style="fill:#c7edfb;fill-opacity:1;fill-rule:nonzero;stroke:none"/>
  </g>
  <g clip-path="url(#t)" transform="matrix(.4932 0 0 -.4932 6.387 7.813)">
    <path d="M0 0c-.035-.053-.077-.115-.053-.167.032-.068.154-.062.173-.062.014.001.162.01.223.129.01.021.055.117.003.188C.297.156.201.147.188.146.091.136.035.052 0 0" style="fill:#c7edfb;fill-opacity:1;fill-rule:nonzero;stroke:none"/>
  </g>
  <g clip-path="url(#u)" transform="matrix(.4932 0 0 -.4932 7.332 8.05)">
    <path d="M0 0c-.025-.072.069-.186.17-.187.057-.001.13.033.143.095.016.07-.053.136-.115.157C.121.091.02.06 0 0" style="fill:#c7edfb;fill-opacity:1;fill-rule:nonzero;stroke:none"/>
  </g>
  <g clip-path="url(#v)" transform="matrix(.4932 0 0 -.4932 8.18 10.729)">
    <path d="M0 0c.103.082.255.051.338-.028C.39-.077.446-.174.41-.259.379-.332.297-.356.272-.364c-.126-.037-.319.009-.355.142C-.105-.14-.062-.05 0 0" style="fill:#c7edfb;fill-opacity:1;fill-rule:nonzero;stroke:none"/>
  </g>
  <g clip-path="url(#w)" transform="matrix(.4932 0 0 -.4932 5.182 6.913)">
    <path d="M0 0c-.021.059.23.285.481.241C.636.213.732.094.803.005c.15-.188.104-.278.254-.548.087-.155.163-.29.318-.399.14-.098.217-.086.374-.218.091-.078.205-.174.185-.278a.213.213 0 0 0-.207-.157c-.128.01-.15.186-.346.384-.153.155-.188.097-.351.243-.193.174-.158.269-.453.656-.121.158-.194.232-.305.271C.123.011.013-.037 0 0" style="fill:#58a6d6;fill-opacity:1;fill-rule:nonzero;stroke:none"/>
  </g>
  <g clip-path="url(#x)" transform="matrix(.4932 0 0 -.4932 4.883 5.483)">
    <path d="M0 0c-.059-.016-.045-.493.225-.862.033-.045.146-.2.179-.182C.484-1.001.09.024 0 0" style="fill:#58a6d6;fill-opacity:1;fill-rule:nonzero;stroke:none"/>
  </g>
  <g clip-path="url(#y)" transform="matrix(.4932 0 0 -.4932 6.072 3.274)">
    <path d="M0 0c-.013.038.184.144.353.204.052.018.25.088.267.054C.638.223.454.065.23.009.143-.013.01-.029 0 0" style="fill:#58a6d6;fill-opacity:1;fill-rule:nonzero;stroke:none"/>
  </g>
  <g clip-path="url(#z)" transform="matrix(.4932 0 0 -.4932 3.733 2.41)">
    <path d="M0 0c.016.017.081-.019.197-.084a.944.944 0 0 0 .181-.119c.049-.045.139-.126.117-.181C.482-.415.435-.432.396-.428c-.057.005-.07.053-.172.148-.067.062-.076.054-.122.103C.045-.116-.019-.021 0 0" style="fill:#58a6d6;fill-opacity:1;fill-rule:nonzero;stroke:none"/>
  </g>
  <g clip-path="url(#A)" transform="matrix(.4932 0 0 -.4932 3.734 3.45)">
    <path d="M0 0c-.093-.009-.174-.197-.129-.248.021-.025.057-.001.15-.025.049-.012.083-.03.114-.046a.682.682 0 0 0 .176-.134c.092-.092.143-.172.177-.22.17-.243.267-.194.429-.422.101-.142.175-.318.184-.34.065-.156.083-.26.167-.288.054-.018.132-.003.161.043.041.067-.034.17-.215.459a7.959 7.959 0 0 0-.251.413c-.134.24-.201.361-.257.509-.068.18-.088.294-.168.312C.475.027.448-.035.292-.055.241-.061.19-.067.128-.05.053-.029.041.004 0 0" style="fill:#58a6d6;fill-opacity:1;fill-rule:nonzero;stroke:none"/>
  </g>
  <g clip-path="url(#B)" transform="matrix(.4932 0 0 -.4932 4.548 3.145)">
    <path d="M0 0a1.734 1.734 0 0 0 .7-.203c.162-.088.265-.177.362-.262.093-.081.225-.198.355-.379.136-.189.204-.283.233-.361.027-.07.048-.15.112-.171.049-.017.117.003.146.047.014.022.038.078-.101.326a1.949 1.949 0 0 1-.243.356c-.1.114-.182.183-.347.321-.193.161-.293.244-.447.324C.644.064.561.107.44.118A.709.709 0 0 1 0 0" style="fill:#58a6d6;fill-opacity:1;fill-rule:nonzero;stroke:none"/>
  </g>
  <g clip-path="url(#C)" transform="matrix(.4932 0 0 -.4932 2.588 5.31)">
    <path d="M0 0a.11.11 0 0 1-.052-.104c.012-.076.126-.11.201-.133.097-.029.222-.066.284.003.039.044.049.127.013.169-.044.054-.118-.006-.281.036C.082-.007.043.023 0 0" style="fill:#58a6d6;fill-opacity:1;fill-rule:nonzero;stroke:none"/>
  </g>
  <g clip-path="url(#D)" transform="matrix(.4932 0 0 -.4932 7.13 7.31)">
    <path d="M0 0c-.005.01.26.177.624.336.152.066.344.13.721.255.552.182.63.195.715.201.054.004.305.02.654-.081.445-.128.74-.357.869-.453.315-.233.884-.485 2.023-.99.091-.04.666-.294 1.443-.567.182-.064.273-.096.275-.09.019.045-3.296 1.28-4.212 1.797-.071.04-.293.17-.615.228a1.94 1.94 0 0 1-.635.005C.955.508.009-.018 0 0" style="fill:#58a6d6;fill-opacity:1;fill-rule:nonzero;stroke:none"/>
  </g>
  <g clip-path="url(#E)" transform="matrix(.4932 0 0 -.4932 6.961 8.522)">
    <path d="M0 0c.019.009.428-.618.796-1.4.225-.479.283-.694.517-.831.005-.003.218-.128.391-.356.062-.082.099-.15.075-.193-.031-.055-.145-.045-.161-.043-.227.02-.384.351-.508.6-.415.836.057-.27-.639 1.193C.207-.475-.016-.008 0 0" style="fill:#58a6d6;fill-opacity:1;fill-rule:nonzero;stroke:none"/>
  </g>
  <g clip-path="url(#F)" transform="matrix(.4932 0 0 -.4932 8.22 9.421)">
    <path d="M0 0c.027.009.103-.41.335-.451.113-.02.178.064.321.024.07-.02.181-.075.192-.162C.863-.698.716-.822.579-.831c-.133-.01-.232.09-.308.169C.004-.387-.025-.008 0 0" style="fill:#58a6d6;fill-opacity:1;fill-rule:nonzero;stroke:none"/>
  </g>
  <g clip-path="url(#G)" transform="matrix(.4932 0 0 -.4932 7.579 8.373)">
    <path d="M0 0c-.015-.007.089-.407.391-.761.119-.14.167-.154.264-.287.226-.313.286-.685.244-.702C.803-1.789.034.015 0 0" style="fill:#58a6d6;fill-opacity:1;fill-rule:nonzero;stroke:none"/>
  </g>
  <g clip-path="url(#H)" transform="matrix(.4932 0 0 -.4932 6.827 9.963)">
    <path d="M0 0c-.035-.028.273-.472.544-.814.333-.42.39-.407.404-.399.05.026.01.203-.022.297a.998.998 0 0 1-.248.365c-.125.127-.165.125-.389.309C.077-.069.015.012 0 0" style="fill:#58a6d6;fill-opacity:1;fill-rule:nonzero;stroke:none"/>
  </g>
  <g clip-path="url(#I)" transform="matrix(.4932 0 0 -.4932 7.362 10.571)">
    <path d="M0 0c.011.008.053-.078.163-.154.098-.067.144-.054.296-.126.054-.026.225-.106.215-.137C.662-.455.337-.46.141-.266.031-.157-.015-.009 0 0" style="fill:#58a6d6;fill-opacity:1;fill-rule:nonzero;stroke:none"/>
  </g>
  <g clip-path="url(#J)" transform="matrix(.4932 0 0 -.4932 5.84 6.558)">
    <path d="M0 0c-.018-.009.154-.406.249-.625.12-.277.083-.171.31-.664.121-.266.161-.359.264-.48.133-.156.32-.297.353-.268.042.037-.192.326-.513.845C.238-.503.021.01 0 0" style="fill:#58a6d6;fill-opacity:1;fill-rule:nonzero;stroke:none"/>
  </g>
  <g clip-path="url(#K)" transform="matrix(.4932 0 0 -.4932 4.839 6.402)">
    <path d="M0 0c-.006.012.141.074.285.214.125.122.128.184.214.21C.603.456.73.406.803.327.877.248.846.193.911-.032c.067-.228.133-.285.094-.355C.96-.467.813-.508.735-.456.63-.388.727-.209.6-.051a.403.403 0 0 1-.239.135C.169.116.007-.013 0 0" style="fill:#58a6d6;fill-opacity:1;fill-rule:nonzero;stroke:none"/>
  </g>
  <g clip-path="url(#L)" transform="matrix(.4932 0 0 -.4932 1.371 5.523)">
    <path d="M0 0c.039.045.424-.234.564-.332 1.189-.836 1.732-.672 3.198-1.588.449-.28.645-.45 1.02-.478.351-.026.664.087 1.243.296.547.198.773.338.779.326.013-.026-.917-.879-1.951-.766-.388.042-.389.177-1.476.71-.733.359-1.099.538-1.637.729-.418.148-1.173.386-1.602.885C.101-.174-.025-.028 0 0" style="fill:#58a6d6;fill-opacity:1;fill-rule:nonzero;stroke:none"/>
  </g>
  <g clip-path="url(#M)" transform="matrix(.4932 0 0 -.4932 3.885 7.472)">
    <path d="M0 0c-.137-.065-.089-.299-.182-.737-.075-.354-.167-.492-.143-.504.066-.034.776.939.564 1.193C.185.016.072.034 0 0" style="fill:#58a6d6;fill-opacity:1;fill-rule:nonzero;stroke:none"/>
  </g>
  <g clip-path="url(#N)" transform="matrix(.4932 0 0 -.4932 4.776 7.013)">
    <path d="M0 0a2.555 2.555 0 0 1-.795-.384c-.12-.087-.289-.208-.275-.233.04-.071 1.424.604 1.393.68C.313.088.149.042 0 0" style="fill:#58a6d6;fill-opacity:1;fill-rule:nonzero;stroke:none"/>
  </g>
  <g clip-path="url(#O)" transform="matrix(.4932 0 0 -.4932 2.923 9.673)">
    <path d="M0 0c-.017-.028-.061-.1-.038-.171.024-.071.114-.128.19-.113.092.018.128.137.151.211.027.091.023.166.023.174-.014.308.558 1.223.516 1.253C.802 1.384.308.505 0 0" style="fill:#58a6d6;fill-opacity:1;fill-rule:nonzero;stroke:none"/>
  </g>
  <g clip-path="url(#P)" transform="matrix(.4932 0 0 -.4932 6.187 7.837)">
    <path d="M0 0c-.015.026-.265-.085-.451-.186-.084-.046-.454-.251-.9-.718-.167-.175-.382-.426-.363-.445.023-.022.327.291.858.706C-.34-.24.019-.033 0 0" style="fill:#58a6d6;fill-opacity:1;fill-rule:nonzero;stroke:none"/>
  </g>
  <g clip-path="url(#Q)" transform="matrix(.4932 0 0 -.4932 4.906 8.944)">
    <path d="M0 0c-.096-.091-.144-.229-.107-1.017.017-.373.027-.572.058-.574.054-.002-.021.593.29 1.259.09.193.198.361.138.427C.322.158.122.116 0 0" style="fill:#58a6d6;fill-opacity:1;fill-rule:nonzero;stroke:none"/>
  </g>
  <g clip-path="url(#R)" transform="matrix(.4932 0 0 -.4932 4.814 9.994)">
    <path d="M0 0c-.037.002-.029-.545-.204-1.494-.099-.539-.04-1.104-.171-1.636-.011-.046-.048-.188.027-.283.058-.074.161-.089.226-.092.072.043.128.098.14.167.011.07-.03.115-.072.231 0 0-.021.057-.058.252-.067.345.125 1.436.125 1.436C.146-.661.041-.002 0 0" style="fill:#58a6d6;fill-opacity:1;fill-rule:nonzero;stroke:none"/>
  </g>
  <g clip-path="url(#S)" transform="matrix(.4932 0 0 -.4932 6.433 9.291)">
    <path d="M0 0c-.035-.024.058-.208.219-.53.188-.375.229-.404.255-.399.053.011.077.162.06.283-.023.168-.128.279-.301.458C.139-.091.03.021 0 0" style="fill:#58a6d6;fill-opacity:1;fill-rule:nonzero;stroke:none"/>
  </g>
  <g clip-path="url(#T)" transform="matrix(.4932 0 0 -.4932 6.436 8.354)">
    <path d="M0 0c.004 0 .014-.059-.002-.125-.026-.11-.099-.141-.136-.215-.076-.15.037-.38.08-.376C.015-.707-.013 0 0 0" style="fill:#58a6d6;fill-opacity:1;fill-rule:nonzero;stroke:none"/>
  </g>
  <g clip-path="url(#U)" transform="matrix(.4932 0 0 -.4932 7.243 2.781)">
    <path d="M0 0c-.028-.002-.008-.264-.043-.806-.043-.656-.116-.961-.086-.967.036-.008.212.424.237.942C.129-.388.034.002 0 0" style="fill:#58a6d6;fill-opacity:1;fill-rule:nonzero;stroke:none"/>
  </g>
  <g clip-path="url(#V)" transform="matrix(.4932 0 0 -.4932 7.233 2.096)">
    <path d="M0 0c-.023-.007-.019-.145.049-.257.036-.059.101-.128.118-.118C.201-.353.039.012 0 0" style="fill:#58a6d6;fill-opacity:1;fill-rule:nonzero;stroke:none"/>
  </g>
  <g clip-path="url(#W)" transform="matrix(.4932 0 0 -.4932 7.109 4.73)">
    <path d="M0 0c-.029.014-.109-.15-.376-.465-.064-.076-.08-.09-.284-.325-.232-.267-.237-.278-.233-.284.028-.035.483.159.735.574.139.227.193.483.158.5" style="fill:#58a6d6;fill-opacity:1;fill-rule:nonzero;stroke:none"/>
  </g>
  <g clip-path="url(#X)" transform="matrix(.4932 0 0 -.4932 7.178 5.602)">
    <path d="M0 0c-.014.023.273.267.674.401.315.106.548.094.605.09.238-.017.459-.095.455-.122-.005-.032-.321.052-.722.004C.401.301.016-.027 0 0" style="fill:#58a6d6;fill-opacity:1;fill-rule:nonzero;stroke:none"/>
  </g>
  <g clip-path="url(#Y)" transform="matrix(.4932 0 0 -.4932 9.031 5.529)">
    <path d="M0 0c.004.04 1.707-.078 1.706-.119-.001-.022-.499-.033-.973.009C.41-.081-.002-.02 0 0" style="fill:#3574a5;fill-opacity:1;fill-rule:nonzero;stroke:none"/>
  </g>
</svg>
