<svg xmlns="http://www.w3.org/2000/svg" width="45.287" height="50.697" viewBox="0 0 11.982 13.414">
  <defs>
    <clipPath id="a" clipPathUnits="userSpaceOnUse"/>
    <clipPath id="b" clipPathUnits="userSpaceOnUse"/>
    <clipPath id="c" clipPathUnits="userSpaceOnUse"/>
    <clipPath id="d" clipPathUnits="userSpaceOnUse"/>
    <clipPath id="e" clipPathUnits="userSpaceOnUse"/>
    <clipPath id="f" clipPathUnits="userSpaceOnUse"/>
    <clipPath id="g" clipPathUnits="userSpaceOnUse"/>
    <clipPath id="h" clipPathUnits="userSpaceOnUse"/>
    <clipPath id="i" clipPathUnits="userSpaceOnUse"/>
    <clipPath id="j" clipPathUnits="userSpaceOnUse"/>
    <clipPath id="k" clipPathUnits="userSpaceOnUse"/>
    <clipPath id="l" clipPathUnits="userSpaceOnUse"/>
    <clipPath id="m" clipPathUnits="userSpaceOnUse"/>
    <clipPath id="n" clipPathUnits="userSpaceOnUse"/>
    <clipPath id="o" clipPathUnits="userSpaceOnUse"/>
    <clipPath id="p" clipPathUnits="userSpaceOnUse"/>
    <clipPath id="q" clipPathUnits="userSpaceOnUse"/>
    <clipPath id="r" clipPathUnits="userSpaceOnUse"/>
    <clipPath id="s" clipPathUnits="userSpaceOnUse"/>
    <clipPath id="t" clipPathUnits="userSpaceOnUse"/>
    <clipPath id="u" clipPathUnits="userSpaceOnUse"/>
    <clipPath id="v" clipPathUnits="userSpaceOnUse"/>
    <clipPath id="w" clipPathUnits="userSpaceOnUse"/>
    <clipPath id="x" clipPathUnits="userSpaceOnUse"/>
    <clipPath id="y" clipPathUnits="userSpaceOnUse"/>
    <clipPath id="z" clipPathUnits="userSpaceOnUse"/>
    <clipPath id="A" clipPathUnits="userSpaceOnUse"/>
    <clipPath id="B" clipPathUnits="userSpaceOnUse"/>
    <clipPath id="C" clipPathUnits="userSpaceOnUse"/>
    <clipPath id="D" clipPathUnits="userSpaceOnUse"/>
    <clipPath id="E" clipPathUnits="userSpaceOnUse"/>
    <clipPath id="F" clipPathUnits="userSpaceOnUse"/>
    <clipPath id="G" clipPathUnits="userSpaceOnUse"/>
    <clipPath id="H" clipPathUnits="userSpaceOnUse"/>
    <clipPath id="I" clipPathUnits="userSpaceOnUse"/>
    <clipPath id="J" clipPathUnits="userSpaceOnUse"/>
    <clipPath id="K" clipPathUnits="userSpaceOnUse"/>
    <clipPath id="L" clipPathUnits="userSpaceOnUse"/>
    <clipPath id="M" clipPathUnits="userSpaceOnUse"/>
    <clipPath id="N" clipPathUnits="userSpaceOnUse"/>
  </defs>
  <g clip-path="url(#a)" transform="matrix(.49847 0 0 -.49847 7.497 9.581)">
    <path d="M0 0c-.01-.029-.051-.152.007-.222.071-.084.247-.04.341-.015.266.071.304.182.6.347.311.173.469.16.559.338.012.024.079.162.02.252-.087.132-.378.067-.425.057C.921.717.928.657.552.455.439.394.327.339.185.228.09.153.03.091 0 0m-3.332 11.911c-.02-.082.042-.14.229-.396.096-.131.117-.167.156-.166.067.001.096.105.184.257.018.031.132.171.359.449.246.3.258.312.291.333.113.075.208.093.274.204.041.069.07.173.035.201-.045.036-.163-.073-.402-.217a4.06 4.06 0 0 0-.478-.245c-.144-.064-.35-.145-.56-.309-.04-.031-.075-.061-.088-.111m-2.978-.015c-.006-.065-.014-.161.041-.202.075-.056.22.023.306.071.171.094.167.154.341.272.184.124.298.131.304.206.006.072-.094.134-.163.177-.064.04-.247.154-.427.086-.085-.032-.135-.102-.237-.243-.075-.104-.152-.213-.165-.367m1.43-.125c-.024-.064.04-.142.17-.294.106-.125.161-.188.222-.203.136-.032.281.067.353.173.056.083.116.24.044.343-.046.066-.125.078-.27.1a.747.747 0 0 1-.349-.021c-.092-.028-.152-.047-.17-.098m-.531-.623c-.04-.07-.003-.137.055-.33.074-.243.055-.269.107-.315a.299.299 0 0 1 .347-.027c.067.044.139.133.127.225-.014.101-.116.101-.273.264-.143.148-.171.265-.256.26-.064-.003-.104-.072-.107-.077m-1.015-.254c-.077-.071-.181-.168-.18-.315.002-.177.155-.284.17-.294a.417.417 0 0 1 .507.036c.079.078.092.175.111.305.018.128.034.24-.037.326-.081.098-.219.096-.252.096-.154-.001-.259-.098-.319-.154m2.38-.934c-.064-.099-.021-.232-.006-.275.011-.036.082-.253.257-.289.144-.03.267.083.386.193a.65.65 0 0 1 .226.341c.027.122.002.219-.026.332-.038.151-.073.289-.165.312-.095.024-.211-.083-.265-.168-.064-.101-.027-.148-.098-.223-.047-.049-.073-.04-.197-.128a.445.445 0 0 1-.112-.095m-1.718-1.022a.626.626 0 0 1 .301-.234.7.7 0 0 1 .353-.037.73.73 0 0 1 .426.23c.079.087.159.175.146.296a.3.3 0 0 1-.22.25c-.054.012-.096 0-.338-.12-.305-.15-.314-.168-.393-.181-.181-.031-.297.032-.332-.026-.029-.047.023-.126.057-.178m1.809-.352c-.077-.046-.053-.22-.04-.307.063-.448.408-.834.517-1.008.062-.101.001-.011.372-.722.233-.445.408-.768.506-.95.801-1.488 1.441-2.743 1.647-3.231.094-.224.102-.297.206-.47.118-.197.22-.286.194-.411-.02-.093-.101-.152-.198-.223-.165-.12-.249-.092-.36-.207-.027-.029-.136-.143-.104-.235.044-.128.326-.123.354-.122.14.003.219.046.439.144.453.203.433.162.61.265.054.032.029.02.429.313.31.228.406.294.447.433.032.105.031.249-.034.285-.041.024-.096-.004-.329-.146-.286-.174-.349-.221-.427-.203-.103.023-.156.139-.2.233-.126.267-.306.51-.411.787-.115.303-.179.321-.62 1.036-.346.559-.278.502-1.021 1.806-.83 1.456-.772 1.28-.84 1.454-.133.344-.285.848-.726 1.259-.071.065-.304.282-.411.22m-4.147-1.305c-.006-.181.031-.296.178-.725.088-.255.134-.385.244-.535.137-.187.214-.19.239-.188.118.007.124.178.257.235.167.072.305-.134.649-.257.226-.081.225-.012.765-.081.493-.062.674-.142.731-.058.045.069-.035.176-.206.47-.244.419-.367.629-.448.852-.119.324-.111.508-.31.801-.106.155-.167.19-.207.208-.177.074-.308-.051-.725-.179-.252-.077-.408-.125-.633-.148-.222-.023-.364-.006-.459-.112-.017-.02-.069-.084-.075-.283m-3.17 3.942c.054.066.145.175.236.158.071-.013.074-.091.181-.2a.73.73 0 0 1 .246-.163c.159-.059.209.012.44-.007.117-.01.356-.031.424-.169.048-.098-.034-.159-.015-.314.014-.107.065-.171.234-.366.243-.283.364-.424.435-.49.245-.229.368-.344.493-.325.117.017.166.122.349.376.067.093.262.363.456.568.362.382.638.445.636.672 0 .03-.031.111-.093.274-.077.206-.111.263-.168.404-.077.194-.146.366-.171.598-.022.21-.034.321.024.449.055.122.134.173.134.296a.347.347 0 0 1-.08.215c-.117.142-.316.142-.431.143a1.068 1.068 0 0 1-.507-.14 1.335 1.335 0 0 1-.476-.384c-.089-.117-.148-.252-.264-.523-.107-.247-.121-.324-.221-.41-.039-.034-.204-.176-.39-.117-.103.033-.21.125-.226.24-.017.123.08.184.269.439.163.219.119.212.356.554.143.205.214.308.298.39.163.158.319.239.52.343.24.125.359.187.512.209.347.05.635-.092.674-.112.252-.128.275-.266.465-.276.156-.009.336.073.369.191.017.063-.018.097-.046.192-.058.197-.003.375.052.552.026.086.082.26.227.436.125.153.255.232.371.301.247.149.46.208.693.27.412.111.721.132.88.138.464.016.593-.066.658-.121.095-.082.2-.234.156-.346-.042-.105-.197-.13-.388-.159-.303-.045-.398.008-.692-.007-.182-.01-.325-.044-.611-.113-.489-.118-.579-.204-.619-.249a.638.638 0 0 1-.155-.372c-.012-.165.036-.41.199-.495.058-.031.079-.014.255-.027.124-.01.317-.024.461-.083.111-.044.173-.107.367-.333.448-.52.406-.522.473-.554.261-.126.427.127 1.238.344.411.11.571.099.629.233.074.169-.145.277-.336.808-.148.41-.087.543-.266.761-.03.038-.133.158-.24.341-.074.128-.112.194-.109.264.009.183.214.221.214.385 0 .14-.151.178-.137.312.014.132.172.212.214.233.026.013.287.139.492-.021a.4.4 0 0 0 .156-.346c-.021-.183-.189-.203-.223-.368-.04-.193.168-.273.288-.574.115-.291-.026-.349.048-.801.022-.133.103-.343.265-.761.15-.385.213-.499.337-.546.132-.051.191.029.323-.032.149-.067.126-.192.314-.429.142-.18.296-.285.366-.333.126-.085.175-.092.375-.197.196-.102.332-.173.465-.276.354-.276.33-.506.592-.573.067-.018.164-.016.356-.013.257.004.309.034.398-.01.135-.066.211-.231.217-.376.006-.17-.082-.373-.221-.41-.06-.016-.088.01-.318.099-.106.041-.24.093-.354.123-.246.064-.287-.002-.459.04-.202.049-.348.214-.641.544-.178.2-.177.229-.327.378-.304.3-.46.333-.545.339a.515.515 0 0 1-.276-.05c-.139-.072-.172-.181-.328-.451a6.348 6.348 0 0 0-.285-.448c-.185-.269-.265-.343-.307-.526a.868.868 0 0 1-.018-.271c.024-.214.131-.325.314-.581.302-.421.453-.632.559-.855.046-.098.104-.232.247-.314.03-.017.183-.105.316-.057.192.069.128.346.342.916.155.414.265.473.245.708-.01.119-.051.242.01.398.018.047.072.184.198.223.143.044.281-.069.319-.099.164-.133.204-.325.238-.451.079-.292.265-.545.387-.822.223-.504.591-.871 1.241-1.658.22-.267-.018.013 1.495-1.947.756-.981.833-1.072.967-1.337.209-.409.454-.799.656-1.211.097-.197.182-.382.386-.518.22-.147.349-.085.565-.262.179-.146.268-.332.323-.446.078-.162.046-.167.145-.439.127-.352.21-.425.168-.556C6.7.746 6.587.645 6.471.641 6.327.637 6.225.783 6.17.86c-.135.191-.077.294-.208.511a1.077 1.077 0 0 1-.245.273c-.15.13-.219.138-.499.3-.218.125-.357.206-.503.341a1.84 1.84 0 0 0-.301.371c-.298.466-.447.699-.632 1.095-.051.109-.343.57-.926 1.491C1.559 7.29 1.592 7.135 1.402 7.496c-.147.279-.351.524-.521.789-.109.17-.182.286-.244.272-.082-.018-.069-.241-.112-.674C.506 7.69.461 7.391.371 6.792c-.067-.445-.088-.529-.044-.679.059-.201.165-.288.379-.544.174-.208.297-.389.544-.753.379-.559.522-.891.587-1.055.17-.428.154-.587.141-.659-.03-.18-.104-.233-.154-.525a1.179 1.179 0 0 1-.017-.424c.024-.143.058-.152.133-.381.023-.071.053-.201.112-.458a5.63 5.63 0 0 0 .165-.928c.029-.298.043-.447.02-.599-.018-.112-.08-.259-.204-.553-.173-.41-.234-.487-.264-.523a.944.944 0 0 0-.397-.295.966.966 0 0 0-.583-.009c-.197.049-.191.103-.424.169-.271.076-.302.01-.461.082-.134.061-.235.19-.433.447-.228.297-.185.307-.294.397-.221.182-.359.111-.526.306-.089.106-.083.166-.202.276a1.012 1.012 0 0 1-.272.169c-.373.18-.425.161-.556.246-.133.086-.159.157-.365.443-.307.427-.324.373-.494.629-.25.378-.173.435-.482.986-.141.253-.244.434-.435.641a2.843 2.843 0 0 1-.543.45c-.418.277-.467.18-.847.447a2.857 2.857 0 0 1-.481.267c-.137.067-.226.102-.257.069-.04-.041.036-.174.055-.208.338-.604.468-1.306.766-1.932.551-1.152.667-1.397.966-2.012.497-1.023.549-1.114.633-1.247.259-.41.398-.652.677-1.134.153-.267.252-.445.244-.687-.007-.215-.091-.305-.084-.571.006-.23.074-.403.114-.501.158-.387.352-.427.462-.8.038-.128.095-.32 0-.415-.096-.095-.302-.047-.424.017-.055.029-.115.072-.317.362-.243.346-.224.379-.342.478-.13.109-.205.112-.258.221-.069.144-.018.302-.004.346.066.206.197.225.249.362.082.216-.135.468-.286.684-.247.352-.348.786-.527 1.177-.299.651-.257.626-.85 2.037-.488 1.163-.48 1.092-.719 1.698l-.558 1.42c-.067.184-.16.398-.345.825-.021.047-.1.192-.258.483-.115.212-.177.321-.247.315-.037-.004-.044-.037-.165-.205-.113-.157-.132-.163-.139-.211-.02-.124.09-.165.076-.283-.015-.119-.147-.225-.273-.244-.058-.009-.134.019-.283.076-.251.095-.279.141-.289.16-.042.081-.013.172.011.246.064.202.192.233.197.375.002.079-.037.1-.081.215-.068.178-.049.324-.044.454.005.125-.01.056-.109.83-.034.266-.089.53-.132.795-.016.098-.03.184-.093.273-.067.096-.134.114-.155.194-.026.102.05.204.079.241.106.142.273.213.817.32.405.079.669.124.669.124.405.07.561.087.605.197.025.061-.016.16-.097.358-.073.177-.111.266-.186.285-.077.019-.148-.043-.239-.116-.353-.287-.043.014-.501-.377-.175-.149-.356-.29-.532-.437-.134-.114-.234-.199-.336-.173-.077.02-.111.093-.162.168-.096.142-.15.139-.463.386-.383.302-.319.319-.606.522-.186.132-.25.151-.406.288a6.477 6.477 0 0 0-.306.303c-.244.251-.254.282-.331.31-.148.053-.23.001-.377.087-.034.02-.167.097-.209.249-.025.09-.008.167.003.22a.587.587 0 0 0 .121.244" style="fill:#3f9b3a;fill-opacity:1;fill-rule:nonzero;stroke:none"/>
  </g>
  <g clip-path="url(#b)" transform="matrix(.49847 0 0 -.49847 2.608 3.475)">
    <path d="M0 0c-.048-.183-.018-.208-.01-.213.05-.035.183.065.267.154.111.118.135.22.197.351.118.247.271.394.303.427.134.14.265.225.334.267.09.054.251.148.484.19.141.026.342.062.565-.029.163-.067.26-.169.338-.25.118-.126.226-.239.199-.345-.031-.115-.19-.098-.267-.258-.033-.07-.055-.182-.002-.253.073-.097.256-.077.365-.041.199.065.197.197.433.353.119.079.223.111.433.176.247.077.372.115.541.09.085-.013.248-.037.36-.162.061-.068.049-.1.155-.267.083-.132.126-.199.185-.219.094-.033.14.041.334.089a.777.777 0 0 0 .426.008c.153-.049.145-.123.309-.177a.691.691 0 0 1 .364-.013c.15.036.164.097.405.249.177.112.153.069.513.267.235.129.258.155.358.177.18.039.297-.005.335.06.032.052-.019.123-.09.259 0 0-.146.281-.211.546-.051.204.01.207-.013.511-.012.148-.035.45-.19.765-.131.266-.227.281-.284.518-.018.072-.031.161-.092.184-.069.027-.18-.037-.211-.122-.041-.108.054-.234.092-.288.01-.014.144-.306.41-.89.208-.456.375-.821.223-1.028-.056-.075-.143-.106-.318-.168-.243-.087-.337-.05-.603-.111a2.284 2.284 0 0 1-.49-.179C5.768.451 5.689.317 5.559.362c-.046.016-.045.036-.269.364a2.57 2.57 0 0 1-.207.281 1.503 1.503 0 0 1-.274.242c-.153.105-.316.217-.525.216-.191-.001-.248-.096-.359-.044-.146.067-.162.282-.218.274-.043-.006-.022-.128-.106-.253-.051-.076-.113-.112-.236-.181-.19-.107-.285-.16-.388-.15-.102.009-.117.062-.384.253-.171.122-.256.184-.346.215-.186.064-.353.042-.502.022a1.586 1.586 0 0 1-.396-.111 1.756 1.756 0 0 1-.416-.255C.779 1.118.68 1.013.557.885.437.759.362.681.272.557A1.668 1.668 0 0 1 0 0" style="fill:#275024;fill-opacity:1;fill-rule:nonzero;stroke:none"/>
  </g>
  <g clip-path="url(#c)" transform="matrix(.49847 0 0 -.49847 4.334 2.227)">
    <path d="M0 0c-.012-.062-.014-.161.034-.188.065-.035.172.086.361.223 0 0 .241.174.507.278.225.088.408.099.689.116.291.018.442.027.661.011.194-.014.348-.042.457.056.047.043.097.12.075.177-.026.068-.142.08-.379.093-.296.015-.444.023-.588.016-.382-.017-.572-.025-.732-.067C.824.648.662.551.396.392.108.219.023.118 0 0" style="fill:#275024;fill-opacity:1;fill-rule:nonzero;stroke:none"/>
  </g>
  <g clip-path="url(#d)" transform="matrix(.49847 0 0 -.49847 5.954 1.462)">
    <path d="M0 0c-.042-.106.138-.248.148-.256.054-.041.136-.105.241-.083.086.018.178.095.183.195.007.116-.107.189-.133.205A.353.353 0 0 1 .156.09C.095.074.022.056 0 0" style="fill:#275024;fill-opacity:1;fill-rule:nonzero;stroke:none"/>
  </g>
  <g clip-path="url(#e)" transform="matrix(.49847 0 0 -.49847 4.218 3.64)">
    <path d="M0 0c-.056-.048-.022-.115-.047-.279-.024-.164-.074-.197-.046-.279.018-.053.068-.127.141-.141.136-.026.192.192.384.207.127.01.17-.078.29-.04a.373.373 0 0 1 .165.125c.07.085.045.12.105.179.083.082.168.051.2.115.03.061-.005.171-.069.198-.072.03-.136-.061-.43-.233C.569-.221.5-.252.412-.251.36-.251.272-.256.219-.2.15-.127.201-.02.137.02.098.044.036.031 0 0" style="fill:#275024;fill-opacity:1;fill-rule:nonzero;stroke:none"/>
  </g>
  <g clip-path="url(#f)" transform="matrix(.49847 0 0 -.49847 4.968 3.724)">
    <path d="M0 0c.048.007.068-.159.221-.332.054-.06.155-.174.318-.217.176-.046.327.016.451.068.14.058.257.106.303.219.039.096-.005.162.059.257.012.018.075.107.15.101.053-.005.08-.056.173-.197.161-.246.194-.265.217-.274.121-.05.261.031.307.058.046.027.098.067.238.256.127.171.119.187.201.294.088.115.186.245.347.349.192.124.309.106.35.216.037.099-.035.168.019.249.045.066.143.094.22.082.088-.013.129-.074.284-.236a7.16 7.16 0 0 1 .208-.206c.179-.163.28-.159.513-.297.247-.146.187-.184.465-.369.327-.218.38-.147.554-.318.18-.175.19-.315.356-.358.051-.013.043.002.31.001.227 0 .28-.011.325-.049.065-.055.109-.159.071-.226-.032-.058-.113-.068-.151-.072-.107-.014-.152.033-.25.048-.149.023-.189-.062-.329-.072-.206-.014-.376.15-.494.264-.183.177-.136.242-.325.435-.083.085-.083.064-.415.309l-.464.34c-.213.158-.271.203-.369.202C3.727.524 3.619.433 3.55.374 3.43.272 3.442.221 3.321.078c-.143-.167-.192-.132-.389-.328a2.555 2.555 0 0 1-.274-.321c-.111-.16-.144-.256-.259-.297a.291.291 0 0 0-.207-.001c-.145.06-.116.221-.253.283-.101.047-.228.009-.302-.041-.09-.061-.076-.124-.176-.235a.832.832 0 0 0-.254-.176c-.196-.105-.31-.165-.434-.147-.11.017-.138.082-.371.335-.317.342-.439.406-.461.593C-.074-.133-.04-.006 0 0" style="fill:#275024;fill-opacity:1;fill-rule:nonzero;stroke:none"/>
  </g>
  <g clip-path="url(#g)" transform="matrix(.49847 0 0 -.49847 1.928 4.052)">
    <path d="M0 0c-.071-.094-.015-.245.054-.325.06-.069.141-.093.302-.137.188-.052.2-.027.303-.062.147-.051.236-.141.404-.315.108-.113.111-.132.279-.329.184-.217.277-.326.4-.436.19-.171.178-.108.439-.325.186-.154.264-.245.425-.273a.404.404 0 0 1 .24.02c.115.05.129.135.238.256.088.097.099.065.359.251.165.118.259.186.379.294.138.123.173.176.27.2.132.032.25-.022.29-.04.123-.056.203-.149.298-.259.102-.119.114-.165.177-.179.056-.012.083.015.248.084.133.055.199.083.26.091.043.005.071.003.318-.039.248-.042.256-.046.29-.04.08.014.09.044.312.18.189.116.22.118.246.112.116-.023.129-.188.23-.193.062-.003.124.055.143.112.02.058-.008.103-.084.248-.139.27-.135.297-.192.334-.079.051-.163.049-.279.046-.23-.005-.275-.091-.4-.052-.138.042-.139.164-.246.169-.096.005-.115-.093-.303-.22a.927.927 0 0 0-.399-.156c-.099-.011-.162-.018-.231.015-.082.04-.098.1-.252.359-.104.175-.133.208-.181.236a.386.386 0 0 1-.261.042c-.056-.01-.126-.035-.31-.208a4.681 4.681 0 0 1-.303-.323 4.83 4.83 0 0 1-.274-.322c-.12-.176-.18-.264-.211-.403-.025-.111-.018-.189-.084-.241-.061-.049-.144-.04-.188-.035-.098.012-.179.056-.351.198a4.288 4.288 0 0 0-.28.254c-.189.185-.159.176-.337.353-.194.192-.244.218-.273.318-.015.052-.012.084-.048.238-.035.145-.049.169-.063.186-.036.044-.081.061-.265.099-.196.042-.367.07-.367.07-.199.034-.225.036-.274.065-.1.058-.101.115-.187.144C.179.089.058.077 0 0" style="fill:#275024;fill-opacity:1;fill-rule:nonzero;stroke:none"/>
  </g>
  <g clip-path="url(#h)" transform="matrix(.49847 0 0 -.49847 3.15 5.476)">
    <path d="M0 0c-.021-.077.136-.18.155-.192a.788.788 0 0 1 .294-.097c.046-.01.128-.026.226-.033.178-.012.328.012.6.065.419.081.628.121.739.159.249.087.272.133.423.141.058.003.327.017.532-.152.112-.092.13-.177.293-.276.079-.048.127-.077.195-.081.12-.005.167.075.395.214.249.151.328.137.355.131.105-.026.164-.129.189-.173.741-1.334.832-1.596.832-1.596.203-.584.397-.987.727-1.67.486-1.006.596-1.021.717-1.499.099-.387.179-.583.341-.975.021-.051.098-.234.25-.434.111-.145.2-.217.251-.255a.698.698 0 0 1 .308-.148c.065-.012.233-.041.303.041.072.084.009.247-.085.455-.185.409-.277.613-.41.787-.288.377-.648 1.1-1.366 2.547-.253.507-.761 1.567-1.042 2.112-.161.313-.242.469-.303.551-.119.158-.209.234-.249.405-.025.11-.007.156-.052.296-.033.1-.071.209-.172.272-.078.048-.16.046-.204.045C4.054.634 4.011.525 3.76.421 3.629.367 3.485.307 3.327.349c-.028.008-.044.016-.25.152a5.99 5.99 0 0 0-.342.233c-.165.143-.21.248-.267.231C2.411.948 2.435.837 2.34.699 2.288.623 2.228.58 2.188.551c-.16-.113-.307-.1-.573-.138-.262-.037-.194-.06-.59-.133L.501.185C.464.18.354.145.133.077.06.054.011.038 0 0" style="fill:#275024;fill-opacity:1;fill-rule:nonzero;stroke:none"/>
  </g>
  <g clip-path="url(#i)" transform="matrix(.49847 0 0 -.49847 3.415 5.847)">
    <path d="M0 0c-.036.001-.096-.26-.088-.54.005-.189.035-.206.091-.57.051-.33.036-.381.092-.57.105-.353.229-.413.262-.427.072-.031.188-.047.258.015.062.056.059.15.056.211-.008.168-.085.281-.163.41-.006.01-.154.258-.254.491a3.047 3.047 0 0 0-.179.593C.023-.133.025-.001 0 0" style="fill:#275024;fill-opacity:1;fill-rule:nonzero;stroke:none"/>
  </g>
  <g clip-path="url(#j)" transform="matrix(.49847 0 0 -.49847 3.33 7.131)">
    <path d="M0 0c-.007-.062.051-.129.107-.16.083-.045.129.004.238-.026.135-.038.16-.141.22-.125.069.018.116.173.069.291C.581.116.428.15.399.156.226.195.013.109 0 0" style="fill:#275024;fill-opacity:1;fill-rule:nonzero;stroke:none"/>
  </g>
  <g clip-path="url(#k)" transform="matrix(.49847 0 0 -.49847 3.917 6.652)">
    <path d="M0 0c-.027-.069.018-.146.25-.434.191-.236.288-.355.37-.409.064-.042.219-.135.436-.164.136-.018.238-.003.39.018.149.021.251.051.391.092.34.101.388.161.409.192.009.014.083.128.043.233-.034.09-.138.136-.408.194-.246.052-.425.071-.633.094-.408.046-.613.069-.685.108C.398.013.307.134.16.107.15.105.033.083 0 0" style="fill:#275024;fill-opacity:1;fill-rule:nonzero;stroke:none"/>
  </g>
  <g clip-path="url(#l)" transform="matrix(.49847 0 0 -.49847 5.433 4.926)">
    <path d="M0 0c.035.041.142-.07.349-.065.024 0 .25.009.421.169.166.155.167.344.273.35.07.003.09-.078.177-.076.09.002.167.092.203.162.077.149.004.282.067.32.055.034.158-.04.182-.058.186-.135.245-.344.294-.483.051-.145.227-.415.58-.954.177-.27.24-.346.353-.405.146-.076.242-.053.378-.167.054-.046.177-.149.18-.311a.362.362 0 0 0-.144-.291c-.142-.104-.321-.055-.43-.026-.065.018-.257.078-.503.332-.173.179-.157.23-.447.647-.232.332-.226.276-.351.479-.174.282-.228.459-.321.453-.063-.004-.07-.089-.214-.272C.932-.343.858-.437.736-.479.537-.549.34-.434.295-.408.086-.287-.044-.052 0 0" style="fill:#275024;fill-opacity:1;fill-rule:nonzero;stroke:none"/>
  </g>
  <g clip-path="url(#m)" transform="matrix(.49847 0 0 -.49847 7.187 5.096)">
    <path d="M0 0c.067.221.101.332.17.424.175.234.378.202.405.353.016.089-.054.112-.174.403-.105.255-.078.302-.065.319.054.069.207.04.293.006a.528.528 0 0 0 .23-.194c.136-.182.164-.315.264-.559a3.19 3.19 0 0 1 .255-.52c.148-.232.304-.373.372-.438.334-.316.457-.592 1.232-1.646.375-.509.272-.345 1.037-1.359.662-.879.823-1.113.908-1.24.468-.693.702-1.039.783-1.253.128-.338.167-.602.419-.751.191-.114.335-.06.584-.241.031-.023.183-.135.314-.338a1.34 1.34 0 0 0 .182-.444c.009-.047.063-.3.007-.322-.051-.02-.131.191-.371.438a1.923 1.923 0 0 1-.459.358c-.272.151-.37.109-.55.261-.106.089-.146.165-.257.341-.226.361-.205.274-.466.68-.247.382-.252.44-.668 1.156-.137.237-.28.483-.467.783a27.08 27.08 0 0 1-.614.936C1.8-.529 1.81-.684 1.735-.54a.677.677 0 0 1-.168.214c-.072.07-.117.092-.161.1-.021.003-.112.017-.17-.039-.041-.04-.047-.095-.047-.176 0-.135 0-.202.038-.348.016-.062-.004-.249-.044-.618-.059-.55-.079-.61-.104-.668-.054-.131-.1-.175-.119-.307-.005-.032-.012-.098.042-.406.055-.316.087-.382.111-.424.058-.1.118-.149.18-.208.1-.097.202-.265.404-.597.15-.248.144-.252.404-.701.204-.352.235-.397.291-.529.159-.377.145-.573.132-.665-.005-.034-.052-.336-.18-.356-.101-.016-.2.15-.295.304-.209.34-.444.663-.652 1.002-.353.576-.445.658-.541.963a2.565 2.565 0 0 0-.108.546c-.014.174-.01.338.026.623.076.607.152.657.207 1.157.014.136.039.409.023.755a3.626 3.626 0 0 1-.082.605C.828.111.728.203.647.24.624.251.547.287.473.258.424.24.396.199.284-.029.213-.172.198-.21.148-.256.096-.303 0-.366-.043-.336-.091-.303-.051-.168 0 0" style="fill:#275024;fill-opacity:1;fill-rule:nonzero;stroke:none"/>
  </g>
  <g clip-path="url(#n)" transform="matrix(.49847 0 0 -.49847 7.342 9.589)">
    <path d="M0 0a.486.486 0 0 1 .084-.248c.018-.029.111-.175.243-.216.133-.041.234.047.615.296.394.258.591.387.693.444.205.117.328.171.435.326.047.068.137.2.105.357-.041.195-.241.284-.277.3a.599.599 0 0 1-.421.009c-.191-.059-.209-.154-.473-.362C.8.744.571.612.423.526.248.425.092.345.029.18-.003.094 0 .009 0 0m-1.247 1.03c.17-.085.203-.175.309-.252.176-.129.395-.106.597-.085.187.019.324.078.598.197.379.164.637.33.725.389.219.145.328.218.451.349.047.05.085.097.328.382.139.164.21.245.261.24.131-.013.203-.311.241-.469.045-.186.021-.203.068-.554.027-.195.038-.214.084-.53.032-.218.047-.329.046-.388-.007-.279-.105-.29-.106-.536-.001-.238.091-.325.017-.465-.052-.096-.154-.166-.199-.144-.045.022 0 .124-.057.278-.018.05-.06.165-.131.177-.078.013-.133-.109-.251-.234-.173-.184-.372-.257-.505-.307-.131-.048-.34-.126-.605-.082a.819.819 0 0 0-.437.192c-.082.075-.133.169-.234.355-.125.227-.137.313-.241.365-.098.049-.134-.005-.255.031-.138.041-.151.128-.379.374-.18.193-.27.29-.366.352-.069.044-.144.082-.189.173-.038.076-.056.192-.003.235.056.045.166-.01.233-.043" style="fill:#275024;fill-opacity:1;fill-rule:nonzero;stroke:none"/>
  </g>
  <g clip-path="url(#o)" transform="matrix(.49847 0 0 -.49847 4.468 7.811)">
    <path d="M0 0c-.037-.014.091-.458.203-.787.152-.451.256-.643.51-1.218.277-.628.512-1.217.618-1.482.188-.47.244-.63.396-.943.144-.295.28-.532.434-.802.426-.746.487-.741.543-.992.026-.117.054-.304.14-.319.063-.011.135.078.169.142.072.134.057.298-.079.651-.193.501-.423.844-.456.894-.196.288-.236.279-.395.528-.192.301-.281.544-.368.766 0 0-.211.543-.568 1.318-.293.637-.32.583-.776 1.524C.148-.26.03.011 0 0" style="fill:#275024;fill-opacity:1;fill-rule:nonzero;stroke:none"/>
  </g>
  <g clip-path="url(#p)" transform="matrix(.49847 0 0 -.49847 5.706 11.376)">
    <path d="M0 0c-.046-.068-.043-.185.014-.229.069-.055.16.045.264.004.088-.035.085-.132.183-.369.071-.17.133-.314.268-.438a.631.631 0 0 1 .262-.145c.067-.018.144-.039.167-.008.036.047-.08.167-.256.445-.108.17-.164.259-.214.396C.631-.19.593-.086.607.054.619.183.668.26.626.302c-.048.049-.17 0-.2-.012C.293.238.298.165.145.083.061.039.03.044 0 0" style="fill:#275024;fill-opacity:1;fill-rule:nonzero;stroke:none"/>
  </g>
  <g clip-path="url(#q)" transform="matrix(.49847 0 0 -.49847 2.585 3.623)">
    <path d="M0 0c-.006-.008-.049-.068-.025-.134.029-.08.13-.091.138-.091.064-.006.155.023.18.103a.157.157 0 0 1-.064.169C.154.099.048.065 0 0" style="fill:#acdf8c;fill-opacity:1;fill-rule:nonzero;stroke:none"/>
  </g>
  <g clip-path="url(#r)" transform="matrix(.49847 0 0 -.49847 3.646 2.95)">
    <path d="M0 0c.009.026.258.014.325-.12.051-.099-.022-.22.022-.244.029-.016.095.018.102.059C.47-.185-.013-.038 0 0" style="fill:#acdf8c;fill-opacity:1;fill-rule:nonzero;stroke:none"/>
  </g>
  <g clip-path="url(#s)" transform="matrix(.49847 0 0 -.49847 5.975 2.1)">
    <path d="M0 0c-.029-.005-.04-.144-.004-.259.037-.121.132-.229.158-.216C.203-.45.054.009 0 0" style="fill:#acdf8c;fill-opacity:1;fill-rule:nonzero;stroke:none"/>
  </g>
  <g clip-path="url(#t)" transform="matrix(.49847 0 0 -.49847 4.058 3.99)">
    <path d="M0 0c-.011-.016-.093-.13-.034-.208.046-.061.164-.077.213-.013.032.041.03.109-.01.165.002.005.039.124-.002.152C.129.122.044.062 0 0" style="fill:#acdf8c;fill-opacity:1;fill-rule:nonzero;stroke:none"/>
  </g>
  <g clip-path="url(#u)" transform="matrix(.49847 0 0 -.49847 5.8 4.074)">
    <path d="M0 0c-.102-.069-.154-.21-.116-.251.033-.035.1.038.208.012.033-.008.073-.025.251-.223.109-.12.13-.153.146-.146.038.017-.021.231-.082.382-.06.148-.096.232-.183.263C.116.077.01.007 0 0" style="fill:#acdf8c;fill-opacity:1;fill-rule:nonzero;stroke:none"/>
  </g>
  <g clip-path="url(#v)" transform="matrix(.49847 0 0 -.49847 4.781 3.82)">
    <path d="M0 0c-.029-.025.002-.105.02-.142.059-.116.197-.201.237-.17.036.028 0 .156-.074.234C.126-.018.032.028 0 0" style="fill:#acdf8c;fill-opacity:1;fill-rule:nonzero;stroke:none"/>
  </g>
  <g clip-path="url(#w)" transform="matrix(.49847 0 0 -.49847 4.504 4.004)">
    <path d="M0 0c.007.04.111.074.194.036.093-.044.124-.162.095-.191C.242-.202-.013-.067 0 0" style="fill:#acdf8c;fill-opacity:1;fill-rule:nonzero;stroke:none"/>
  </g>
  <g clip-path="url(#x)" transform="matrix(.49847 0 0 -.49847 5.434 4.461)">
    <path d="M0 0c.052.012.117-.016.122-.052.01-.063-.161-.164-.2-.131-.031.026-.01.162.078.183" style="fill:#acdf8c;fill-opacity:1;fill-rule:nonzero;stroke:none"/>
  </g>
  <g clip-path="url(#y)" transform="matrix(.49847 0 0 -.49847 5.186 4.827)">
    <path d="M0 0a.404.404 0 0 0 .226-.1c.066-.051.115-.089.11-.136C.331-.283.273-.323.222-.332c-.165-.029-.365.257-.323.32C-.088.007-.055.004 0 0" style="fill:#acdf8c;fill-opacity:1;fill-rule:nonzero;stroke:none"/>
  </g>
  <g clip-path="url(#z)" transform="matrix(.49847 0 0 -.49847 4.06 4.704)">
    <path d="M0 0c-.05-.032-.075-.108-.05-.152.023-.041.072-.023.176-.067.104-.043.132-.093.154-.08.035.022.013.176-.087.257C.179-.03.077.049 0 0" style="fill:#acdf8c;fill-opacity:1;fill-rule:nonzero;stroke:none"/>
  </g>
  <g clip-path="url(#A)" transform="matrix(.49847 0 0 -.49847 5.436 5.141)">
    <path d="M0 0c-.046-.039-.043-.143.006-.196.051-.057.132-.037.211-.047.177-.023.293-.19.389-.328.349-.504 3.579-6.12 3.554-6.13-.082-.033-.069.164-.108.244C2.377-3.036.853-1.374.606-.571.59-.518.492-.185.223-.04.178-.016.058.049 0 0" style="fill:#acdf8c;fill-opacity:1;fill-rule:nonzero;stroke:none"/>
  </g>
  <g clip-path="url(#B)" transform="matrix(.49847 0 0 -.49847 8.103 8.223)">
    <path d="M0 0c-.109-.044-.099-.232-.098-.256.004-.077.037-.233.128-.248.079-.014.157.085.188.154.038.084.05.221-.036.301C.14-.01.064.026 0 0" style="fill:#acdf8c;fill-opacity:1;fill-rule:nonzero;stroke:none"/>
  </g>
  <g clip-path="url(#C)" transform="matrix(.49847 0 0 -.49847 7.824 5.247)">
    <path d="M0 0c.026.028.145-.03.226-.1.084-.072.171-.192.145-.223-.032-.038-.236.049-.334.206C.025-.099-.022-.023 0 0" style="fill:#acdf8c;fill-opacity:1;fill-rule:nonzero;stroke:none"/>
  </g>
  <g clip-path="url(#D)" transform="matrix(.49847 0 0 -.49847 4.467 7.239)">
    <path d="M0 0c.01.022.215-.049.365-.127.217-.113.409-.287.394-.31C.731-.478-.021-.044 0 0" style="fill:#acdf8c;fill-opacity:1;fill-rule:nonzero;stroke:none"/>
  </g>
  <g clip-path="url(#E)" transform="matrix(.49847 0 0 -.49847 5.324 7.77)">
    <path d="M0 0c.04.088.366.123.505-.077.087-.125.087-.32.01-.363C.377-.515-.057-.124 0 0" style="fill:#acdf8c;fill-opacity:1;fill-rule:nonzero;stroke:none"/>
  </g>
  <g clip-path="url(#F)" transform="matrix(.49847 0 0 -.49847 6.186 9.077)">
    <path d="M0 0c.113.097.33-.029.366-.049.079-.046.259-.175.226-.285C.564-.427.396-.456.289-.447c-.135.011-.313.095-.343.247-.011.058-.005.149.054.2" style="fill:#acdf8c;fill-opacity:1;fill-rule:nonzero;stroke:none"/>
  </g>
  <g clip-path="url(#G)" transform="matrix(.49847 0 0 -.49847 7.3 9.987)">
    <path d="M0 0c.031.029.133-.033.337-.158.18-.111.222-.152.257-.205C.601-.375.7-.532.649-.592c-.053-.064-.251.003-.375.09-.141.1-.197.235-.24.337C.003-.091-.025-.024 0 0" style="fill:#acdf8c;fill-opacity:1;fill-rule:nonzero;stroke:none"/>
  </g>
  <g clip-path="url(#H)" transform="matrix(.49847 0 0 -.49847 9.872 8.357)">
    <path d="M0 0c.028.026.132-.08.395-.232.261-.151.292-.123.418-.219.259-.197.365-.493.34-.51-.02-.015-.117.175-.377.335a5.709 5.709 0 0 1-.35.181C.275-.37.231-.351.173-.299.048-.188-.03-.028 0 0" style="fill:#acdf8c;fill-opacity:1;fill-rule:nonzero;stroke:none"/>
  </g>
  <g clip-path="url(#I)" transform="matrix(.49847 0 0 -.49847 10.653 9.1)">
    <path d="M0 0c.052-.003.043-.136.149-.205.086-.056.187-.031.187-.031 0 .001-.381-.045-.428.076-.024.063.046.163.092.16" style="fill:#acdf8c;fill-opacity:1;fill-rule:nonzero;stroke:none"/>
  </g>
  <g clip-path="url(#J)" transform="matrix(.49847 0 0 -.49847 5.961 11.908)">
    <path d="M0 0c.022.012.066-.117.215-.213.168-.108.313-.075.331-.147.013-.053-.05-.125-.117-.144C.3-.542.166-.375.127-.326.015-.186-.025-.013 0 0" style="fill:#acdf8c;fill-opacity:1;fill-rule:nonzero;stroke:none"/>
  </g>
  <g clip-path="url(#K)" transform="matrix(.49847 0 0 -.49847 8.162 9)">
    <path d="M0 0c.01.043.171.077.28-.007.068-.052.115-.15.089-.179C.318-.242-.017-.067 0 0" style="fill:#acdf8c;fill-opacity:1;fill-rule:nonzero;stroke:none"/>
  </g>
  <g clip-path="url(#L)" transform="matrix(.49847 0 0 -.49847 2.962 5.07)">
    <path d="M0 0a.746.746 0 0 1 .412-.208c.217-.035.351.035.369-.001C.798-.244.706-.368.589-.382.519-.39.474-.355.15-.114.1-.077.039.049 0 0" style="fill:#acdf8c;fill-opacity:1;fill-rule:nonzero;stroke:none"/>
  </g>
  <g clip-path="url(#M)" transform="matrix(.49847 0 0 -.49847 5.454 3.608)">
    <path d="M0 0c.006.045.205.089.249.021.019-.029.009-.079-.018-.102C.166-.138-.006-.044 0 0" style="fill:#acdf8c;fill-opacity:1;fill-rule:nonzero;stroke:none"/>
  </g>
  <g clip-path="url(#N)" transform="matrix(.49847 0 0 -.49847 7.046 3.622)">
    <path d="M0 0c.019.029.326-.099.58-.34.166-.157.292-.346.272-.365-.009-.009-.05.017-.355.27C.159-.155-.009-.014 0 0" style="fill:#acdf8c;fill-opacity:1;fill-rule:nonzero;stroke:none"/>
  </g>
</svg>
