<svg xmlns="http://www.w3.org/2000/svg" width="45.287" height="50.697" viewBox="0 0 11.982 13.414">
  <defs>
    <clipPath id="a" clipPathUnits="userSpaceOnUse"/>
    <clipPath id="b" clipPathUnits="userSpaceOnUse"/>
    <clipPath id="c" clipPathUnits="userSpaceOnUse"/>
    <clipPath id="d" clipPathUnits="userSpaceOnUse"/>
    <clipPath id="e" clipPathUnits="userSpaceOnUse"/>
    <clipPath id="f" clipPathUnits="userSpaceOnUse"/>
    <clipPath id="g" clipPathUnits="userSpaceOnUse"/>
    <clipPath id="h" clipPathUnits="userSpaceOnUse"/>
    <clipPath id="i" clipPathUnits="userSpaceOnUse"/>
    <clipPath id="j" clipPathUnits="userSpaceOnUse"/>
    <clipPath id="k" clipPathUnits="userSpaceOnUse"/>
    <clipPath id="l" clipPathUnits="userSpaceOnUse"/>
    <clipPath id="m" clipPathUnits="userSpaceOnUse"/>
    <clipPath id="n" clipPathUnits="userSpaceOnUse"/>
    <clipPath id="o" clipPathUnits="userSpaceOnUse"/>
    <clipPath id="p" clipPathUnits="userSpaceOnUse"/>
    <clipPath id="q" clipPathUnits="userSpaceOnUse"/>
    <clipPath id="r" clipPathUnits="userSpaceOnUse"/>
    <clipPath id="s" clipPathUnits="userSpaceOnUse"/>
    <clipPath id="t" clipPathUnits="userSpaceOnUse"/>
    <clipPath id="u" clipPathUnits="userSpaceOnUse"/>
    <clipPath id="v" clipPathUnits="userSpaceOnUse"/>
    <clipPath id="w" clipPathUnits="userSpaceOnUse"/>
    <clipPath id="x" clipPathUnits="userSpaceOnUse"/>
    <clipPath id="y" clipPathUnits="userSpaceOnUse"/>
    <clipPath id="z" clipPathUnits="userSpaceOnUse"/>
    <clipPath id="A" clipPathUnits="userSpaceOnUse"/>
    <clipPath id="B" clipPathUnits="userSpaceOnUse"/>
    <clipPath id="C" clipPathUnits="userSpaceOnUse"/>
    <clipPath id="D" clipPathUnits="userSpaceOnUse"/>
    <clipPath id="E" clipPathUnits="userSpaceOnUse"/>
    <clipPath id="F" clipPathUnits="userSpaceOnUse"/>
    <clipPath id="G" clipPathUnits="userSpaceOnUse"/>
    <clipPath id="H" clipPathUnits="userSpaceOnUse"/>
    <clipPath id="I" clipPathUnits="userSpaceOnUse"/>
    <clipPath id="J" clipPathUnits="userSpaceOnUse"/>
    <clipPath id="K" clipPathUnits="userSpaceOnUse"/>
    <clipPath id="L" clipPathUnits="userSpaceOnUse"/>
    <clipPath id="M" clipPathUnits="userSpaceOnUse"/>
    <clipPath id="N" clipPathUnits="userSpaceOnUse"/>
    <clipPath id="O" clipPathUnits="userSpaceOnUse"/>
    <clipPath id="P" clipPathUnits="userSpaceOnUse"/>
    <clipPath id="Q" clipPathUnits="userSpaceOnUse"/>
    <clipPath id="R" clipPathUnits="userSpaceOnUse"/>
    <clipPath id="S" clipPathUnits="userSpaceOnUse"/>
    <clipPath id="T" clipPathUnits="userSpaceOnUse"/>
    <clipPath id="U" clipPathUnits="userSpaceOnUse"/>
    <clipPath id="V" clipPathUnits="userSpaceOnUse"/>
    <clipPath id="W" clipPathUnits="userSpaceOnUse"/>
    <clipPath id="X" clipPathUnits="userSpaceOnUse"/>
    <clipPath id="Y" clipPathUnits="userSpaceOnUse"/>
    <clipPath id="Z" clipPathUnits="userSpaceOnUse"/>
    <clipPath id="aa" clipPathUnits="userSpaceOnUse"/>
    <clipPath id="ab" clipPathUnits="userSpaceOnUse"/>
    <clipPath id="ac" clipPathUnits="userSpaceOnUse"/>
    <clipPath id="ad" clipPathUnits="userSpaceOnUse"/>
    <clipPath id="ae" clipPathUnits="userSpaceOnUse"/>
    <clipPath id="af" clipPathUnits="userSpaceOnUse"/>
    <clipPath id="ag" clipPathUnits="userSpaceOnUse"/>
    <clipPath id="ah" clipPathUnits="userSpaceOnUse"/>
    <clipPath id="ai" clipPathUnits="userSpaceOnUse"/>
    <clipPath id="aj" clipPathUnits="userSpaceOnUse"/>
    <clipPath id="ak" clipPathUnits="userSpaceOnUse"/>
    <clipPath id="al" clipPathUnits="userSpaceOnUse"/>
    <clipPath id="am" clipPathUnits="userSpaceOnUse"/>
    <clipPath id="an" clipPathUnits="userSpaceOnUse"/>
    <clipPath id="ao" clipPathUnits="userSpaceOnUse"/>
    <clipPath id="ap" clipPathUnits="userSpaceOnUse"/>
    <clipPath id="aq" clipPathUnits="userSpaceOnUse"/>
    <clipPath id="ar" clipPathUnits="userSpaceOnUse"/>
    <clipPath id="as" clipPathUnits="userSpaceOnUse"/>
    <clipPath id="at" clipPathUnits="userSpaceOnUse"/>
    <clipPath id="au" clipPathUnits="userSpaceOnUse"/>
    <clipPath id="av" clipPathUnits="userSpaceOnUse"/>
    <clipPath id="aw" clipPathUnits="userSpaceOnUse"/>
    <clipPath id="ax" clipPathUnits="userSpaceOnUse"/>
    <clipPath id="ay" clipPathUnits="userSpaceOnUse"/>
    <clipPath id="az" clipPathUnits="userSpaceOnUse"/>
  </defs>
  <g clip-path="url(#a)" transform="matrix(.53347 0 0 -.53347 7.195 6.572)">
    <path d="M0 0c.086.061.237.177.561.533.243.268.365.401.465.558.063.097.152.295.327.687.193.432.236.548.196.58-.054.043-.229-.097-.243-.108-.149-.122-.198-.256-.291-.442a4.536 4.536 0 0 0-.295-.492C.611 1.153.597 1.154.309.773.078.468.108.494-.026.323c-.295-.378-.449-.517-.422-.55.031-.038.277.106.448.227m-4.303-1.487c.081-.143.257-.323.391-.289.113.028.086.178.237.426.113.186.244.292.5.498.2.161.299.241.45.308.224.099.421.114.709.136.28.021.385-.001.627.056.171.041.344.083.364.178.029.143-.304.319-.41.375-.177.094-.488.258-.899.22-.333-.03-.55-.178-.97-.463a4.151 4.151 0 0 1-.577-.478c-.488-.464-.508-.652-.498-.754a.526.526 0 0 1 .076-.213m-3.068-1.595c.133-.056.401-.148 1.092-.109.501.028.923.056 1.393.29.225.111.509.294.484.359-.015.039-.132.02-.325.006-.357-.026-.341.012-.755-.002-.146-.005-.146-.009-.93-.087-.437-.043-.655-.065-.702-.067-.476-.023-.686.014-.708-.055-.024-.08.228-.241.451-.335m-.937 5.329c.173-.057.201-.195.317-.187.118.008.155.155.241.139.083-.016.062-.158.182-.232.104-.064.18.004.279-.065.068-.047.068-.105.118-.205.077-.152.154-.168.3-.325.202-.216.133-.266.301-.437.179-.182.251-.119.468-.309.205-.181.168-.262.363-.434.124-.11.175-.108.516-.281.397-.201.675-.379.689-.358.01.015-.152.09-.261.284a.939.939 0 0 0-.101.343c-.02.136-.004.172-.009.349-.006.233-.009.357-.061.496a.966.966 0 0 1-.292.394c-.157.136-.203.101-.459.266-.278.179-.226.221-.457.347-.103.055-.219.104-.357.228-.117.105-.132.158-.13.198.004.09.1.172.194.192.106.024.172-.039.377-.152.263-.143.257-.096.507-.238.097-.054.195-.122.39-.257.252-.174.379-.262.432-.33.143-.181.136-.318.245-.341.057-.011.089.021.279.129 0 0 .159.092.345.183.31.154.374.126.412.206.047.1-.041.168-.142.497a1.85 1.85 0 0 0-.098.475c-.008.155.018.145.047.477.029.346.044.52.038.601-.007.111-.025.221.044.314.007.009.076.102.157.091.095-.013.14-.161.156-.215.041-.134.021-.223.005-.399-.01-.118-.01-.258-.011-.537a3.2 3.2 0 0 1 .014-.443c.035-.253.084-.237.095-.443.007-.117-.004-.21.062-.302a.366.366 0 0 1 .125-.105c.16-.094.275-.087.444-.129.291-.072.344-.188.421-.144.087.051.068.239.032.614a2.344 2.344 0 0 1-.072.457c-.082.286-.164.303-.187.519-.02.191.039.222-.005.399a.805.805 0 0 1-.157.328c-.11.136-.217.168-.215.261.001.066.055.069.072.154.02.105-.053.134-.067.284-.004.037.002.022.023.238.016.169.012.175.025.207.042.111.107.101.168.21.059.104.057.213.056.322-.002.157-.04.187-.01.267.034.092.133.185.208.169.127-.027.079-.339.23-.398.141-.056.277.179.461.121.093-.029.174-.126.161-.196-.019-.108-.253-.106-.273-.222-.012-.067.061-.084.073-.183.014-.113-.073-.155-.125-.313-.037-.116 0-.123-.024-.32-.03-.244-.088-.251-.088-.405 0-.112.031-.131.124-.41.063-.189.102-.303.127-.442.036-.201.006-.238.021-.566.011-.239.027-.213.051-.534.025-.337.038-.506.027-.66-.015-.219-.05-.332.006-.511.053-.172.136-.232.158-.246.093-.062.231-.087.327-.037.154.08.154.329.177.585.01.114.093.464.261 1.163.124.522.163.431.357 1.108.232.807.347 1.21.387 1.67.011.13.025.365.142.645.078.189.174.327.283.485.065.094.207.292.424.518.18.187.323.303.521.462.344.276.487.343.571.377.163.068.294.119.438.077.092-.028.158-.084.352-.36.248-.351.372-.526.423-.704.034-.12.045-.276.067-.589.017-.249.025-.373.016-.473-.042-.427-.23-.492-.18-.747.033-.169.116-.145.266-.49.051-.117.101-.231.13-.391.013-.07.046-.281-.005-.55-.015-.083-.024-.092-.158-.477-.092-.265-.139-.399-.159-.478-.077-.306-.027-.325-.094-.504a1.257 1.257 0 0 0-.357-.496c-.264-.229-.493-.242-.496-.367-.003-.102.149-.112.229-.285.107-.231-.032-.496-.049-.528-.071-.13-.166-.198-.489-.378A9.11 9.11 0 0 0 1.22-.47C1.104-.52.808-.646.484-.782.187-.906.06-.958.067-1.007c.009-.071.292-.089.492-.101.374-.024.426.027.724-.001.227-.02.21-.05.593-.107.256-.038.254-.024.534-.062a8.33 8.33 0 0 0 .719-.131c.255-.06.383-.089.495-.133.372-.146.474-.302.702-.27.135.019.141.079.289.086.204.01.241-.102.43-.105.108-.002.231.058.476.178.235.115.31.18.385.142.072-.037.106-.151.089-.238-.026-.13-.151-.135-.167-.241-.021-.142.193-.209.178-.364-.009-.098-.106-.187-.199-.211-.133-.035-.18.082-.355.085-.098.001-.101-.036-.408-.156-.239-.093-.3-.095-.332-.095-.093.002-.118.029-.311.094-.275.093-.282.058-.406.119-.2.097-.179.184-.354.278-.153.082-.198.032-.517.088a3.984 3.984 0 0 0-.635.18c-.305.103-.301.125-.484.171-.189.047-.333.059-.56.078-.326.028-.323.002-.614.032a7.197 7.197 0 0 0-.483.058c-.211.041-.317.081-.382.021-.057-.051-.03-.127-.048-.252-.021-.153-.091-.249-.229-.438a2.664 2.664 0 0 0-.53-.531 4.204 4.204 0 0 0-.589-.372c-.2-.113-.341-.18-.624-.312a1.955 1.955 0 0 0-.353-.14 1.232 1.232 0 0 0-.384-.061c-.303.008-.431.161-.56.079-.036-.023-.062-.08-.113-.194a2.397 2.397 0 0 1-.138-.401c-.093-.366-.063-.353-.108-.481-.087-.245-.171-.225-.319-.506-.107-.202-.149-.374-.217-.655-.072-.297-.053-.351-.134-.576-.05-.141-.071-.159-.152-.377-.13-.356-.12-.433-.108-.481.008-.03.069-.123.193-.307.134-.2.16-.235.148-.284-.028-.112-.202-.092-.254-.228-.039-.099.041-.145.002-.255-.018-.052-.046-.074-.23-.214l-.257-.196c-.169-.142-.172-.181-.261-.215-.116-.044-.144.008-.28-.017-.243-.045-.294-.24-.424-.213-.059.012-.066.057-.224.305-.159.248-.204.284-.19.357.006.034.027.08.267.234.273.175.318.161.439.27.106.095.167.191.249.32.045.071.117.184.168.322.076.207.068.362.075.51.019.371.121.331.26.971.079.362.06.439.156.733.048.148.099.27.167.434.08.191.15.36.265.571.068.125.14.256.256.421.145.207.248.307.223.338-.03.039-.224-.066-.269-.091-.194-.105-.315-.22-.394-.292-.102-.092-.271-.221-.608-.48-.314-.24-.402-.289-.486-.328-.193-.091-.35-.165-.529-.113a.6.6 0 0 0-.356.309c-.071.149-.03.242-.098.281-.085.051-.203-.066-.438-.188a2.119 2.119 0 0 0-.692-.223c-.192-.022-.331.003-.608.051a4.263 4.263 0 0 0-.749.211c-.343.13-.515.195-.675.334-.23.199-.383.468-.446.578-.128.224-.11.268-.202.35-.18.16-.34.077-.666.179-.321.1-.528.293-.622.38-.098.092-.211.267-.436.617-.29.45-.337.57-.337.722 0 .054.007.217.102.38.096.165.241.259.765.458.494.188.741.283 1.016.329.408.07.739.056.908.042.241-.019.363-.053 1.126-.25.91-.235.766-.194.963-.248.753-.205 1.391-.403 1.391-.403.251-.078.506-.141.756-.223.431-.142.707-.257.795-.152.038.045.034.121.015.169-.032.08-.116.106-.234.155-.211.086-.084.061-.45.222-.294.129-.284.105-.365.159-.167.11-.158.177-.332.323-.147.124-.183.101-.44.261-.209.13-.328.205-.45.335-.177.188-.135.256-.369.527-.176.204-.266.242-.339.254-.087.014-.105-.017-.28-.017-.042 0-.162.002-.308.032-.129.026-.124.042-.292.088-.234.064-.297.047-.357.116-.056.066-.08.174-.039.235.023.033.059.039.238.089.158.044.189.055.195.08.01.042-.064.064-.128.167-.025.04-.088.14-.057.209.04.086.223.112.365.066" style="fill:#f68c11;fill-opacity:1;fill-rule:nonzero;stroke:none"/>
  </g>
  <g clip-path="url(#b)" transform="matrix(.53347 0 0 -.53347 6.042 9.777)">
    <path d="M0 0c.191-.222.368-.346.409-.375.063-.043.278-.186.598-.282.431-.13.792-.094.927-.075.148.02.381.053.644.194.279.15.441.339.57.49.234.275.35.529.415.674.11.246.21.47.221.787.009.267-.051.468-.093.605-.123.404-.358.762-.425.736-.04-.015.013-.156-.001-.499-.014-.336-.074-.439-.096-.474-.031-.048-.068-.087-.298-.236-.327-.212-.491-.318-.598-.329-.245-.025-.344.116-.501.032-.069-.037-.077-.079-.208-.281a2.608 2.608 0 0 0-.276-.384 1.147 1.147 0 0 0-.55-.302C.614.249.382.188.134.27c-.345.114-.49.429-.524.405C-.425.651-.267.31 0 0m-.711 1.873c.088-.016.246-.021.563-.029.376-.01.564-.014.642.001.17.035.326.119.638.288.194.105.327.178.5.305.214.158.367.311.456.408.164.177.094.142.324.412.088.104.148.167.177.279.011.044.013.114.016.251.005.222-.002.293.032.307.033.014.084-.039.13-.086.128-.129.277-.235.414-.355.208-.182.218-.12.404-.282.24-.209.199-.292.429-.492.17-.148.199-.108.467-.309.137-.102.232-.19.422-.368.314-.292.306-.319.51-.493.25-.213.258-.169.464-.359.185-.17.224-.246.438-.423.189-.157.285-.235.388-.226.156.013.207.169.413.174.042.002.114.003.172-.045a.248.248 0 0 0 .054-.29C7.281.43 7.141.469 7.091.363c-.043-.091.045-.155.003-.255-.04-.095-.164-.149-.265-.154-.138-.006-.162.083-.357.116-.103.018-.105-.006-.274.003a1.191 1.191 0 0 0-.372.058c-.065.025-.135.066-.356.31-.128.142-.234.26-.377.458-.224.312-.2.353-.34.478-.149.133-.204.112-.359.259-.187.179-.253.351-.276.339-.027-.012.084-.23.146-.558a2.46 2.46 0 0 0 .034-.672C4.287.63 4.247.464 4.166.138a8.332 8.332 0 0 0-.163-.609c-.117-.347-.175-.521-.327-.687-.147-.161-.302-.232-.517-.331a2.176 2.176 0 0 0-.811-.211c-.174-.009-.344.018-.684.072a3.496 3.496 0 0 0-.626.137c-.1.033-.28.093-.493.213-.159.09-.3.169-.456.316-.137.13-.178.21-.243.198-.096-.018-.152-.222-.152-.377 0-.187.079-.33.187-.519.076-.134.078-.107.226-.336.101-.157.186-.289.272-.471.089-.187.06-.175.138-.322.1-.189.176-.263.145-.335-.035-.079-.155-.042-.21-.137-.055-.093.03-.175-.029-.257C.376-3.585.306-3.551.23-3.63c-.055-.058-.068-.128-.077-.173-.028-.15.044-.196.012-.299-.03-.096-.136-.187-.232-.182-.117.005-.128.145-.26.171-.145.029-.217-.122-.338-.082-.101.033-.17.176-.142.272.017.056.053.05.13.139.108.126.109.222.173.229.058.006.107-.07.116-.062.014.013-.175.161-.164.339.005.088.054.109.044.203-.011.103-.076.127-.061.189.019.081.135.07.177.167.022.052.001.085-.011.187-.017.138.006.199.007.293.002.151-.054.225-.145.447-.06.143-.106.304-.2.624-.088.302-.132.453-.134.566-.004.257.076.317.025.514-.044.173-.117.165-.184.375-.051.158-.051.291-.052.453-.002.226.031.226.024.432-.005.144-.026.286-.044.409-.035.248-.059.302-.02.342.059.06.176-.006.415-.05" style="fill:#f68c11;fill-opacity:1;fill-rule:nonzero;stroke:none"/>
  </g>
  <g clip-path="url(#c)" transform="matrix(.53347 0 0 -.53347 .698 7.087)">
    <path d="M0 0c-.028-.114.035-.217.049-.24.112-.175.362-.18.433-.182.246-.006.328.108.625.182.154.038.273.039.512.042.353.005.675-.03 1.023-.094.395-.073.548-.131 1.01-.252.141-.037.675-.174 1.301-.292.781-.147 1.177-.221 1.713-.232.32-.007.638-.061.958-.058.187.001.349.012.525-.085.12-.065.17-.139.25-.123.104.021.119.164.228.354.117.206.262.326.401.441.059.048.26.208.57.329.137.053.123.032.724.165.53.117-.016.01.732.229.099.028.231.066.262.166.023.074-.016.162-.065.216-.061.066-.171.115-.714.049-.345-.042-.518-.063-.686-.128-.192-.074-.327-.169-.597-.359-.266-.188-.399-.282-.507-.412-.071-.086-.158-.21-.355-.444-.113-.133-.153-.175-.22-.186-.117-.02-.198.076-.413.224 0 0-.103.071-.383.225-.307.169-.586.147-.9.166-.303.018-.616.101-1.242.266-.697.185-1.365.435-1.427.458-.285.108-.48.191-.807.264a3.25 3.25 0 0 1-.769.092 3.22 3.22 0 0 1-.888-.14A11.163 11.163 0 0 1 .704.406C.182.208.034.14 0 0" style="fill:#a44216;fill-opacity:1;fill-rule:nonzero;stroke:none"/>
  </g>
  <g clip-path="url(#d)" transform="matrix(.53347 0 0 -.53347 2.467 5.716)">
    <path d="M0 0c-.002-.025.083-.057.178-.076.222-.044.331.021.558.039.129.011.341.028.548-.071.123-.059.192-.135.33-.287.232-.255.211-.335.426-.558.088-.091.169-.156.33-.286.108-.088.189-.148.345-.263.322-.237.352-.245.472-.353.155-.141.135-.157.233-.223.176-.12.239-.067.473-.174.242-.111.293-.221.446-.205.094.01.192.064.19.11-.002.057-.157.063-.374.157-.141.061-.244.138-.451.291-.234.174-.214.19-.419.339-.281.203-.305.162-.44.297-.159.16-.15.242-.317.368-.15.114-.178.064-.305.167-.169.138-.262.344-.33.495-.065.145-.083.228-.166.262-.098.038-.185-.033-.232.014-.063.063.047.229-.011.277-.044.036-.117-.049-.213-.018-.102.032-.102.154-.183.162C1.018.471 1 .382.891.366a.285.285 0 0 0-.169.036C.605.459.578.548.54.535.499.522.499.403.506.337.518.226.556.208.545.166.507.022.005.059 0 0" style="fill:#a44216;fill-opacity:1;fill-rule:nonzero;stroke:none"/>
  </g>
  <g clip-path="url(#e)" transform="matrix(.53347 0 0 -.53347 3.736 5.23)">
    <path d="M0 0c-.016-.026.17-.171.203-.196.206-.16.336-.208.545-.326.171-.096.35-.197.543-.372.206-.187.16-.216.389-.416.14-.122.224-.17.278-.301.05-.12.021-.183.085-.249.101-.107.298-.075.35-.066.276.046.301.229.529.246.121.008.114-.043.381-.093.072-.014.191-.022.425-.038.366-.026.47-.027.593.03.067.03.122.055.144.112.045.115-.08.262-.253.465-.138.161-.207.241-.301.288-.175.087-.278.035-.425.142a.58.58 0 0 0-.169.216c-.054.102-.093.228-.097.659-.003.304.016.29.01.602-.005.282-.021.286-.008.427.01.114.028.205.008.347-.013.093-.032.213-.107.237a.121.121 0 0 1-.125-.042c-.041-.057.002-.135.027-.253.019-.089.012-.127.008-.324a23.77 23.77 0 0 1 .005-.861s.011-.14.186-.965c0 0-.073-.079-.115-.111-.083-.064-.171-.042-.269-.051-.114-.011-.127-.052-.393-.197-.27-.148-.407-.222-.514-.193-.076.02-.095.064-.246.245-.165.199-.303.365-.457.482-.104.079-.119.062-.487.225C.26-.118.018.029 0 0" style="fill:#a44216;fill-opacity:1;fill-rule:nonzero;stroke:none"/>
  </g>
  <g clip-path="url(#f)" transform="matrix(.53347 0 0 -.53347 5.945 3.454)">
    <path d="M0 0c-.006-.004.154-.15.141-.321a.646.646 0 0 0-.106-.255c-.066-.112-.101-.129-.094-.173.014-.09.168-.073.242-.188.064-.097-.004-.175.001-.387.002-.106.019-.094.094-.423.056-.241.084-.362.094-.497.017-.228-.023-.243.002-.416.029-.215.099-.254.166-.47.063-.199.014-.197.06-.696.043-.471.09-.506.039-.662-.029-.091-.081-.192-.11-.377-.019-.124-.028-.188-.002-.254.026-.067.08-.125.392-.266.155-.07.38-.172.396-.144.017.032-.273.146-.462.464-.093.157-.123.299-.129.327-.051.25.025.378.03.748.001.069-.004.148-.013.306a10.042 10.042 0 0 1-.133 1.159C.555-2.247.527-2.216.484-2a4.268 4.268 0 0 0-.067.632c-.012.24.006.171-.005.474-.008.216-.017.253.016.307.097.154.33.106.379.248A.16.16 0 0 1 .78-.19c-.074.084-.254.026-.278.018C.387-.21.383-.26.317-.264.155-.275.007.005 0 0" style="fill:#a44216;fill-opacity:1;fill-rule:nonzero;stroke:none"/>
  </g>
  <g clip-path="url(#g)" transform="matrix(.53347 0 0 -.53347 7.51 3.353)">
    <path d="M0 0c-.048-.185-.05-.24-.018-.279.042-.049.131-.058.199-.034.125.045.124.188.238.361.085.13.187.197.391.33.252.166.378.248.557.247.222-.001.386-.126.493-.207.152-.116.231-.239.329-.391.131-.202.235-.362.261-.58.021-.173-.031-.187-.103-.595-.062-.348-.091-.525-.048-.743.024-.125.042-.11.178-.464.133-.347.2-.52.213-.652.04-.426-.362-.724-.282-.803.037-.036.135.003.189.035.121.072.173.202.271.692.052.262.077.393.102.596.044.357.066.535.036.661-.078.321-.267.326-.334.657-.023.113-.011.247.015.515.036.377.079.405.084.629.006.261-.046.455-.104.671a2.997 2.997 0 0 1-.272.677c-.129.234-.198.353-.343.413-.17.07-.341.015-.449-.021-.263-.089-.342-.218-.718-.563C.463.765.218.612.101.341.069.267.046.178 0 0" style="fill:#a44216;fill-opacity:1;fill-rule:nonzero;stroke:none"/>
  </g>
  <g clip-path="url(#h)" transform="matrix(.53347 0 0 -.53347 6.907 6.634)">
    <path d="M0 0a.462.462 0 0 1-.087-.289C-.081-.395-.03-.56.07-.586c.102-.026.193.111.397.319.326.334.366.264.615.534.07.075.101.118.463.67.37.562.433.663.41.684-.038.033-.294-.179-.486-.371C.92.703.985.411.615.251.36.14.144.199 0 0" style="fill:#a44216;fill-opacity:1;fill-rule:nonzero;stroke:none"/>
  </g>
  <g clip-path="url(#i)" transform="matrix(.53347 0 0 -.53347 8.141 6.073)">
    <path d="M0 0c-.127-.123-.101-.296-.096-.324a.407.407 0 0 1 .32-.322c.03-.006.191-.037.302.071.106.103.086.255.08.299-.02.15-.128.34-.317.369A.347.347 0 0 1 0 0" style="fill:#a44216;fill-opacity:1;fill-rule:nonzero;stroke:none"/>
  </g>
  <g clip-path="url(#j)" transform="matrix(.53347 0 0 -.53347 6.948 7.104)">
    <path d="M0 0c-.07-.091-.044-.205-.026-.343.051-.383-.01-.576.041-.587.067-.014.201.304.212.331.058.14.049.177.096.22.09.08.227.043.445.003 0 0 .354-.065.758-.099.287-.024.317.001.557-.036.187-.029.334-.069.428-.096.217-.06.251-.088.519-.177.279-.092.419-.138.606-.171.333-.059.372-.003.554-.083.218-.096.196-.192.397-.248.18-.05.222.021.47-.041.129-.032.166-.063.276-.064.095-.001.122.022.291.063.204.051.306.076.413.06.186-.027.292-.143.319-.114.034.038-.172.196-.132.356.032.127.19.145.193.261a.18.18 0 0 1-.108.161c-.105.038-.185-.095-.427-.217-.137-.069-.28-.141-.449-.125-.207.02-.228.151-.437.165-.176.011-.198-.078-.383-.087-.19-.009-.251.082-.567.209-.227.091-.408.13-.606.172-.157.033-.323.055-.653.099-.293.039-.335.038-.473.07-.239.055-.25.09-.423.114-.195.026-.227-.012-.48.005-.209.014-.188.04-.391.058-.391.033-.486-.062-.632.037-.113.076-.141.19-.243.188C.065.082.008.01 0 0" style="fill:#a44216;fill-opacity:1;fill-rule:nonzero;stroke:none"/>
  </g>
  <g clip-path="url(#k)" transform="matrix(.53347 0 0 -.53347 2.698 8.031)">
    <path d="M0 0c-.102-.088-.018-.326-.014-.336.081-.225.301-.328.451-.395.203-.091.368-.108.69-.138a5.88 5.88 0 0 1 .828-.014c.214.011.406.02.661.069.219.042.366.09.654.183.265.087.48.17.695.268.492.225.511.315.51.354-.001.091-.111.175-.209.207-.211.071-.37-.095-.703-.227-.148-.059-.377-.091-.835-.154a7.071 7.071 0 0 0-.902-.089C1.284-.284.996-.29.635-.17.307-.061.104.09 0 0" style="fill:#a44216;fill-opacity:1;fill-rule:nonzero;stroke:none"/>
  </g>
  <g clip-path="url(#l)" transform="matrix(.53347 0 0 -.53347 5.101 8.766)">
    <path d="M0 0c-.096-.025-.125-.141-.24-.436-.11-.283-.151-.351-.134-.361.025-.016.139.139.366.45.123.168.181.256.149.309C.118 0 .051.014 0 0" style="fill:#a44216;fill-opacity:1;fill-rule:nonzero;stroke:none"/>
  </g>
  <g clip-path="url(#m)" transform="matrix(.53347 0 0 -.53347 4.792 9.524)">
    <path d="M0 0c-.051-.003-.073-.26-.079-.328-.006-.072-.028-.335.021-.346.043-.01.145.168.152.356C.101-.16.041.002 0 0" style="fill:#a44216;fill-opacity:1;fill-rule:nonzero;stroke:none"/>
  </g>
  <g clip-path="url(#n)" transform="matrix(.53347 0 0 -.53347 4.643 10.23)">
    <path d="M0 0c.003.001.181-.495.079-.55-.033-.018-.069.025-.121.004-.076-.031-.101-.164-.089-.26.015-.121.098-.249.153-.239.059.011.074.175.082.271C.143-.335-.002-.001 0 0" style="fill:#a44216;fill-opacity:1;fill-rule:nonzero;stroke:none"/>
  </g>
  <g clip-path="url(#o)" transform="matrix(.53347 0 0 -.53347 4.202 10.898)">
    <path d="M0 0c-.04-.004-.003-.149-.104-.284-.148-.196-.44-.168-.438-.223.001-.042.181-.086.351-.065.095.012.211.026.276.115C.206-.292.057.005 0 0" style="fill:#a44216;fill-opacity:1;fill-rule:nonzero;stroke:none"/>
  </g>
  <g clip-path="url(#p)" transform="matrix(.53347 0 0 -.53347 5.684 9.789)">
    <path d="M0 0c-.061-.026.049-.419.107-.624.083-.295.12-.319.204-.612.092-.317.061-.333.157-.684.118-.434.155-.372.2-.63.046-.267.023-.425.148-.644.057-.1.149-.219.192-.203.03.012.021.088.009.319-.016.315-.006.295-.016.363-.028.198-.101.305-.197.497a3.785 3.785 0 0 0-.289.757c-.093.392.012.428-.08.759C.323-.297.061.026 0 0" style="fill:#a44216;fill-opacity:1;fill-rule:nonzero;stroke:none"/>
  </g>
  <g clip-path="url(#q)" transform="matrix(.53347 0 0 -.53347 5.798 11.734)">
    <path d="M0 0c-.088-.042-.114-.197-.079-.224.042-.034.162.125.417.181.089.019.185.039.261-.014.11-.076.134-.275.077-.313C.566-.443.198.095 0 0" style="fill:#a44216;fill-opacity:1;fill-rule:nonzero;stroke:none"/>
  </g>
  <g clip-path="url(#r)" transform="matrix(.53347 0 0 -.53347 5.494 8.825)">
    <path d="M0 0c-.042-.073.054-.232.181-.313.131-.084.202-.025.363-.088.196-.076.193-.201.384-.33a.91.91 0 0 1 .529-.141c.229.013.402.137.746.386.147.106.26.203.336.268.174.15.185.177.428.396.077.07.202.163.453.351.106.079.169.125.236.107.093-.026.084-.143.217-.247.017-.013.171-.13.282-.076.076.037.098.136.11.197.009.046.041.237-.115.56-.109.227-.196.28-.181.417.011.095.068.206.143.217.071.01.13-.072.27-.262.331-.446.393-.517.451-.574.141-.139.128-.076.369-.278.208-.174.25-.249.541-.523.22-.208.192-.161.311-.282.265-.267.268-.359.543-.655.172-.186.258-.279.403-.363.156-.091.169-.053.51-.213 0 0 .144-.067.35-.14.178-.064.233-.072.251-.049.04.051-.151.192-.112.323.04.132.275.135.276.219 0 .052-.09.107-.175.122-.197.036-.28-.154-.454-.143-.136.009-.15.13-.403.364-.173.159-.198.131-.538.389-.212.161-.319.242-.426.351-.306.309-.248.421-.505.617-.148.112-.185.088-.438.268-.084.06-.205.151-.334.269-.18.163-.261.273-.396.427-.255.292-.651.744-.815.663-.039-.02-.055-.085-.085-.214-.065-.28-.028-.395-.06-.541-.031-.142-.161-.265-.42-.511a4.385 4.385 0 0 0-.624-.494 3.13 3.13 0 0 0-.628-.332 2.718 2.718 0 0 0-.609-.158 1.994 1.994 0 0 0-.589-.013C.642-.009.538.022.322.037.044.056.011.019 0 0" style="fill:#a44216;fill-opacity:1;fill-rule:nonzero;stroke:none"/>
  </g>
  <g clip-path="url(#s)" transform="matrix(.53347 0 0 -.53347 5.66 9.182)">
    <path d="M0 0c-.061-.017-.074-.233-.016-.411.063-.192.17-.225.351-.453.211-.265.143-.316.36-.597.165-.216.331-.351.424-.426a3 3 0 0 1 .6-.368c.27-.133.442-.217.698-.254.274-.038.49 0 .571.017.281.059.472.177.598.256.196.124.328.207.44.373.046.069.053.1.267.467a.442.442 0 0 0 .184.196c.067.034.18.064.231.014.066-.065-.016-.23.003-.237.02-.008.133.177.21.435.062.206.074.372.082.479.017.254-.008.444-.032.622-.003.023-.074.539-.131.536-.037-.002-.018-.236-.114-.602a2.198 2.198 0 0 0-.153-.432c-.126-.253-.281-.404-.506-.62-.174-.166-.356-.34-.646-.507-.208-.12-.445-.256-.78-.301-.288-.039-.5.009-.908.102-.305.069-.462.106-.632.216-.121.079-.231.181-.471.533C.208-.343.084.024 0 0" style="fill:#a44216;fill-opacity:1;fill-rule:nonzero;stroke:none"/>
  </g>
  <g clip-path="url(#t)" transform="matrix(.53347 0 0 -.53347 .607 7.24)">
    <path d="M0 0c-.055-.079-.005-.198.034-.288.162-.367.243-.551.348-.678.083-.101.407-.491.935-.631.245-.065.394-.039.546-.183.124-.119.107-.215.212-.419.18-.347.469-.53.558-.586.094-.06.164-.089.816-.247.528-.128.793-.192.898-.184.442.03.897.269.92.282.227.122.351.235.467.181.137-.063.072-.273.253-.439.162-.148.389-.14.446-.138.221.008.374.121.574.273.581.442.899.685.872.723-.031.044-.544-.167-.975-.416-.132-.077-.273-.166-.402-.116-.134.053-.129.206-.275.325-.162.132-.377.116-.501.106-.445-.033-.505-.323-.952-.432-.24-.059-.428-.023-.804.048-.545.104-.843.307-.931.371-.133.096-.235.171-.297.311-.081.183-.015.299-.106.437-.054.083-.13.121-.381.205-.541.18-.613.145-.805.252-.095.053-.03.035-.452.428-.478.444-.513.424-.597.578C.326-.1.282.047.166.067A.177.177 0 0 1 0 0" style="fill:#f9ae20;fill-opacity:1;fill-rule:nonzero;stroke:none"/>
  </g>
  <g clip-path="url(#u)" transform="matrix(.53347 0 0 -.53347 2.488 5.763)">
    <path d="M0 0c.002.029.282.061.607.014.045-.007.102-.017.531-.133.306-.083.46-.126.498-.152.222-.156.178-.351.391-.653.096-.135.226-.236.486-.437.338-.26.592-.456.965-.629.518-.242.885-.262.908-.457a.197.197 0 0 0-.075-.175c-.152-.105-.446.13-1.175.64-.925.647-.984.642-1.119.847-.169.257-.212.468-.483.659-.137.097-.336.237-.575.21C.812-.283.721-.355.587-.306.491-.27.492-.217.372-.137.181-.009-.002-.023 0 0" style="fill:#f9ae20;fill-opacity:1;fill-rule:nonzero;stroke:none"/>
  </g>
  <g clip-path="url(#v)" transform="matrix(.53347 0 0 -.53347 2.568 5.427)">
    <path d="M0 0c-.043-.042.062-.299.199-.295.049.002.109.036.115.081C.328-.109.047.046 0 0" style="fill:#f9ae20;fill-opacity:1;fill-rule:nonzero;stroke:none"/>
  </g>
  <g clip-path="url(#w)" transform="matrix(.53347 0 0 -.53347 3.712 5.298)">
    <path d="M0 0c.019.033.438-.169.79-.379.283-.169.487-.293.696-.521.238-.26.385-.549.358-.569-.029-.022-.22.298-.657.631-.23.175-.302.182-.734.485C.224-.193-.015-.026 0 0" style="fill:#f9ae20;fill-opacity:1;fill-rule:nonzero;stroke:none"/>
  </g>
  <g clip-path="url(#x)" transform="matrix(.53347 0 0 -.53347 4.603 6.448)">
    <path d="M0 0c-.061-.056.06-.299.192-.46.086-.104.194-.235.368-.256.119-.015.287.019.317.11.038.111-.15.261-.259.348-.128.101-.239.144-.416.213C.032.021.009.008 0 0" style="fill:#f9ae20;fill-opacity:1;fill-rule:nonzero;stroke:none"/>
  </g>
  <g clip-path="url(#y)" transform="matrix(.53347 0 0 -.53347 5.384 6.434)">
    <path d="M0 0c.013.165.411.269.647.3C.9.334.93.279 1.311.317c.206.021.226.04.322.025.222-.034.238-.155.517-.287.272-.128.412-.085.497-.226.058-.097.064-.238.01-.272-.066-.042-.193.098-.531.338-.259.182-.388.274-.519.315C1.264.318.932.205.825.169.419.031.234-.229.082-.143.033-.114-.005-.054 0 0" style="fill:#f9ae20;fill-opacity:1;fill-rule:nonzero;stroke:none"/>
  </g>
  <g clip-path="url(#z)" transform="matrix(.53347 0 0 -.53347 5.795 4.048)">
    <path d="M0 0a.3.3 0 0 0 .349-.047C.43-.131.4-.231.414-.464c.003-.047.039-.23.11-.596.057-.294.086-.441.121-.589.105-.449.129-.391.167-.621.055-.32.032-.574 0-.937-.013-.142-.032-.356-.058-.356-.024 0-.04.174-.091.665-.072.688-.089.799-.126.953-.073.305-.097.234-.175.558-.095.392-.082.585-.255.746-.084.077-.139.081-.187.17-.071.136-.077.379.08.471" style="fill:#f9ae20;fill-opacity:1;fill-rule:nonzero;stroke:none"/>
  </g>
  <g clip-path="url(#A)" transform="matrix(.53347 0 0 -.53347 5.337 5.149)">
    <path d="M0 0c-.113.855-.023 1.538-.024 1.538-.001 0 .03-.441-.048-1.008C-.115.211-.158.106-.135-.122c.04-.381.223-.696.263-.683C.165-.793.066-.495 0 0" style="fill:#f9ae20;fill-opacity:1;fill-rule:nonzero;stroke:none"/>
  </g>
  <g clip-path="url(#B)" transform="matrix(.53347 0 0 -.53347 7.053 6.931)">
    <path d="M0 0c-.002.113.32.161.903.389.313.123.61.262.714.31.474.221.711.366.76.307.038-.046-.06-.186-.089-.227C2.044.431 1.745.412 1.035.085c-.392-.181-.6-.313-.85-.227C.163-.135.001-.08 0 0" style="fill:#f9ae20;fill-opacity:1;fill-rule:nonzero;stroke:none"/>
  </g>
  <g clip-path="url(#C)" transform="matrix(.53347 0 0 -.53347 8.407 5.704)">
    <path d="M0 0c-.265-.254-.437-.419-.404-.467.037-.053.291.067.457.146.246.117.695.329.664.5C.702.259.587.31.504.32.401.332.299.287 0 0" style="fill:#f9ae20;fill-opacity:1;fill-rule:nonzero;stroke:none"/>
  </g>
  <g clip-path="url(#D)" transform="matrix(.53347 0 0 -.53347 7.157 7.286)">
    <path d="M0 0c.008.027.415-.179 1.063-.192.517-.011.709.111 1.109-.019.264-.085.21-.147.533-.263.461-.165.565-.036.956-.21.244-.109.29-.199.543-.257.033-.007.031-.006.441-.053.361-.042.384-.046.445-.036.185.03.205.102.424.128.104.012.236.026.311-.055.033-.037.065-.102.043-.151-.029-.065-.133-.057-.302-.086-.254-.045-.249-.105-.463-.136-.039-.006-.06-.007-.416.009-.411.018-.451.023-.514.054-.143.072-.114.136-.3.266-.165.116-.322.16-.432.191-.237.064-.249.012-.493.066-.15.034-.294.096-.581.221-.28.122-.265.13-.357.161-.305.1-.536.023-.761-.001C.576-.434-.01-.033 0 0" style="fill:#f9ae20;fill-opacity:1;fill-rule:nonzero;stroke:none"/>
  </g>
  <g clip-path="url(#E)" transform="matrix(.53347 0 0 -.53347 2.834 7.89)">
    <path d="M0 0c.009.057.156.086.72.123.39.025.623.031.912.043.514.022.771.033 1.036.057.272.024.489.052.817.032.063-.004.491-.031.494-.096.003-.051-.256-.102-.328-.116-.482-.095-.807-.039-1.175-.019-.463.024-.808.042-1.235-.069C.865-.143.592-.299.249-.178.138-.139-.009-.061 0 0" style="fill:#f9ae20;fill-opacity:1;fill-rule:nonzero;stroke:none"/>
  </g>
  <g clip-path="url(#F)" transform="matrix(.53347 0 0 -.53347 4.88 8.256)">
    <path d="M0 0c-.028.073.265.344.588.325C.711.318.799.272.919.209c.278-.146.304-.271.493-.346.169-.066.32-.034.522.009.354.075.618.251.785.365.252.172.385.318.649.346.029.003.19.02.207-.028.02-.057-.19-.166-.645-.43-.621-.361-.698-.431-.953-.506-.241-.072-.418-.125-.643-.079-.108.023-.28.105-.624.27-.176.084-.263.131-.413.157C.108-.001.015-.038 0 0" style="fill:#f9ae20;fill-opacity:1;fill-rule:nonzero;stroke:none"/>
  </g>
  <g clip-path="url(#G)" transform="matrix(.53347 0 0 -.53347 4.588 9.683)">
    <path d="M0 0c-.025-.002-.062-.035-.178-.909-.07-.524-.077-.663-.034-.678.054-.017.159.167.207.251.08.141.227.4.211.752C.193-.31.081.006 0 0" style="fill:#f9ae20;fill-opacity:1;fill-rule:nonzero;stroke:none"/>
  </g>
  <g clip-path="url(#H)" transform="matrix(.53347 0 0 -.53347 4.18 11.184)">
    <path d="M0 0c.084.039.381.177.495.462.057.142.041.252.125.291C.701.791.834.742.881.655.954.522.811.325.679.143.573-.003.356-.294-.031-.428c-.127-.044-.265-.089-.385-.017-.095.056-.175.183-.142.269.046.12.26.038.558.176" style="fill:#f9ae20;fill-opacity:1;fill-rule:nonzero;stroke:none"/>
  </g>
  <g clip-path="url(#I)" transform="matrix(.53347 0 0 -.53347 5.42 8.866)">
    <path d="M0 0c-.013-.006.109-.205.182-.569.076-.379.004-.462.056-.934.022-.2.033-.164.15-.792.112-.603.081-.524.129-.731.16-.698.312-.731.32-1.162.005-.321.008-.482-.04-.668C.754-5.02.701-5.12.755-5.188c.073-.093.31-.08.39.035.038.056.029.122.008.239-.05.277-.074.416-.105.511-.084.264-.036.225-.159.757-.026.113-.058.247-.198.75-.259.931-.372 1.28-.274 1.336.07.039.178-.106.232-.071C.816-1.526.034.016 0 0" style="fill:#f9ae20;fill-opacity:1;fill-rule:nonzero;stroke:none"/>
  </g>
  <g clip-path="url(#J)" transform="matrix(.53347 0 0 -.53347 5.854 9.67)">
    <path d="M0 0c-.049-.001-.098-.087-.109-.166-.023-.16.113-.289.41-.583.503-.5.435-.453.519-.52a3.22 3.22 0 0 1 .795-.464c.251-.101.467-.189.774-.198.312-.008.548.07.68.115.239.082.389.182.688.382.278.187.362.282.419.389.071.13.137.339.062.402-.067.055-.221-.028-.308-.076-.263-.142-.313-.292-.55-.493a1.62 1.62 0 0 0-.477-.29c-.291-.108-.542-.086-.752-.068a2.448 2.448 0 0 0-.879.254c-.325.165-.531.36-.659.483-.222.213-.334.321-.429.515C.104-.157.067.002 0 0" style="fill:#f9ae20;fill-opacity:1;fill-rule:nonzero;stroke:none"/>
  </g>
  <g clip-path="url(#K)" transform="matrix(.53347 0 0 -.53347 5.733 11.857)">
    <path d="M0 0c-.066-.06-.156-.167-.13-.207.033-.049.199.079.375.011.12-.046.126-.137.213-.14.114-.004.267.152.238.298C.666.106.478.151.451.158.231.21.049.045 0 0" style="fill:#f9ae20;fill-opacity:1;fill-rule:nonzero;stroke:none"/>
  </g>
  <g clip-path="url(#L)" transform="matrix(.53347 0 0 -.53347 5.702 9.11)">
    <path d="M0 0c-.029-.064.013-.157.271-.444.247-.275.371-.412.488-.465a.913.913 0 0 1 .628-.048c.212.065.331.196.489.371.108.119.242.266.202.336-.042.072-.249.028-.549-.039-.43-.095-.466-.162-.64-.135a.901.901 0 0 0-.504.265c-.1.111-.15.234-.253.235C.082.076.022.048 0 0" style="fill:#f9ae20;fill-opacity:1;fill-rule:nonzero;stroke:none"/>
  </g>
  <g clip-path="url(#M)" transform="matrix(.53347 0 0 -.53347 6.918 8.916)">
    <path d="M0 0c-.049-.055-.159-.179-.126-.263.045-.119.35-.099.505-.089.171.011.431.031.687.206.129.088.28.192.275.334-.007.188-.279.302-.314.317C.976.525.855.574.712.543.53.503.54.384.234.179.137.114.076.086 0 0" style="fill:#f9ae20;fill-opacity:1;fill-rule:nonzero;stroke:none"/>
  </g>
  <g clip-path="url(#N)" transform="matrix(.53347 0 0 -.53347 7.686 8.027)">
    <path d="M0 0c-.022-.017.049-.129.238-.463.408-.723.443-.855.46-.95.066-.349-.023-.609.02-.618.039-.008.142.2.162.43.022.251-.06.445-.16.684C.604-.642.47-.46.415-.39.252-.178.033.026 0 0" style="fill:#f9ae20;fill-opacity:1;fill-rule:nonzero;stroke:none"/>
  </g>
  <g clip-path="url(#O)" transform="matrix(.53347 0 0 -.53347 8.194 8.515)">
    <path d="M0 0c-.038-.034.142-.319.345-.547.266-.299.367-.272.572-.534.126-.161.077-.157.336-.582.248-.407.329-.47.411-.51.06-.028.034-.003.493-.067.046-.006.242-.034.497-.05.2-.012.248-.005.255.016.016.05-.21.162-.232.173-.265.131-.398.099-.595.169-.157.056-.278.177-.52.418-.219.219-.223.272-.524.605a8.121 8.121 0 0 1-.43.44C.55-.415.053.049 0 0" style="fill:#f9ae20;fill-opacity:1;fill-rule:nonzero;stroke:none"/>
  </g>
  <g clip-path="url(#P)" transform="matrix(.53347 0 0 -.53347 .997 7.585)">
    <path d="M0 0c-.033-.038.144-.236.161-.256.049-.054.123-.137.154-.12.028.015.014.111-.022.182C.218-.044.029.032 0 0" style="fill:#fcd186;fill-opacity:1;fill-rule:nonzero;stroke:none"/>
  </g>
  <g clip-path="url(#Q)" transform="matrix(.53347 0 0 -.53347 .762 7.654)">
    <path d="M0 0c-.036-.04.06-.176.142-.295C.28-.492.525-.741.62-.688c.057.031.041.157.039.175C.615-.163.067.075 0 0" style="fill:#fcd186;fill-opacity:1;fill-rule:nonzero;stroke:none"/>
  </g>
  <g clip-path="url(#R)" transform="matrix(.53347 0 0 -.53347 1.637 8.19)">
    <path d="M0 0c-.033-.047.028-.16.11-.215.076-.051.197-.07.234-.019.03.042-.004.118-.036.16C.224.033.039.057 0 0" style="fill:#fcd186;fill-opacity:1;fill-rule:nonzero;stroke:none"/>
  </g>
  <g clip-path="url(#S)" transform="matrix(.53347 0 0 -.53347 1.96 8.145)">
    <path d="M0 0c-.028-.031-.047-.085-.025-.126.032-.058.134-.07.18-.022.051.053.024.164-.038.187C.076.055.027.03 0 0" style="fill:#fcd186;fill-opacity:1;fill-rule:nonzero;stroke:none"/>
  </g>
  <g clip-path="url(#T)" transform="matrix(.53347 0 0 -.53347 1.835 8.508)">
    <path d="M0 0c-.023-.018.011-.118.076-.18C.15-.25.265-.269.28-.243.306-.197.043.033 0 0" style="fill:#fcd186;fill-opacity:1;fill-rule:nonzero;stroke:none"/>
  </g>
  <g clip-path="url(#U)" transform="matrix(.53347 0 0 -.53347 2.012 8.428)">
    <path d="M0 0c-.033-.041.025-.15.094-.211.068-.061.182-.106.22-.068.037.037-.002.148-.066.213C.17.012.034.043 0 0" style="fill:#fcd186;fill-opacity:1;fill-rule:nonzero;stroke:none"/>
  </g>
  <g clip-path="url(#V)" transform="matrix(.53347 0 0 -.53347 3.795 8.887)">
    <path d="M0 0c-.039-.046.012-.141.014-.145.044-.081.154-.15.218-.112.051.031.063.124.032.186C.213.032.046.055 0 0" style="fill:#fcd186;fill-opacity:1;fill-rule:nonzero;stroke:none"/>
  </g>
  <g clip-path="url(#W)" transform="matrix(.53347 0 0 -.53347 3.864 8.542)">
    <path d="M0 0c-.044-.039-.066-.116-.028-.169.041-.057.127-.056.18-.022.054.034.086.107.061.16C.181.038.064.056 0 0" style="fill:#fcd186;fill-opacity:1;fill-rule:nonzero;stroke:none"/>
  </g>
  <g clip-path="url(#X)" transform="matrix(.53347 0 0 -.53347 5.202 8.075)">
    <path d="M0 0c-.033-.038-.007-.13.049-.181.045-.041.121-.067.186-.032.039.021.081.067.074.112C.295-.003.055.064 0 0" style="fill:#fcd186;fill-opacity:1;fill-rule:nonzero;stroke:none"/>
  </g>
  <g clip-path="url(#Y)" transform="matrix(.53347 0 0 -.53347 4.948 9.04)">
    <path d="M0 0c-.044-.028-.083-.092-.056-.144.026-.052.1-.06.148-.04.065.027.104.115.071.167C.133.029.052.033 0 0" style="fill:#fcd186;fill-opacity:1;fill-rule:nonzero;stroke:none"/>
  </g>
  <g clip-path="url(#Z)" transform="matrix(.53347 0 0 -.53347 3.92 11.294)">
    <path d="M0 0c-.031-.021-.038-.082-.014-.12.043-.071.192-.057.283-.032.138.04.134.106.247.129.15.03.239-.072.304-.02.05.041.061.154.016.191C.733.23.427-.144.165-.044.106-.022.04.028 0 0" style="fill:#fcd186;fill-opacity:1;fill-rule:nonzero;stroke:none"/>
  </g>
  <g clip-path="url(#aa)" transform="matrix(.53347 0 0 -.53347 5.805 9.7)">
    <path d="M0 0c-.036-.023.023-.278.191-.378.072-.044.132-.038.168-.098.048-.082-.023-.155.004-.249.043-.149.302-.242.347-.19C.804-.808.076.048 0 0" style="fill:#fcd186;fill-opacity:1;fill-rule:nonzero;stroke:none"/>
  </g>
  <g clip-path="url(#ab)" transform="matrix(.53347 0 0 -.53347 5.906 11.1)">
    <path d="M0 0c-.031-.013-.022-.117.011-.189.061-.128.216-.182.242-.153C.296-.296.062.026 0 0" style="fill:#fcd186;fill-opacity:1;fill-rule:nonzero;stroke:none"/>
  </g>
  <g clip-path="url(#ac)" transform="matrix(.53347 0 0 -.53347 5.726 11.896)">
    <path d="M0 0c-.051-.032-.078-.114-.05-.155.049-.072.274-.022.284.039C.243-.061.092.057 0 0" style="fill:#fcd186;fill-opacity:1;fill-rule:nonzero;stroke:none"/>
  </g>
  <g clip-path="url(#ad)" transform="matrix(.53347 0 0 -.53347 5.945 11.888)">
    <path d="M0 0c-.034-.072.042-.157.082-.19C.13-.23.22-.272.263-.239c.061.047.042.246-.071.294C.128.082.03.063 0 0" style="fill:#fcd186;fill-opacity:1;fill-rule:nonzero;stroke:none"/>
  </g>
  <g clip-path="url(#ae)" transform="matrix(.53347 0 0 -.53347 5.869 11.486)">
    <path d="M0 0c-.057.004-.143-.097-.109-.174.033-.073.154-.084.192-.043C.133-.164.069-.004 0 0" style="fill:#fcd186;fill-opacity:1;fill-rule:nonzero;stroke:none"/>
  </g>
  <g clip-path="url(#af)" transform="matrix(.53347 0 0 -.53347 5.755 9.11)">
    <path d="M0 0c-.041-.012-.04-.147-.019-.234.053-.213.275-.339.317-.306C.362-.488.087.025 0 0" style="fill:#fcd186;fill-opacity:1;fill-rule:nonzero;stroke:none"/>
  </g>
  <g clip-path="url(#ag)" transform="matrix(.53347 0 0 -.53347 6.076 9.305)">
    <path d="M0 0c-.025-.024.012-.099.035-.133.1-.149.346-.142.363-.097C.421-.17.057.056 0 0" style="fill:#fcd186;fill-opacity:1;fill-rule:nonzero;stroke:none"/>
  </g>
  <g clip-path="url(#ah)" transform="matrix(.53347 0 0 -.53347 7.676 8.016)">
    <path d="M0 0c-.043-.05.094-.229.165-.309.029-.033.189-.214.243-.181.053.032.015.267-.132.398C.181-.006.034.041 0 0" style="fill:#fcd186;fill-opacity:1;fill-rule:nonzero;stroke:none"/>
  </g>
  <g clip-path="url(#ai)" transform="matrix(.53347 0 0 -.53347 8.218 8.492)">
    <path d="M0 0c-.015-.01.068-.169.153-.289.108-.151.256-.288.271-.276C.45-.542.029.019 0 0" style="fill:#fcd186;fill-opacity:1;fill-rule:nonzero;stroke:none"/>
  </g>
  <g clip-path="url(#aj)" transform="matrix(.53347 0 0 -.53347 7.981 8.338)">
    <path d="M0 0c-.015-.006.005-.126.073-.223C.104-.268.16-.328.171-.32.194-.304.027.011 0 0" style="fill:#fcd186;fill-opacity:1;fill-rule:nonzero;stroke:none"/>
  </g>
  <g clip-path="url(#ak)" transform="matrix(.53347 0 0 -.53347 9.366 7.799)">
    <path d="M0 0c-.028-.038.027-.138.098-.194.076-.06.141-.047.281-.076.207-.042.208-.101.348-.119.213-.028.431.081.425.134-.006.052-.235.011-.624.113C.213-.059.039.053 0 0" style="fill:#fcd186;fill-opacity:1;fill-rule:nonzero;stroke:none"/>
  </g>
  <g clip-path="url(#al)" transform="matrix(.53347 0 0 -.53347 6.544 6.377)">
    <path d="M0 0c-.043.001-.108-.015-.121-.056-.022-.069.108-.208.2-.177a.116.116 0 0 1 .074.112C.15-.049.068-.002 0 0" style="fill:#fcd186;fill-opacity:1;fill-rule:nonzero;stroke:none"/>
  </g>
  <g clip-path="url(#am)" transform="matrix(.53347 0 0 -.53347 6.193 6.208)">
    <path d="M0 0c-.068-.002-.14-.059-.134-.106.009-.08.255-.149.292-.096C.188-.159.117.003 0 0" style="fill:#fcd186;fill-opacity:1;fill-rule:nonzero;stroke:none"/>
  </g>
  <g clip-path="url(#an)" transform="matrix(.53347 0 0 -.53347 8.208 4.903)">
    <path d="M0 0c-.059-.031-.108-.107-.088-.162.025-.067.145-.081.225-.052.057.02.129.074.123.127C.251-.016.101.053 0 0" style="fill:#fcd186;fill-opacity:1;fill-rule:nonzero;stroke:none"/>
  </g>
  <g clip-path="url(#ao)" transform="matrix(.53347 0 0 -.53347 5.844 4.34)">
    <path d="M0 0a.112.112 0 0 1-.021-.109c.038-.097.205-.047.313-.155.105-.105.065-.27.086-.271.028 0 .136.262.002.433C.279.026.068.072 0 0" style="fill:#fcd186;fill-opacity:1;fill-rule:nonzero;stroke:none"/>
  </g>
  <g clip-path="url(#ap)" transform="matrix(.53347 0 0 -.53347 5.803 4.089)">
    <path d="M0 0c-.024-.024 0-.1.052-.138.075-.055.188-.008.193.028C.252-.057.042.043 0 0" style="fill:#fcd186;fill-opacity:1;fill-rule:nonzero;stroke:none"/>
  </g>
  <g clip-path="url(#aq)" transform="matrix(.53347 0 0 -.53347 5.908 3.537)">
    <path d="M0 0c.036.011.162-.25.13-.274-.015-.011-.068.033-.096.07C-.029-.121-.022-.006 0 0" style="fill:#fcd186;fill-opacity:1;fill-rule:nonzero;stroke:none"/>
  </g>
  <g clip-path="url(#ar)" transform="matrix(.53347 0 0 -.53347 3.722 5.305)">
    <path d="M0 0c-.015-.013.051-.112.097-.167.122-.149.3-.229.315-.209C.438-.341.032.028 0 0" style="fill:#fcd186;fill-opacity:1;fill-rule:nonzero;stroke:none"/>
  </g>
  <g clip-path="url(#as)" transform="matrix(.53347 0 0 -.53347 4.89 6.58)">
    <path d="M0 0c-.118.008-.212-.205-.241-.188-.014.009-.008.064.015.072.061.021.171-.312.283-.297.062.008.109.119.101.211C.15-.104.077-.005 0 0" style="fill:#fcd186;fill-opacity:1;fill-rule:nonzero;stroke:none"/>
  </g>
  <g clip-path="url(#at)" transform="matrix(.53347 0 0 -.53347 3.174 5.852)">
    <path d="M0 0c-.019-.018.023-.088.052-.138.096-.165.261-.328.299-.301.031.022-.02.17-.103.275C.161-.053.026.025 0 0" style="fill:#fcd186;fill-opacity:1;fill-rule:nonzero;stroke:none"/>
  </g>
  <g clip-path="url(#au)" transform="matrix(.53347 0 0 -.53347 2.733 5.772)">
    <path d="M0 0c-.044-.02-.056-.117-.022-.18.061-.114.255-.098.279-.048C.288-.164.08.037 0 0" style="fill:#fcd186;fill-opacity:1;fill-rule:nonzero;stroke:none"/>
  </g>
  <g clip-path="url(#av)" transform="matrix(.53347 0 0 -.53347 3.898 6.55)">
    <path d="M0 0c.031.045.357-.082.359-.211C.36-.258.318-.271.312-.322.294-.47.605-.639.622-.618.648-.584-.05-.072 0 0" style="fill:#fcd186;fill-opacity:1;fill-rule:nonzero;stroke:none"/>
  </g>
  <g clip-path="url(#aw)" transform="matrix(.53347 0 0 -.53347 4.612 7.002)">
    <path d="M0 0c.017.033.205.006.321-.121.052-.057.108-.153.086-.174C.362-.338-.027-.053 0 0" style="fill:#fcd186;fill-opacity:1;fill-rule:nonzero;stroke:none"/>
  </g>
  <g clip-path="url(#ax)" transform="matrix(.53347 0 0 -.53347 3.362 7.88)">
    <path d="M0 0c0 .008.32.031.653.028.128 0 .342-.006.342-.012C.995.004 0-.014 0 0" style="fill:#fcd186;fill-opacity:1;fill-rule:nonzero;stroke:none"/>
  </g>
  <g clip-path="url(#ay)" transform="matrix(.53347 0 0 -.53347 7.377 6.841)">
    <path d="M0 0c-.006.013.124.083.209.121.204.091.422.124.427.107C.645.196.012-.028 0 0" style="fill:#fcd186;fill-opacity:1;fill-rule:nonzero;stroke:none"/>
  </g>
  <g clip-path="url(#az)" transform="matrix(.53347 0 0 -.53347 7.13 8.964)">
    <path d="M0 0c-.002-.029.103-.076.204-.064.095.012.186.076.178.103C.367.09.005.052 0 0" style="fill:#fcd186;fill-opacity:1;fill-rule:nonzero;stroke:none"/>
  </g>
</svg>
