<svg xmlns="http://www.w3.org/2000/svg" width="45.287" height="50.697" viewBox="0 0 11.982 13.414">
  <defs>
    <clipPath id="a" clipPathUnits="userSpaceOnUse"/>
    <clipPath id="b" clipPathUnits="userSpaceOnUse"/>
    <clipPath id="c" clipPathUnits="userSpaceOnUse"/>
    <clipPath id="d" clipPathUnits="userSpaceOnUse"/>
    <clipPath id="e" clipPathUnits="userSpaceOnUse"/>
    <clipPath id="f" clipPathUnits="userSpaceOnUse"/>
    <clipPath id="g" clipPathUnits="userSpaceOnUse"/>
    <clipPath id="h" clipPathUnits="userSpaceOnUse"/>
    <clipPath id="i" clipPathUnits="userSpaceOnUse"/>
    <clipPath id="j" clipPathUnits="userSpaceOnUse"/>
    <clipPath id="k" clipPathUnits="userSpaceOnUse"/>
    <clipPath id="l" clipPathUnits="userSpaceOnUse"/>
    <clipPath id="m" clipPathUnits="userSpaceOnUse"/>
    <clipPath id="n" clipPathUnits="userSpaceOnUse"/>
    <clipPath id="o" clipPathUnits="userSpaceOnUse"/>
    <clipPath id="p" clipPathUnits="userSpaceOnUse"/>
    <clipPath id="q" clipPathUnits="userSpaceOnUse"/>
    <clipPath id="r" clipPathUnits="userSpaceOnUse"/>
    <clipPath id="s" clipPathUnits="userSpaceOnUse"/>
    <clipPath id="t" clipPathUnits="userSpaceOnUse"/>
    <clipPath id="u" clipPathUnits="userSpaceOnUse"/>
    <clipPath id="v" clipPathUnits="userSpaceOnUse"/>
    <clipPath id="w" clipPathUnits="userSpaceOnUse"/>
    <clipPath id="x" clipPathUnits="userSpaceOnUse"/>
    <clipPath id="y" clipPathUnits="userSpaceOnUse"/>
    <clipPath id="z" clipPathUnits="userSpaceOnUse"/>
    <clipPath id="A" clipPathUnits="userSpaceOnUse"/>
    <clipPath id="B" clipPathUnits="userSpaceOnUse"/>
    <clipPath id="C" clipPathUnits="userSpaceOnUse"/>
    <clipPath id="D" clipPathUnits="userSpaceOnUse"/>
    <clipPath id="E" clipPathUnits="userSpaceOnUse"/>
    <clipPath id="F" clipPathUnits="userSpaceOnUse"/>
    <clipPath id="G" clipPathUnits="userSpaceOnUse"/>
    <clipPath id="H" clipPathUnits="userSpaceOnUse"/>
    <clipPath id="I" clipPathUnits="userSpaceOnUse"/>
    <clipPath id="J" clipPathUnits="userSpaceOnUse"/>
    <clipPath id="K" clipPathUnits="userSpaceOnUse"/>
    <clipPath id="L" clipPathUnits="userSpaceOnUse"/>
    <clipPath id="M" clipPathUnits="userSpaceOnUse"/>
    <clipPath id="N" clipPathUnits="userSpaceOnUse"/>
    <clipPath id="O" clipPathUnits="userSpaceOnUse"/>
    <clipPath id="P" clipPathUnits="userSpaceOnUse"/>
    <clipPath id="Q" clipPathUnits="userSpaceOnUse"/>
    <clipPath id="R" clipPathUnits="userSpaceOnUse"/>
    <clipPath id="S" clipPathUnits="userSpaceOnUse"/>
    <clipPath id="T" clipPathUnits="userSpaceOnUse"/>
    <clipPath id="U" clipPathUnits="userSpaceOnUse"/>
    <clipPath id="V" clipPathUnits="userSpaceOnUse"/>
    <clipPath id="W" clipPathUnits="userSpaceOnUse"/>
    <clipPath id="X" clipPathUnits="userSpaceOnUse"/>
    <clipPath id="Y" clipPathUnits="userSpaceOnUse"/>
    <clipPath id="Z" clipPathUnits="userSpaceOnUse"/>
    <clipPath id="aa" clipPathUnits="userSpaceOnUse"/>
    <clipPath id="ab" clipPathUnits="userSpaceOnUse"/>
    <clipPath id="ac" clipPathUnits="userSpaceOnUse"/>
    <clipPath id="ad" clipPathUnits="userSpaceOnUse"/>
    <clipPath id="ae" clipPathUnits="userSpaceOnUse"/>
    <clipPath id="af" clipPathUnits="userSpaceOnUse"/>
    <clipPath id="ag" clipPathUnits="userSpaceOnUse"/>
    <clipPath id="ah" clipPathUnits="userSpaceOnUse"/>
    <clipPath id="ai" clipPathUnits="userSpaceOnUse"/>
    <clipPath id="aj" clipPathUnits="userSpaceOnUse"/>
  </defs>
  <g clip-path="url(#a)" transform="matrix(.3011 0 0 -.3011 7.06 6.308)">
    <path d="M0 0c-.242-.077-.649-.227-.208-.371.285-.093.642.025.92.091.124.03.331.019.273.178C.865.23.214.068 0 0m-6.062-3.058c-.12-.117-.297-.263-.237-.449.048-.146.144-.173.267-.122.106.044.239.305.319.381.11.103.232.173.355.259.127.088.567.319.386.433-.282.179-.917-.333-1.09-.502m.104-9.033c-.161-.121.219-1.139.426-1.193.717-.188.024 1.532-.426 1.193M7.148-5.802c-.131-.167.403-.931.591-.817.271.164-.29 1.202-.591.817M4.423-2.787c-.093-.224.445-.617.58-.732.161-.136.364-.354.371-.042.004.177-.195.616-.313.747-.128.142-.532.281-.638.027m-2.584 1.21c-.577-.275.183-.455.398-.517.177-.051.854-.384 1.052-.281.288.152.009.517-.183.603-.194.086-.475.094-.681.142-.183.044-.402.141-.586.053M-5.834-5.63a1.495 1.495 0 0 1-.428-.893c-.062-.553.13-.548.404-.13.213.325.445.711.528 1.093.099.458-.337.097-.504-.07m-.636-2.671c-.155-.076.038-1.221.238-1.143.364.14.094 1.306-.238 1.143m-1.006 3.483c-.11-.041-.645-.251-.583-.441.063-.193.419-.064.537-.013.104.045.68.394.669.494-.019.172-.525-.003-.623-.04m-3.257-1.797c-.291-.38.559-.273.691-.117.211.248-.545.308-.691.117M2.625.762C2.572.733 2.13.534 2.165.434c.067-.189.883.171.95.242.314.328-.322.179-.49.086m2.693 1.722c-.112-.047-.458-.194-.444-.349.019-.211.287-.16.415-.087.062.036.451.421.39.499-.061.078-.293-.034-.361-.063M.508 5.845c-.269-.384.206-1.727.53-1.137.149.272-.166 1.658-.53 1.137m-.522 4.894c-.573-.126-.184-1.533.198-1.352.13.061.117.661.122.761.009.197.028.667-.32.591m-3.107-4.015c-.09-.129.547-1.083.657-1.069.163.021.036.488.004.591-.047.15-.433.807-.661.478m.756-2.58c-.103-.028-.153-1.341-.062-1.396.155-.093.318.354.351.473.036.131.031 1.013-.289.923M-7.947-.084c-.211-.243.358-.549.529-.565.134-.012.573.042.547.23-.02.143-.99.434-1.076.335m-2.585 1.901c-.152-.123.465-1.168.658-1.066.221.118-.395 1.28-.658 1.066m-.838-4.715c.028-.351 1.133-.539 1.272-.235.174.379-1.32.83-1.272.235m-4.508 1.712c-.084-.385 1.341-.858 1.273-.261-.046.403-1.189.65-1.273.261m11.842-4.721c.228-.465.44-.987.988-1.124a4.049 4.049 0 0 1 1.861.022c.982.266 2.171 1.152 2.449 2.18.121.445.01.724-.187 1.098C.883-3.365.823-2.632.319-2.55c-.499.082-.695-.765-.908-1.099A2.943 2.943 0 0 0-1.92-4.797c-.624-.267-1.273-.292-1.939-.236-.683.057-.385-.449-.177-.874m-9.811 17.456c.278-.17-.059-1.102-.071-1.37-.023-.512.216-1.066.34-1.555.142-.555.237-1.117.365-1.675.112-.493.386-.911.661-1.329.257-.389.547-.75.778-1.155.293-.513.489-1.21.916-1.624.379-.367.89-.439 1.189-.93.229-.377.197-1.272.814-1.289.266-.008.422.16.708.067.325-.105.599-.35.914-.482.292-.122.559-.12.866-.12.126 0 .755-.242.785-.21.023.025-.158.553-.184.632-.094.284-.211.279-.485.393a2.43 2.43 0 0 0-1.162 1.02c-.141.238-.815 1.573.065 1.354.407-.101.389-.661.546-.956.107-.201.268-.482.427-.636.196-.189.232-.129.444.052.338.288.754.681 1.166.849.144.059.298.004.438.044.288.081.328.35.302.627-.034.359-.718 1.161-.363 1.447.521.42.781-.785.845-1.064.046-.197.135-.435.127-.642-.01-.261-.29-.511-.206-.767.082-.248.333-.279.489-.112.137.145.18.433.206.627.068.511-.058 1.021.009 1.543a2.253 2.253 0 0 1-.375 1.543c-.17.256-.351.481-.44.783-.082.28-.076.578-.18.853-.212.563-.755.984-1.12 1.445-.332.418-.576.865-.833 1.328-.564 1.019-1.694 1.852-2.667 2.451-.222.137-.435.248-.641.411-.379.3-.531.321-.988.306-.29-.009-.328.129-.474.376-.111.007.181.04.21.046.173.033.361.081.538.068.504-.035.977-.511 1.398-.748.786-.442 1.574-.866 2.259-1.465.698-.61 1.332-1.308 1.971-1.979.736-.774 1.219-1.722 1.768-2.627.244-.402.525-.773.67-1.225.154-.483.197-.99.237-1.492.044-.542.093-1.125.005-1.665-.065-.392-.724-.95-.406-1.349.276-.345.694.366.885.558.35.352.68.714.989 1.104.178.224.517.534.553.84.047.408-.336.932-.42 1.334-.11.527.058 1.011.018 1.539a6.387 6.387 0 0 1-.455 1.901c-.172.41-.364.709-.35 1.177.016.489.144.974.266 1.445.205.795.322 1.611.668 2.36.098.211.4 1.212.674.927.345-.36-.066-1.266-.138-1.651-.089-.478-.221-1.063-.131-1.548.035-.196.139-.333.224-.504.15-.303.209-.611.193-.948-.023-.489-.238-.927-.276-1.411-.042-.54-.005-1.164.24-1.654.201-.398.382-.758.52-1.188.159-.498.167-.716.035-1.209-.254-.948.014-2.076-.798-2.801C.329 1.278-.086 1.001-.431.613-.477.561-.787.261-.715.169c.047-.06.344.104.385.12.434.174.887.434 1.36.301.563-.159.604.08 1.086.336.316.167.666.277.992.426.356.163.86.309 1.132.609.191.211.264.529.464.734.162.166.354.18.556.275.278.13.508.368.694.607.298.381.615.704.938 1.06.15.166.296.441.56.34.21-.08.201-.225.187-.396-.03-.373-.368-.908-.606-1.193-.278-.333-.632-.6-.921-.923-.236-.264-.351-.668-.662-.852-.416-.245-.859-.393-1.267-.677A13.411 13.411 0 0 0 1.759-.383C1.414-.531 1.021-.588.66-.68.579-.7.503-.728.42-.74c-.222-.034-.577.117-.774.043C-.51-.756-.561-.996-.402-1.1c.1-.066.374.03.483.027.24-.006.437-.144.665-.165.22-.021.429.091.643.142.929.221 1.752-.151 2.62-.469 1-.367 1.342-1.061 1.881-1.909.249-.393.663-.523.993-.821.434-.392.744-.965 1.044-1.459.441-.725.84-1.491 1.209-2.255.272-.564.3-1.207.481-1.803.312-1.027.681-1.957.517-3.065-.038-.259-.11-.751-.495-.583-.318.14-.142.409-.071.642.083.273.097.564.082.849-.024.466-.256.841-.444 1.258-.193.433-.291.876-.447 1.318a5.34 5.34 0 0 1-.811 1.495c-.365.464-.872.759-1.125 1.308-.178.386-.315.688-.625.986-.337.324-.594.735-.946 1.04-.503.436-1.113.751-1.643 1.156a2.702 2.702 0 0 1-.884.451c-.341.113-.845.554-1.23.322-.353-.212.132-.69.219-.985.163-.56.281-1.151.378-1.727.132-.78.268-1.613.309-2.402.026-.487-.109-.975-.23-1.442-.122-.467-.242-.84-.674-1.106-.922-.567-1.612-.136-2.492.219-.783.315-1.409.944-2.021 1.511-.4.371-.759.757-1.056 1.217-.13.202-.255.411-.364.625-.137.27-.177.654-.337.898-.073.111-.024.195-.143.111-.106-.075-.175-.592-.229-.717-.188-.438-.611-.845-.725-1.302-.086-.346.243-.713.313-1.054.115-.558-.192-1.03-.104-1.562.112-.679.532-1.287.741-1.938.121-.376.108-.762.157-1.149.08-.626.249-1.257.503-1.834.267-.606.651-1.144 1.029-1.683.275-.394.545-.81.917-1.121.185-.154.522-.317.579-.578.053-.241-.129-.432-.36-.369-.207.057-.395.393-.521.544a7.617 7.617 0 0 1-.565.626c-.502.489-.834 1.032-1.206 1.618-.521.819-1.086 1.596-1.536 2.458-.549 1.05-1.002 2.126-.876 3.337.025.236.086.454.036.691-.052.241-.203.458-.296.685-.162.395-.263.796-.172 1.216.205.951.408 1.85 1.001 2.642.284.377.704.528.903.959.101.219.222.362.353.562.097.148.284.494.018.575-.38.116-.615-.6-.755-.824-.265-.422-.527-.815-.893-1.156-.653-.607-1.523-.927-2.287-1.372-.341-.199-.703-.359-1.044-.555-.438-.253-.631-.559-1.157-.409-.537.153-.63.033-1.117-.186a2.366 2.366 0 0 0-1.724-.118c-.116.035-.561.129-.591.273-.039.184.239.234.379.292.235.096.47.2.73.186.184-.01.346-.088.535-.061.39.053.855.253 1.204.429.39.198.533.485.993.543 1.152.143 1.888.916 2.81 1.52.356.234.443.558.695.879.219.281.497.526.745.78.254.259.726.537.892.844.318.589-.421.421-.65.095-.203-.291-.295-.551-.591-.767-.42-.306-.855-.637-1.303-.898-.482-.281-.916-.31-1.442-.156-.262.077-.384.041-.63-.045-.308-.108-.554-.084-.872-.024-.252.048-.492.074-.662.284-.197.242-.25.374-.552.496-.501.202-.935.48-1.403.754-.364.214-.503.169-.882.032-.464-.168-.926-.229-1.365.051-.229.148-.356.389-.58.543-.216.149-.473.214-.726.267-.573.121-1.186.114-1.769.096a4.316 4.316 0 0 1-.775-.1c-.096-.021-.492-.183-.584-.096-.49.459 1.118.638 1.233.651.648.069 1.275.02 1.923.039.413.013.77.196 1.166.279.562.116 1.124.099 1.653-.134 1.022-.452 1.484-1.548 2.746-1.409.618.067 1.046-.049 1.508-.452.461-.4.858-.237 1.374.008.513.244.941.627 1.447.888.111.057 1.14.448 1.059.551-.172.22-.908-.09-1.122-.084-.419.012-.803.431-1.202.563-1.11.368-2.194.869-2.596 2.051-.168.49-.246.721-.678 1.045-.441.333-.643.861-.881 1.345-.191.388-.36.786-.563 1.168-.188.355-.443.688-.555 1.077-.269.941-.204 2.003-.367 2.97-.083.493-.171.986-.22 1.484-.022.219-.066.486.028.697.069.154.331.444.527.325" style="fill:#993c1e;fill-opacity:1;fill-rule:nonzero;stroke:none"/>
  </g>
  <g clip-path="url(#b)" transform="matrix(.3011 0 0 -.3011 2.906 3.728)">
    <path d="M0 0c-.15-.041.669-2.929.813-3.29.355-.895 1.032-1.546 1.336-2.462.116-.347.683-1.244 1.168-.764.321.318-.632.989-.817 1.245-.528.728-.798 1.66-1.268 2.431C1.092-2.609-.09-.024 0 0" style="fill:#4d2218;fill-opacity:1;fill-rule:nonzero;stroke:none"/>
  </g>
  <g clip-path="url(#c)" transform="matrix(.3011 0 0 -.3011 4.562 2.468)">
    <path d="M0 0c.019.03 1.395-1.103 1.457-1.164.355-.342.675-.719.983-1.103.828-1.031 1.597-2.111 2.353-3.195.128-.188.577-.438.66-.089.055.231-.366.677-.477.837-.41.59-.741 1.242-1.18 1.81-.588.761-1.338 1.399-2.121 1.952C1.582-.887.077.123 0 0" style="fill:#4d2218;fill-opacity:1;fill-rule:nonzero;stroke:none"/>
  </g>
  <g clip-path="url(#d)" transform="matrix(.3011 0 0 -.3011 5.816 4.953)">
    <path d="M0 0c.007.012.789-1.438.613-1.443.134.003.096.758.084.828-.03.18-.086.358-.224.483C.427-.09.069.127 0 0" style="fill:#4d2218;fill-opacity:1;fill-rule:nonzero;stroke:none"/>
  </g>
  <g clip-path="url(#e)" transform="matrix(.3011 0 0 -.3011 4.84 5.384)">
    <path d="M0 0c-.156-.096.003-.552.168-.548C.538-.541.282.173 0 0" style="fill:#4d2218;fill-opacity:1;fill-rule:nonzero;stroke:none"/>
  </g>
  <g clip-path="url(#f)" transform="matrix(.3011 0 0 -.3011 4.955 5.764)">
    <path d="M0 0c-.089-.16.417-.657.577-.604C.945-.483.204.364 0 0" style="fill:#4d2218;fill-opacity:1;fill-rule:nonzero;stroke:none"/>
  </g>
  <g clip-path="url(#g)" transform="matrix(.3011 0 0 -.3011 5.453 5.723)">
    <path d="M0 0c-.375-.802.699-.821 1.031-1.237.227-.283.46-.483.855-.318.267.11.483.43.39.725-.08.258-.393.344-.524.58-.158.287-.034.511-.402.555-.11.014-.193-.035-.305.015C.902.383.92.53.743.548.534.568.083.177 0 0" style="fill:#4d2218;fill-opacity:1;fill-rule:nonzero;stroke:none"/>
  </g>
  <g clip-path="url(#h)" transform="matrix(.3011 0 0 -.3011 6.292 5.514)">
    <path d="M0 0c.168-.016.23-.207.422-.217.041-.002.27.101.297.064C.752-.199.452-.578.43-.635.368-.79.335-.949.368-1.115c.099-.498.548-.481.885-.201.116.097.185.224.282.338.153.182.334.276.516.42.144.112.639.859.732.262.056-.361-.364-.44-.602-.543a2.11 2.11 0 0 1-1.053-1.063c-.074-.164-.149-.431-.028-.599.142-.2.379-.093.588-.15.155-.043.178-.132.337-.037.043.026.215.388.255.378.121-.03.029-.485.005-.546-.111-.281-.264-.264-.525-.283-.208-.015-.634-.068-.708-.321-.07-.236.208-.485.404-.548.236-.077.551-.037.796-.071.281-.038.557-.081.842-.054.343.033.637.191.967.267.23.053.288.049.201-.215-.079-.239-.327-.61-.602-.597-.273.014-.475.243-.781.129-.44-.165-.639-.819-1.192-.672a1.532 1.532 0 0 0-.736.516c-.168.243-.098.462-.131.731a1.41 1.41 0 0 1-.423.829c-.232.215-.498.291-.652.594-.224.441-.053.898.018 1.358.024.154.063.316.049.473-.019.208-.3.766.188.72" style="fill:#4d2218;fill-opacity:1;fill-rule:nonzero;stroke:none"/>
  </g>
  <g clip-path="url(#i)" transform="matrix(.3011 0 0 -.3011 6.02 4.285)">
    <path d="M0 0c-.13-.062.35-.881.406-.959.19-.269.52-.397.692-.663.072-.112.669-1.496.762-1.435-.108-.072-.139.513-.135.558.012.146.036.265.02.409-.033.29-.031.887-.362.961-.185.042-.329-.054-.523.039-.174.084-.307.25-.42.401C.398-.632.035.017 0 0" style="fill:#4d2218;fill-opacity:1;fill-rule:nonzero;stroke:none"/>
  </g>
  <g clip-path="url(#j)" transform="matrix(.3011 0 0 -.3011 4.1 5.763)">
    <path d="M0 0c-.024-.005.172-.53.179-.544.128-.258.328-.518.579-.666.227-.133.422-.112.668-.122.333-.014.547-.124.843-.237.492-.187.911.085 1.316-.289.249-.231.375-.339.723-.4.192-.034.364.006.324-.247-.047-.297-.408-.34-.626-.257-.272.103-.482.356-.684.549-.371.352-1.056.739-1.577.453-.293-.161-.313-.444-.701-.217-.247.145-.467.386-.63.62C.34-1.252-.201-.043 0 0" style="fill:#4d2218;fill-opacity:1;fill-rule:nonzero;stroke:none"/>
  </g>
  <g clip-path="url(#k)" transform="matrix(.3011 0 0 -.3011 5.166 6.771)">
    <path d="M0 0c-.092.072-1.455-.762-1.542-.807l-1.095-.573c-.069-.037-.185-.133-.262-.138-.158-.011-.356.235-.526.29-.495.159-.155-.504.051-.662.311-.237.978-.148 1.359-.113.272.025.642.095.84.297.211.216.027.502.229.68.169.149.405.098.572.306.055.069.444.665.374.72" style="fill:#4d2218;fill-opacity:1;fill-rule:nonzero;stroke:none"/>
  </g>
  <g clip-path="url(#l)" transform="matrix(.3011 0 0 -.3011 3.564 7.203)">
    <path d="M0 0c-.362-.3.702-.806.798-.454C.852-.258.152.126 0 0" style="fill:#4d2218;fill-opacity:1;fill-rule:nonzero;stroke:none"/>
  </g>
  <g clip-path="url(#m)" transform="matrix(.3011 0 0 -.3011 3.537 6.99)">
    <path d="M0 0c-.032.204-1.057.397-1.208.459-.295.12-.557.263-.802.468-.034.028-.44.472-.506.427-.05-.035.053-.284.05-.347-.008-.161-.208-.308-.199-.433.018-.248.883-.441 1.078-.551.236-.134.457-.359.721-.433.232-.064.919.071.866.41" style="fill:#4d2218;fill-opacity:1;fill-rule:nonzero;stroke:none"/>
  </g>
  <g clip-path="url(#n)" transform="matrix(.3011 0 0 -.3011 1.522 6.625)">
    <path d="M0 0c0 .012 1.216.087 1.319.095.167.013 1.315.258 1.314.259-.004.006-.291-.404-.291-.48.001-.058.28-.51.289-.499-.039-.05-.499.271-.564.306a2.865 2.865 0 0 1-.948.34C1.037.034-.001.1 0 0" style="fill:#4d2218;fill-opacity:1;fill-rule:nonzero;stroke:none"/>
  </g>
  <g clip-path="url(#o)" transform="matrix(.3011 0 0 -.3011 2.962 8.528)">
    <path d="M0 0c.015.208 1.163.299 1.307.199.202-.142-.127-.271-.285-.329C.898-.175-.021-.298 0 0" style="fill:#4d2218;fill-opacity:1;fill-rule:nonzero;stroke:none"/>
  </g>
  <g clip-path="url(#p)" transform="matrix(.3011 0 0 -.3011 3.993 8.208)">
    <path d="M0 0c-.173.405 2.061 1.067 2.124.69C2.142.579.106-.247 0 0" style="fill:#4d2218;fill-opacity:1;fill-rule:nonzero;stroke:none"/>
  </g>
  <g clip-path="url(#q)" transform="matrix(.3011 0 0 -.3011 4.97 7.435)">
    <path d="M0 0c-.262-.451.371-1.179.675-.646C.917-.22.34.583 0 0" style="fill:#4d2218;fill-opacity:1;fill-rule:nonzero;stroke:none"/>
  </g>
  <g clip-path="url(#r)" transform="matrix(.3011 0 0 -.3011 5.109 8.302)">
    <path d="M0 0c-.472-.296-.224-1.438.467-1.044C1.108-.679.629.395 0 0" style="fill:#4d2218;fill-opacity:1;fill-rule:nonzero;stroke:none"/>
  </g>
  <g clip-path="url(#s)" transform="matrix(.3011 0 0 -.3011 5.165 9.317)">
    <path d="M0 0c.452.34.797-1.111.889-1.35.092-.237.36-.625.012-.74-.459-.152-.561.308-.635.607C.198-1.21-.306-.23 0 0" style="fill:#4d2218;fill-opacity:1;fill-rule:nonzero;stroke:none"/>
  </g>
  <g clip-path="url(#t)" transform="matrix(.3011 0 0 -.3011 5.294 10.182)">
    <path d="M0 0c-.003-.002.408-.692.473-.728.446-.249.101.514.273.528.019.002.228-1.072.252-1.147.099-.307.254-.571.42-.845.072-.119 1.144-1.908 1.046-1.966C2.305-4.254-.113-.061 0 0" style="fill:#4d2218;fill-opacity:1;fill-rule:nonzero;stroke:none"/>
  </g>
  <g clip-path="url(#u)" transform="matrix(.3011 0 0 -.3011 5.927 8.335)">
    <path d="M0 0c.082.109.798-.284.903-.32.583-.201 1.271-.32 1.883-.192.675.141 1.299.621 1.788 1.093.2.193.352.415.481.66.05.092.178.519.268.571.243-.308.481-.558.539-.956.1-.683.113-1.433.123-2.123.002-.19-.054-1.344-.386-1.294-.229.035-.345 1.01-.392 1.194-.082.319-.156 1.371-.645 1.08-.307-.183-.559-.562-.824-.803a2.93 2.93 0 0 0-.658-.469c-.741-.374-1.332-.134-1.96.335C.947-1.096-.189-.25 0 0" style="fill:#4d2218;fill-opacity:1;fill-rule:nonzero;stroke:none"/>
  </g>
  <g clip-path="url(#v)" transform="matrix(.3011 0 0 -.3011 7.452 7.227)">
    <path d="M0 0c-.033-.025.301-1.069.333-1.069C.738-1.068.312.233 0 0" style="fill:#4d2218;fill-opacity:1;fill-rule:nonzero;stroke:none"/>
  </g>
  <g clip-path="url(#w)" transform="matrix(.3011 0 0 -.3011 7.988 6.768)">
    <path d="M0 0c.079.16.89-.51 1.026-.603.178-.122.597-.331.391-.516-.192-.172-.693-.083-1.005.157-.159.121-.173.181-.241.361C.138-.514-.031-.064 0 0" style="fill:#4d2218;fill-opacity:1;fill-rule:nonzero;stroke:none"/>
  </g>
  <g clip-path="url(#x)" transform="matrix(.3011 0 0 -.3011 8.618 7.076)">
    <path d="M0 0c.079.053.978-1.264.135-1.286-.169-.004-1.097.699-.976.832C-.636-.228.454-1.598.513-1.701c.212-.37.753-1.712 1.411-1.413.67.304-.365 1.069-.612 1.319C1.195-1.677-.197-.131 0 0" style="fill:#4d2218;fill-opacity:1;fill-rule:nonzero;stroke:none"/>
  </g>
  <g clip-path="url(#y)" transform="matrix(.3011 0 0 -.3011 9.218 8.182)">
    <path d="M0 0c-.077-.063.578-1.071.805-.353.049.155-.462.941-.496.91.174.159 1.14-1.526 1.217-1.721.084-.216.792-2.38.695-2.41.081.025-.605 1.639-.657 1.735C1.48-1.685.219.179 0 0" style="fill:#4d2218;fill-opacity:1;fill-rule:nonzero;stroke:none"/>
  </g>
  <g clip-path="url(#z)" transform="matrix(.3011 0 0 -.3011 3.703 5.725)">
    <path d="M0 0c-.175-.167.072-.515.29-.349C.525-.17.194.185 0 0" style="fill:#fab59d;fill-opacity:1;fill-rule:nonzero;stroke:none"/>
  </g>
  <g clip-path="url(#A)" transform="matrix(.3011 0 0 -.3011 3.889 5.77)">
    <path d="M0 0c-.05-.138.376-.813.538-.748C.862-.617.239.651 0 0" style="fill:#110f0d;fill-opacity:1;fill-rule:nonzero;stroke:none"/>
  </g>
  <g clip-path="url(#B)" transform="matrix(.3011 0 0 -.3011 3.782 6.005)">
    <path d="M0 0c-.02-.01.521-.413.614-.451.189-.076 1.017-.26.798-.581-.171-.252-.508.081-.659.179-.173.112-.406.2-.561.34C.135-.462-.148-.071 0 0" style="fill:#fab59d;fill-opacity:1;fill-rule:nonzero;stroke:none"/>
  </g>
  <g clip-path="url(#C)" transform="matrix(.3011 0 0 -.3011 4.888 5.824)">
    <path d="M0 0c-.101-.069.176-.338.227-.356.154-.054.354.045.524.014.174-.032.923-.324.681-.512C.918-1.253.082.056 0 0" style="fill:#fab59d;fill-opacity:1;fill-rule:nonzero;stroke:none"/>
  </g>
  <g clip-path="url(#D)" transform="matrix(.3011 0 0 -.3011 2.59 6.635)">
    <path d="M0 0c-.11-.106.251-.478.384-.371C.489-.287.108.104 0 0" style="fill:#fab59d;fill-opacity:1;fill-rule:nonzero;stroke:none"/>
  </g>
  <g clip-path="url(#E)" transform="matrix(.3011 0 0 -.3011 3.992 7.18)">
    <path d="M0 0c.192.173.533-.296.248-.405C.103-.46-.138-.124 0 0" style="fill:#fab59d;fill-opacity:1;fill-rule:nonzero;stroke:none"/>
  </g>
  <g clip-path="url(#F)" transform="matrix(.3011 0 0 -.3011 3.406 7.254)">
    <path d="M0 0c-.047-.128.576-.606.643-.535C.851-.313.119.32 0 0" style="fill:#fab59d;fill-opacity:1;fill-rule:nonzero;stroke:none"/>
  </g>
  <g clip-path="url(#G)" transform="matrix(.3011 0 0 -.3011 4.954 6.396)">
    <path d="M0 0c-.068-.093.186-.347.138-.386-.08-.066-.101.107-.052.161.047.051.327.04.33.127C.421.012.055.076 0 0" style="fill:#fab59d;fill-opacity:1;fill-rule:nonzero;stroke:none"/>
  </g>
  <g clip-path="url(#H)" transform="matrix(.3011 0 0 -.3011 5.06 6.509)">
    <path d="M0 0c-.33-.18.315-.756.501-.439C.595-.28.155.085 0 0" style="fill:#fab59d;fill-opacity:1;fill-rule:nonzero;stroke:none"/>
  </g>
  <g clip-path="url(#I)" transform="matrix(.3011 0 0 -.3011 5.386 6.697)">
    <path d="M0 0c-.031-.043.961-.122.419-.535C.19-.709.232-.645.205-.468.208-.487.074.103 0 0" style="fill:#fab59d;fill-opacity:1;fill-rule:nonzero;stroke:none"/>
  </g>
  <g clip-path="url(#J)" transform="matrix(.3011 0 0 -.3011 5.487 7.04)">
    <path d="M0 0c.02.149.655.273.596-.122C.584-.202.367-.403.311-.427.188-.48-.026-.198 0 0" style="fill:#fab59d;fill-opacity:1;fill-rule:nonzero;stroke:none"/>
  </g>
  <g clip-path="url(#K)" transform="matrix(.3011 0 0 -.3011 4.925 7.801)">
    <path d="M0 0c-.407-.378.175-.216.449-.023.167.118.275.288.069.3C.356.285.126.117 0 0" style="fill:#fab59d;fill-opacity:1;fill-rule:nonzero;stroke:none"/>
  </g>
  <g clip-path="url(#L)" transform="matrix(.3011 0 0 -.3011 4.002 8.274)">
    <path d="M0 0c-.108-.058-.023-.284.059-.293C.237-.312.171.092 0 0" style="fill:#fab59d;fill-opacity:1;fill-rule:nonzero;stroke:none"/>
  </g>
  <g clip-path="url(#M)" transform="matrix(.3011 0 0 -.3011 5.734 7.134)">
    <path d="M0 0c-.025-.21.397-.622.567-.414C.898-.009.057.478 0 0" style="fill:#fab59d;fill-opacity:1;fill-rule:nonzero;stroke:none"/>
  </g>
  <g clip-path="url(#N)" transform="matrix(.3011 0 0 -.3011 5.743 7.58)">
    <path d="M0 0c-.262-.155.278-.773.445-.503C.53-.364.165.097 0 0" style="fill:#fab59d;fill-opacity:1;fill-rule:nonzero;stroke:none"/>
  </g>
  <g clip-path="url(#O)" transform="matrix(.3011 0 0 -.3011 5.366 7.888)">
    <path d="M0 0c-.219-.293.207-.487.41-.274C.659-.011.221.296 0 0" style="fill:#fab59d;fill-opacity:1;fill-rule:nonzero;stroke:none"/>
  </g>
  <g clip-path="url(#P)" transform="matrix(.3011 0 0 -.3011 5.623 7.88)">
    <path d="M0 0c-.139-.152-.102-.653.176-.506C.444-.364.305.335 0 0" style="fill:#fab59d;fill-opacity:1;fill-rule:nonzero;stroke:none"/>
  </g>
  <g clip-path="url(#Q)" transform="matrix(.3011 0 0 -.3011 5.155 8.766)">
    <path d="M0 0c-.175-.102.009-.524.198-.453C.446-.36.229.134 0 0" style="fill:#fab59d;fill-opacity:1;fill-rule:nonzero;stroke:none"/>
  </g>
  <g clip-path="url(#R)" transform="matrix(.3011 0 0 -.3011 5.832 8.327)">
    <path d="M0 0c-.159-.099.394-.873.455-.951.112-.146.558-.839.623-.459C1.128-1.112.141.088 0 0" style="fill:#fab59d;fill-opacity:1;fill-rule:nonzero;stroke:none"/>
  </g>
  <g clip-path="url(#S)" transform="matrix(.3011 0 0 -.3011 6.58 8.93)">
    <path d="M0 0c-.151-.242.074-.391.241-.501.082-.054.576-.463.605-.445C1.017-.844.292.467 0 0" style="fill:#fab59d;fill-opacity:1;fill-rule:nonzero;stroke:none"/>
  </g>
  <g clip-path="url(#T)" transform="matrix(.3011 0 0 -.3011 5.227 9.934)">
    <path d="M0 0c-.13-.028-.141-.408.072-.355C.262-.308.148.032 0 0" style="fill:#fab59d;fill-opacity:1;fill-rule:nonzero;stroke:none"/>
  </g>
  <g clip-path="url(#U)" transform="matrix(.3011 0 0 -.3011 5.366 10.044)">
    <path d="M0 0c-.153-.121.063-.413.233-.322C.429-.218.169.134 0 0" style="fill:#fab59d;fill-opacity:1;fill-rule:nonzero;stroke:none"/>
  </g>
  <g clip-path="url(#V)" transform="matrix(.3011 0 0 -.3011 9.263 8.013)">
    <path d="M0 0c-.086-.113.176-.475.314-.434C.563-.359.196.257 0 0" style="fill:#fab59d;fill-opacity:1;fill-rule:nonzero;stroke:none"/>
  </g>
  <g clip-path="url(#W)" transform="matrix(.3011 0 0 -.3011 8.666 7.579)">
    <path d="M0 0c.079-.067.258-.289.097-.386-.082-.048-.235.126-.281.162C-.407-.05-.61.145-.85.298c-.102.065-.312.104-.232.246.041.073.208.056.267.039.124-.036.248-.226.351-.299C-.313.179-.142.12 0 0" style="fill:#fab59d;fill-opacity:1;fill-rule:nonzero;stroke:none"/>
  </g>
  <g clip-path="url(#X)" transform="matrix(.3011 0 0 -.3011 8.437 7.084)">
    <path d="M0 0c-.132-.191.141-.347.295-.36.082-.008.169.071.25.044.037-.012.159-.165.121-.182C.675-.494.308.447 0 0" style="fill:#fab59d;fill-opacity:1;fill-rule:nonzero;stroke:none"/>
  </g>
  <g clip-path="url(#Y)" transform="matrix(.3011 0 0 -.3011 7.909 6.84)">
    <path d="M0 0c-.047.081.418-.263.349-.271.136.016-.007.476-.099.52C.149.296-.105.182 0 0" style="fill:#fab59d;fill-opacity:1;fill-rule:nonzero;stroke:none"/>
  </g>
  <g clip-path="url(#Z)" transform="matrix(.3011 0 0 -.3011 7.646 7.028)">
    <path d="M0 0c.056.167.68-.07.7-.22.023-.183-.758.047-.7.22" style="fill:#fab59d;fill-opacity:1;fill-rule:nonzero;stroke:none"/>
  </g>
  <g clip-path="url(#aa)" transform="matrix(.3011 0 0 -.3011 7.267 7.08)">
    <path d="M0 0c-.028-.073.435-.939.46-.933C.715-.873.19.487 0 0" style="fill:#fab59d;fill-opacity:1;fill-rule:nonzero;stroke:none"/>
  </g>
  <g clip-path="url(#ab)" transform="matrix(.3011 0 0 -.3011 7.23 6.414)">
    <path d="M0 0c-.196-.09.221-.417.267-.272C.292-.194.087.04 0 0" style="fill:#fab59d;fill-opacity:1;fill-rule:nonzero;stroke:none"/>
  </g>
  <g clip-path="url(#ac)" transform="matrix(.3011 0 0 -.3011 7.846 6.077)">
    <path d="M0 0c.009-.017.286.088.359-.048.084-.155-.22-.309-.242-.263-.01.019.493.207.415.398C.442.31-.052.101 0 0" style="fill:#fab59d;fill-opacity:1;fill-rule:nonzero;stroke:none"/>
  </g>
  <g clip-path="url(#ad)" transform="matrix(.3011 0 0 -.3011 8.588 5.602)">
    <path d="M0 0c-.073.128.414.235.489.2C.84.038.386-.296.326-.237c-.081.08.189.242.043.336C.315.134.025-.044 0 0" style="fill:#fab59d;fill-opacity:1;fill-rule:nonzero;stroke:none"/>
  </g>
  <g clip-path="url(#ae)" transform="matrix(.3011 0 0 -.3011 7.234 4.432)">
    <path d="M0 0c.094.014.432-.645.458-.603.01.017-.412.212-.45.209-.12-.01-.314-.34-.208-.352.001 0 .028.72.2.746" style="fill:#fab59d;fill-opacity:1;fill-rule:nonzero;stroke:none"/>
  </g>
  <g clip-path="url(#af)" transform="matrix(.3011 0 0 -.3011 6.135 4.255)">
    <path d="M0 0c.217.29.735-.421.598-.49.008.003-.232.272-.256.285C.273-.169-.153-.205 0 0" style="fill:#fab59d;fill-opacity:1;fill-rule:nonzero;stroke:none"/>
  </g>
  <g clip-path="url(#ag)" transform="matrix(.3011 0 0 -.3011 5.95 4.167)">
    <path d="M0 0c-.126-.07.076-.363.169-.209C.209-.143.107.059 0 0" style="fill:#fab59d;fill-opacity:1;fill-rule:nonzero;stroke:none"/>
  </g>
  <g clip-path="url(#ah)" transform="matrix(.3011 0 0 -.3011 6.126 4.626)">
    <path d="M0 0c-.233-.164.516-.717.619-.526C.66-.448.078.054 0 0" style="fill:#fab59d;fill-opacity:1;fill-rule:nonzero;stroke:none"/>
  </g>
  <g clip-path="url(#ai)" transform="matrix(.3011 0 0 -.3011 6.346 5.04)">
    <path d="M0 0c-.109-.242.324-.172.316-.165.026-.024.117-.338.057-.345C.464-.5.159.355 0 0" style="fill:#fab59d;fill-opacity:1;fill-rule:nonzero;stroke:none"/>
  </g>
  <g clip-path="url(#aj)" transform="matrix(.3011 0 0 -.3011 7.042 3.048)">
    <path d="M0 0c-.011-.019.456-.572.444-.575C.709-.501.138.24 0 0" style="fill:#fab59d;fill-opacity:1;fill-rule:nonzero;stroke:none"/>
  </g>
</svg>
