<svg xmlns="http://www.w3.org/2000/svg" width="45.287" height="50.697" viewBox="0 0 11.982 13.414">
  <defs>
    <clipPath id="a" clipPathUnits="userSpaceOnUse"/>
    <clipPath id="b" clipPathUnits="userSpaceOnUse"/>
    <clipPath id="c" clipPathUnits="userSpaceOnUse"/>
  </defs>
  <g clip-path="url(#a)" style="fill:#ede7cf;fill-opacity:1" transform="matrix(.35273 -.00558 -.00558 -.35273 .986 2.657)">
    <path d="M0 0c-.48-.228-.986-.511-1.396-.849-.298-.246-.467-.588-.668-.912a5.163 5.163 0 0 1-.797-2.634c-.044-1.569-.001-3.153-.014-4.725-.027-3.114-.12-6.227-.173-9.341-.011-.606.035-1.247.194-1.833.181-.668.595-1.167 1.09-1.633.891-.837 2.027-1.404 3.064-2.035a773.172 773.172 0 0 1 5.663-3.419c.93-.555 1.861-1.107 2.796-1.655.56-.329 1.125-.649 1.684-.979.732-.432 1.291-.713 2.179-.691 1.077.027 1.983.321 2.893.885a114.33 114.33 0 0 0 4.073 2.388c2.517 1.417 5.044 2.814 7.546 4.258.778.449 1.563.663 2.048 1.501.459.795.634 1.624.675 2.528.081 1.792.005 3.599.043 5.394.047 2.273.113 4.545.159 6.818.017.886.004 1.776-.037 2.661-.053 1.112-.604 2.126-1.399 2.892-.855.823-2.009 1.344-3.023 1.938-1.07.627-2.14 1.255-3.209 1.884-1.352.796-2.707 1.589-4.044 2.411-.965.593-1.856 1.303-2.875 1.805-.932.458-1.735.799-2.788.584-.955-.196-1.883-.563-2.749-1.007C7.621 4.536 4.464 2.542 1.24.684.832.448.426.202 0 0" style="fill:#ede7cf;fill-opacity:1;fill-rule:nonzero;stroke:none"/>
  </g>
  <g clip-path="url(#b)" style="fill:#f8f4d7;fill-opacity:1" transform="matrix(.35273 -.00558 -.00558 -.35273 .642 4.306)">
    <path d="M0 0c-.13.044.065.702.084.771.117.429.3.828.545 1.199.4.607.885 1.167 1.47 1.602.895.667 1.897 1.262 2.845 1.855 2.013 1.259 4.087 2.417 6.143 3.603.896.517 1.749 1.11 2.698 1.528 1.167.514 2.286.22 3.423-.295 2.455-1.112 4.78-2.625 7.093-3.996 1.174-.696 2.362-1.407 3.421-2.273 1.156-.945 2.333-2.207 2.773-3.668.028-.09.274-.813.166-.874-.102-.057-.206.208-.249.287-.387.695-.741 1.398-1.231 2.03-.952 1.23-2.296 2.196-3.545 3.1-1.641 1.189-3.392 2.12-5.141 3.127-1.041.598-2.08 1.192-3.188 1.66a7.958 7.958 0 0 1-1.964.571c-.821.12-1.433-.094-2.134-.494-2.128-1.212-4.152-2.576-6.284-3.786C4.75 4.712 2.178 3.704.806 1.475.739 1.366.09-.03 0 0" style="fill:#f8f4d7;fill-opacity:1;fill-rule:nonzero;stroke:none"/>
  </g>
  <g clip-path="url(#c)" style="fill:#f8f4d7;fill-opacity:1" transform="scale(.35278 -.35278) rotate(.906 1686.21 84.544)">
    <path d="M0 0c-.144-.05.455-1.494.525-1.643.278-.601.649-1.131 1.16-1.554 1.183-.98 2.568-1.738 3.881-2.526a199.114 199.114 0 0 1 5.123-2.966c1.295-.724 2.656-1.591 4.153-1.808 1.258-.183 2.494.366 3.596.907 2.071 1.016 4.093 2.14 6.131 3.221.721.383 1.436.777 2.147 1.177.706.396 1.45.763 2.075 1.284.672.56 1.183 1.272 1.579 2.047.131.256.249.523.312.805.021.093.169.914.016.938-.006.001-.41-1.238-.472-1.355-.309-.591-.784-1.086-1.282-1.523-.885-.774-1.891-1.407-2.917-1.976-2.281-1.265-4.602-2.457-6.903-3.685-1.279-.681-2.457-1.306-3.947-1.213-1.6.1-2.934.932-4.305 1.681a171.988 171.988 0 0 0-4.589 2.628c-1.516.89-3.009 1.818-4.501 2.748-.387.411-.772.803-1.058 1.295C.67-1.425.013.005 0 0" style="fill:#f8f4d7;fill-opacity:1;fill-rule:nonzero;stroke:none"/>
  </g>
</svg>
